<svg id="_002-visibility" data-name="002-visibility" xmlns="http://www.w3.org/2000/svg" width="31.328" height="23.495" viewBox="0 0 31.328 23.495">
  <g id="Grupo_11" data-name="Grupo 11" transform="translate(11.782 7.865)">
    <g id="Grupo_10" data-name="Grupo 10">
      <path id="Trazado_19" data-name="Trazado 19" d="M200.124,192.733a.653.653,0,0,0-.923.923,3.915,3.915,0,1,1-5.537,5.537.653.653,0,1,0-.923.923,5.221,5.221,0,1,0,7.383-7.383Z" transform="translate(-192.55 -192.542)" fill="red"/>
    </g>
  </g>
  <g id="Grupo_13" data-name="Grupo 13" transform="translate(10.443 6.526)">
    <g id="Grupo_12" data-name="Grupo 12">
      <path id="Trazado_20" data-name="Trazado 20" d="M176.8,170.749a5.169,5.169,0,0,0-6.131,5.131,5.11,5.11,0,0,0,.091.91.654.654,0,0,0,.641.539.579.579,0,0,0,.115-.01.653.653,0,0,0,.529-.756,3.785,3.785,0,0,1-.07-.683,3.869,3.869,0,0,1,4.6-3.847.652.652,0,0,0,.227-1.284Z" transform="translate(-170.668 -170.659)" fill="red"/>
    </g>
  </g>
  <g id="Grupo_15" data-name="Grupo 15" transform="translate(8.165 4.433)">
    <g id="Grupo_14" data-name="Grupo 14">
      <path id="Trazado_21" data-name="Trazado 21" d="M156.444,143.353a31.707,31.707,0,0,0-8.549-6.819.653.653,0,0,0-.6,1.16,30.673,30.673,0,0,1,7.773,6.08c-1.556,1.685-7.679,7.832-14.134,7.832a15.05,15.05,0,0,1-6.563-1.573.652.652,0,0,0-.566,1.175,16.322,16.322,0,0,0,7.13,1.7c8.042,0,15.208-8.359,15.51-8.716A.652.652,0,0,0,156.444,143.353Z" transform="translate(-133.435 -136.461)" fill="red"/>
    </g>
  </g>
  <g id="Grupo_17" data-name="Grupo 17" transform="translate(0 2.61)">
    <g id="Grupo_16" data-name="Grupo 16">
      <path id="Trazado_22" data-name="Trazado 22" d="M19.946,107.411a13.477,13.477,0,0,0-4.283-.752c-8.042,0-15.208,8.359-15.51,8.716a.653.653,0,0,0-.037.795A24.231,24.231,0,0,0,6.1,121.847a.648.648,0,0,0,.9-.184.651.651,0,0,0-.183-.9,23.869,23.869,0,0,1-5.33-4.928c1.5-1.632,7.666-7.867,14.168-7.867a12.217,12.217,0,0,1,3.866.683.644.644,0,0,0,.826-.41A.651.651,0,0,0,19.946,107.411Z" transform="translate(0 -106.659)" fill="red"/>
    </g>
  </g>
  <g id="Grupo_19" data-name="Grupo 19" transform="translate(3.916)">
    <g id="Grupo_18" data-name="Grupo 18">
      <path id="Trazado_23" data-name="Trazado 23" d="M87.3,64.2a.653.653,0,0,0-.923,0L64.187,86.39a.653.653,0,0,0,.923.923L87.3,65.122A.653.653,0,0,0,87.3,64.2Z" transform="translate(-63.996 -64.008)" fill="red"/>
    </g>
  </g>
</svg>
