<svg id="_001-visibility-1" data-name="001-visibility-1" xmlns="http://www.w3.org/2000/svg" width="31.328" height="18.275" viewBox="0 0 31.328 18.275">
  <g id="Grupo_7" data-name="Grupo 7" transform="translate(0)">
    <g id="Grupo_6" data-name="Grupo 6">
      <path id="Trazado_17" data-name="Trazado 17" d="M31.212,115.429c-.247-.359-6.176-8.767-15.548-8.767-8.042,0-15.208,8.359-15.51,8.716a.655.655,0,0,0,0,.843c.3.356,7.468,8.716,15.51,8.716s15.208-8.359,15.51-8.716A.653.653,0,0,0,31.212,115.429Zm-15.548,8.2c-6.447,0-12.577-6.148-14.134-7.832,1.555-1.685,7.678-7.832,14.134-7.832,7.544,0,12.868,6.139,14.168,7.8C28.331,117.394,22.166,123.631,15.664,123.631Z" transform="translate(0 -106.662)" fill="#0058ff"/>
    </g>
  </g>
  <g id="Grupo_9" data-name="Grupo 9" transform="translate(10.442 3.916)">
    <g id="Grupo_8" data-name="Grupo 8">
      <path id="Trazado_18" data-name="Trazado 18" d="M175.883,170.662a5.221,5.221,0,1,0,5.221,5.221A5.227,5.227,0,0,0,175.883,170.662Zm0,9.137a3.916,3.916,0,1,1,3.916-3.916A3.921,3.921,0,0,1,175.883,179.8Z" transform="translate(-170.662 -170.662)" fill="#0058ff"/>
    </g>
  </g>
</svg>
