<svg xmlns="http://www.w3.org/2000/svg" width="36.728" height="28.381" viewBox="0 0 36.728 28.381">
  <g id="tap" transform="translate(0 -53.333)">
    <g id="Grupo_2374" data-name="Grupo 2374" transform="translate(4.316 55.913)">
      <g id="Grupo_2373" data-name="Grupo 2373" transform="translate(0 0)">
        <path id="Trazado_1078" data-name="Trazado 1078" d="M85.178,94.131l-6.277-6.9a3.2,3.2,0,0,0-4.519.01,3.125,3.125,0,0,0-.808,1.381,3.2,3.2,0,0,0-5.01,1.668,3.2,3.2,0,0,0-4.2.29,3.16,3.16,0,0,0-.8,1.347l-2.958-2.958a3.2,3.2,0,0,0-4.519,4.519l11.366,11.366-6.741,1.058a3.74,3.74,0,0,0-3.2,3.685,2.507,2.507,0,0,0,2.5,2.5H75.761a9.121,9.121,0,0,0,6.493-2.689l2.626-2.626a9.171,9.171,0,0,0,.3-12.656ZM83.7,105.607l-2.626,2.626a7.463,7.463,0,0,1-5.312,2.2H60.019a.835.835,0,0,1-.835-.835,2.066,2.066,0,0,1,1.775-2.033l8.372-1.316a.834.834,0,0,0,.461-1.414L57.266,92.31a1.526,1.526,0,0,1,2.159-2.159L67.777,98.5a.835.835,0,1,0,1.179-1.182l-3.411-3.411A1.526,1.526,0,0,1,67.7,91.752l3.412,3.412A.835.835,0,1,0,72.3,93.983l-1.741-1.741a1.526,1.526,0,0,1,2.159-2.159l1.75,1.75s0,0,0,0l0,0,0,0,0,0h0a0,0,0,0,1,0,0,.835.835,0,0,0,1.164-1.2l-.072-.072a1.527,1.527,0,0,1,2.13-2.187l6.25,6.87a7.5,7.5,0,0,1-.245,10.353Z" transform="translate(-55.153 -86.302)" fill="#0257f3"/>
      </g>
    </g>
    <g id="Grupo_2376" data-name="Grupo 2376" transform="translate(0 53.333)">
      <g id="Grupo_2375" data-name="Grupo 2375" transform="translate(0 0)">
        <path id="Trazado_1079" data-name="Trazado 1079" d="M14.351,57.762a7.505,7.505,0,1,0-9.922,9.923.835.835,0,0,0,.688-1.523A5.836,5.836,0,1,1,12.83,58.45a.835.835,0,1,0,1.521-.688Z" transform="translate(0 -53.333)" fill="#0257f3"/>
      </g>
    </g>
  </g>
</svg>
