<svg xmlns="http://www.w3.org/2000/svg" xmlns:xlink="http://www.w3.org/1999/xlink" width="1080" height="1920" viewBox="0 0 1080 1920">
  <defs>
    <clipPath id="clip-Web_1920_3">
      <rect width="1080" height="1920"/>
    </clipPath>
  </defs>
  <g id="Web_1920_3" data-name="Web 1920 – 3" clip-path="url(#clip-Web_1920_3)">
    <rect width="1080" height="1920" fill="#fff"/>
    <rect id="Rectángulo_4" data-name="Rectángulo 4" width="1080" height="1920" fill="#fd3d08"/>
    <path id="_001-heart" data-name="001-heart" d="M39.141,69.645a4.59,4.59,0,0,1-3.026-1.137c-3.162-2.765-6.211-5.364-8.9-7.656L27.2,60.84C19.313,54.119,12.5,48.315,7.764,42.6,2.467,36.206,0,30.146,0,23.526A24.467,24.467,0,0,1,6.21,6.816,21.05,21.05,0,0,1,21.868,0a19.69,19.69,0,0,1,12.3,4.246,25.164,25.164,0,0,1,4.973,5.192,25.167,25.167,0,0,1,4.973-5.192A19.69,19.69,0,0,1,56.413,0,21.051,21.051,0,0,1,72.072,6.816a24.466,24.466,0,0,1,6.209,16.71c0,6.62-2.467,12.681-7.764,19.072C65.779,48.315,58.97,54.119,51.084,60.839c-2.695,2.3-5.748,4.9-8.918,7.67A4.594,4.594,0,0,1,39.141,69.645ZM21.868,4.586A16.515,16.515,0,0,0,9.581,9.924a19.9,19.9,0,0,0-5,13.6c0,5.568,2.069,10.548,6.709,16.146,4.485,5.412,11.155,11.1,18.879,17.678l.014.012c2.7,2.3,5.761,4.91,8.947,7.7,3.2-2.791,6.27-5.4,8.976-7.709C55.833,50.767,62.5,45.084,66.987,39.672c4.639-5.6,6.709-10.578,6.709-16.146a19.9,19.9,0,0,0-5-13.6A16.514,16.514,0,0,0,56.413,4.586a15.208,15.208,0,0,0-9.495,3.287A22.251,22.251,0,0,0,41.627,14a2.894,2.894,0,0,1-4.973,0,22.231,22.231,0,0,0-5.292-6.123A15.208,15.208,0,0,0,21.868,4.586Zm0,0" transform="translate(404 98)" fill="#fcab8f"/>
    <path id="_001-heart-2" data-name="001-heart" d="M39.141,69.645a4.59,4.59,0,0,1-3.026-1.137c-3.162-2.765-6.211-5.364-8.9-7.656L27.2,60.84C19.313,54.119,12.5,48.315,7.764,42.6,2.467,36.206,0,30.146,0,23.526A24.467,24.467,0,0,1,6.21,6.816,21.05,21.05,0,0,1,21.868,0a19.69,19.69,0,0,1,12.3,4.246,25.164,25.164,0,0,1,4.973,5.192,25.167,25.167,0,0,1,4.973-5.192A19.69,19.69,0,0,1,56.413,0,21.051,21.051,0,0,1,72.072,6.816a24.466,24.466,0,0,1,6.209,16.71c0,6.62-2.467,12.681-7.764,19.072C65.779,48.315,58.97,54.119,51.084,60.839c-2.695,2.3-5.748,4.9-8.918,7.67A4.594,4.594,0,0,1,39.141,69.645ZM21.868,4.586A16.515,16.515,0,0,0,9.581,9.924a19.9,19.9,0,0,0-5,13.6c0,5.568,2.069,10.548,6.709,16.146,4.485,5.412,11.155,11.1,18.879,17.678l.014.012c2.7,2.3,5.761,4.91,8.947,7.7,3.2-2.791,6.27-5.4,8.976-7.709C55.833,50.767,62.5,45.084,66.987,39.672c4.639-5.6,6.709-10.578,6.709-16.146a19.9,19.9,0,0,0-5-13.6A16.514,16.514,0,0,0,56.413,4.586a15.208,15.208,0,0,0-9.495,3.287A22.251,22.251,0,0,0,41.627,14a2.894,2.894,0,0,1-4.973,0,22.231,22.231,0,0,0-5.292-6.123A15.208,15.208,0,0,0,21.868,4.586Zm0,0" transform="translate(540 216)" fill="#fcab8f"/>
    <path id="_001-heart-3" data-name="001-heart" d="M39.141,69.645a4.59,4.59,0,0,1-3.026-1.137c-3.162-2.765-6.211-5.364-8.9-7.656L27.2,60.84C19.313,54.119,12.5,48.315,7.764,42.6,2.467,36.206,0,30.146,0,23.526A24.467,24.467,0,0,1,6.21,6.816,21.05,21.05,0,0,1,21.868,0a19.69,19.69,0,0,1,12.3,4.246,25.164,25.164,0,0,1,4.973,5.192,25.167,25.167,0,0,1,4.973-5.192A19.69,19.69,0,0,1,56.413,0,21.051,21.051,0,0,1,72.072,6.816a24.466,24.466,0,0,1,6.209,16.71c0,6.62-2.467,12.681-7.764,19.072C65.779,48.315,58.97,54.119,51.084,60.839c-2.695,2.3-5.748,4.9-8.918,7.67A4.594,4.594,0,0,1,39.141,69.645ZM21.868,4.586A16.515,16.515,0,0,0,9.581,9.924a19.9,19.9,0,0,0-5,13.6c0,5.568,2.069,10.548,6.709,16.146,4.485,5.412,11.155,11.1,18.879,17.678l.014.012c2.7,2.3,5.761,4.91,8.947,7.7,3.2-2.791,6.27-5.4,8.976-7.709C55.833,50.767,62.5,45.084,66.987,39.672c4.639-5.6,6.709-10.578,6.709-16.146a19.9,19.9,0,0,0-5-13.6A16.514,16.514,0,0,0,56.413,4.586a15.208,15.208,0,0,0-9.495,3.287A22.251,22.251,0,0,0,41.627,14a2.894,2.894,0,0,1-4.973,0,22.231,22.231,0,0,0-5.292-6.123A15.208,15.208,0,0,0,21.868,4.586Zm0,0" transform="translate(748 206)" fill="#fcab8f"/>
    <path id="_001-heart-4" data-name="001-heart" d="M39.141,69.645a4.59,4.59,0,0,1-3.026-1.137c-3.162-2.765-6.211-5.364-8.9-7.656L27.2,60.84C19.313,54.119,12.5,48.315,7.764,42.6,2.467,36.206,0,30.146,0,23.526A24.467,24.467,0,0,1,6.21,6.816,21.05,21.05,0,0,1,21.868,0a19.69,19.69,0,0,1,12.3,4.246,25.164,25.164,0,0,1,4.973,5.192,25.167,25.167,0,0,1,4.973-5.192A19.69,19.69,0,0,1,56.413,0,21.051,21.051,0,0,1,72.072,6.816a24.466,24.466,0,0,1,6.209,16.71c0,6.62-2.467,12.681-7.764,19.072C65.779,48.315,58.97,54.119,51.084,60.839c-2.695,2.3-5.748,4.9-8.918,7.67A4.594,4.594,0,0,1,39.141,69.645ZM21.868,4.586A16.515,16.515,0,0,0,9.581,9.924a19.9,19.9,0,0,0-5,13.6c0,5.568,2.069,10.548,6.709,16.146,4.485,5.412,11.155,11.1,18.879,17.678l.014.012c2.7,2.3,5.761,4.91,8.947,7.7,3.2-2.791,6.27-5.4,8.976-7.709C55.833,50.767,62.5,45.084,66.987,39.672c4.639-5.6,6.709-10.578,6.709-16.146a19.9,19.9,0,0,0-5-13.6A16.514,16.514,0,0,0,56.413,4.586a15.208,15.208,0,0,0-9.495,3.287A22.251,22.251,0,0,0,41.627,14a2.894,2.894,0,0,1-4.973,0,22.231,22.231,0,0,0-5.292-6.123A15.208,15.208,0,0,0,21.868,4.586Zm0,0" transform="translate(810 430)" fill="#fcab8f"/>
    <path id="_001-heart-5" data-name="001-heart" d="M39.141,69.645a4.59,4.59,0,0,1-3.026-1.137c-3.162-2.765-6.211-5.364-8.9-7.656L27.2,60.84C19.313,54.119,12.5,48.315,7.764,42.6,2.467,36.206,0,30.146,0,23.526A24.467,24.467,0,0,1,6.21,6.816,21.05,21.05,0,0,1,21.868,0a19.69,19.69,0,0,1,12.3,4.246,25.164,25.164,0,0,1,4.973,5.192,25.167,25.167,0,0,1,4.973-5.192A19.69,19.69,0,0,1,56.413,0,21.051,21.051,0,0,1,72.072,6.816a24.466,24.466,0,0,1,6.209,16.71c0,6.62-2.467,12.681-7.764,19.072C65.779,48.315,58.97,54.119,51.084,60.839c-2.695,2.3-5.748,4.9-8.918,7.67A4.594,4.594,0,0,1,39.141,69.645ZM21.868,4.586A16.515,16.515,0,0,0,9.581,9.924a19.9,19.9,0,0,0-5,13.6c0,5.568,2.069,10.548,6.709,16.146,4.485,5.412,11.155,11.1,18.879,17.678l.014.012c2.7,2.3,5.761,4.91,8.947,7.7,3.2-2.791,6.27-5.4,8.976-7.709C55.833,50.767,62.5,45.084,66.987,39.672c4.639-5.6,6.709-10.578,6.709-16.146a19.9,19.9,0,0,0-5-13.6A16.514,16.514,0,0,0,56.413,4.586a15.208,15.208,0,0,0-9.495,3.287A22.251,22.251,0,0,0,41.627,14a2.894,2.894,0,0,1-4.973,0,22.231,22.231,0,0,0-5.292-6.123A15.208,15.208,0,0,0,21.868,4.586Zm0,0" transform="translate(988 800)" fill="#fcab8f"/>
    <path id="_001-heart-6" data-name="001-heart" d="M39.141,69.645a4.59,4.59,0,0,1-3.026-1.137c-3.162-2.765-6.211-5.364-8.9-7.656L27.2,60.84C19.313,54.119,12.5,48.315,7.764,42.6,2.467,36.206,0,30.146,0,23.526A24.467,24.467,0,0,1,6.21,6.816,21.05,21.05,0,0,1,21.868,0a19.69,19.69,0,0,1,12.3,4.246,25.164,25.164,0,0,1,4.973,5.192,25.167,25.167,0,0,1,4.973-5.192A19.69,19.69,0,0,1,56.413,0,21.051,21.051,0,0,1,72.072,6.816a24.466,24.466,0,0,1,6.209,16.71c0,6.62-2.467,12.681-7.764,19.072C65.779,48.315,58.97,54.119,51.084,60.839c-2.695,2.3-5.748,4.9-8.918,7.67A4.594,4.594,0,0,1,39.141,69.645ZM21.868,4.586A16.515,16.515,0,0,0,9.581,9.924a19.9,19.9,0,0,0-5,13.6c0,5.568,2.069,10.548,6.709,16.146,4.485,5.412,11.155,11.1,18.879,17.678l.014.012c2.7,2.3,5.761,4.91,8.947,7.7,3.2-2.791,6.27-5.4,8.976-7.709C55.833,50.767,62.5,45.084,66.987,39.672c4.639-5.6,6.709-10.578,6.709-16.146a19.9,19.9,0,0,0-5-13.6A16.514,16.514,0,0,0,56.413,4.586a15.208,15.208,0,0,0-9.495,3.287A22.251,22.251,0,0,0,41.627,14a2.894,2.894,0,0,1-4.973,0,22.231,22.231,0,0,0-5.292-6.123A15.208,15.208,0,0,0,21.868,4.586Zm0,0" transform="translate(974 1110)" fill="#fcab8f"/>
    <path id="_001-heart-7" data-name="001-heart" d="M39.141,69.645a4.59,4.59,0,0,1-3.026-1.137c-3.162-2.765-6.211-5.364-8.9-7.656L27.2,60.84C19.313,54.119,12.5,48.315,7.764,42.6,2.467,36.206,0,30.146,0,23.526A24.467,24.467,0,0,1,6.21,6.816,21.05,21.05,0,0,1,21.868,0a19.69,19.69,0,0,1,12.3,4.246,25.164,25.164,0,0,1,4.973,5.192,25.167,25.167,0,0,1,4.973-5.192A19.69,19.69,0,0,1,56.413,0,21.051,21.051,0,0,1,72.072,6.816a24.466,24.466,0,0,1,6.209,16.71c0,6.62-2.467,12.681-7.764,19.072C65.779,48.315,58.97,54.119,51.084,60.839c-2.695,2.3-5.748,4.9-8.918,7.67A4.594,4.594,0,0,1,39.141,69.645ZM21.868,4.586A16.515,16.515,0,0,0,9.581,9.924a19.9,19.9,0,0,0-5,13.6c0,5.568,2.069,10.548,6.709,16.146,4.485,5.412,11.155,11.1,18.879,17.678l.014.012c2.7,2.3,5.761,4.91,8.947,7.7,3.2-2.791,6.27-5.4,8.976-7.709C55.833,50.767,62.5,45.084,66.987,39.672c4.639-5.6,6.709-10.578,6.709-16.146a19.9,19.9,0,0,0-5-13.6A16.514,16.514,0,0,0,56.413,4.586a15.208,15.208,0,0,0-9.495,3.287A22.251,22.251,0,0,0,41.627,14a2.894,2.894,0,0,1-4.973,0,22.231,22.231,0,0,0-5.292-6.123A15.208,15.208,0,0,0,21.868,4.586Zm0,0" transform="translate(896 1652)" fill="#fcab8f"/>
    <g id="_002-like" data-name="002-like" transform="translate(251.958 97)">
      <path id="Trazado_80" data-name="Trazado 80" d="M0,4V36a4,4,0,0,0,4,4H16V0H4A4,4,0,0,0,0,4Z" transform="translate(2.042 30.647)" fill="none" stroke="#fcab8f" stroke-width="4"/>
      <path id="Trazado_81" data-name="Trazado 81" d="M45.534,24.9h-14.7a2.488,2.488,0,0,1-2.176-3.695l5.181-9.33a7.46,7.46,0,0,0-4.715-10.86L25.475.1a2.482,2.482,0,0,0-2.451.748L3.189,22.889A12.43,12.43,0,0,0,0,31.208V57.237A12.451,12.451,0,0,0,12.437,69.674l24.744,0a12.465,12.465,0,0,0,11.994-9.148l5.31-24.368A9.186,9.186,0,0,0,45.534,24.9Z" transform="translate(31.589 0.97)" fill="none" stroke="#fcab8f" stroke-width="4"/>
    </g>
    <g id="_002-like-2" data-name="002-like" transform="translate(317.958 269)">
      <path id="Trazado_80-2" data-name="Trazado 80" d="M0,4V36a4,4,0,0,0,4,4H16V0H4A4,4,0,0,0,0,4Z" transform="translate(2.042 30.647)" fill="none" stroke="#fcab8f" stroke-width="4"/>
      <path id="Trazado_81-2" data-name="Trazado 81" d="M45.534,24.9h-14.7a2.488,2.488,0,0,1-2.176-3.695l5.181-9.33a7.46,7.46,0,0,0-4.715-10.86L25.475.1a2.482,2.482,0,0,0-2.451.748L3.189,22.889A12.43,12.43,0,0,0,0,31.208V57.237A12.451,12.451,0,0,0,12.437,69.674l24.744,0a12.465,12.465,0,0,0,11.994-9.148l5.31-24.368A9.186,9.186,0,0,0,45.534,24.9Z" transform="translate(31.589 0.97)" fill="none" stroke="#fcab8f" stroke-width="4"/>
    </g>
    <g id="_002-like-3" data-name="002-like" transform="translate(562.958 72)">
      <path id="Trazado_80-3" data-name="Trazado 80" d="M0,4V36a4,4,0,0,0,4,4H16V0H4A4,4,0,0,0,0,4Z" transform="translate(2.042 30.647)" fill="none" stroke="#fcab8f" stroke-width="4"/>
      <path id="Trazado_81-3" data-name="Trazado 81" d="M45.534,24.9h-14.7a2.488,2.488,0,0,1-2.176-3.695l5.181-9.33a7.46,7.46,0,0,0-4.715-10.86L25.475.1a2.482,2.482,0,0,0-2.451.748L3.189,22.889A12.43,12.43,0,0,0,0,31.208V57.237A12.451,12.451,0,0,0,12.437,69.674l24.744,0a12.465,12.465,0,0,0,11.994-9.148l5.31-24.368A9.186,9.186,0,0,0,45.534,24.9Z" transform="translate(31.589 0.97)" fill="none" stroke="#fcab8f" stroke-width="4"/>
    </g>
    <g id="_002-like-4" data-name="002-like" transform="translate(604.958 339)">
      <path id="Trazado_80-4" data-name="Trazado 80" d="M0,4V36a4,4,0,0,0,4,4H16V0H4A4,4,0,0,0,0,4Z" transform="translate(2.042 30.647)" fill="none" stroke="#fcab8f" stroke-width="4"/>
      <path id="Trazado_81-4" data-name="Trazado 81" d="M45.534,24.9h-14.7a2.488,2.488,0,0,1-2.176-3.695l5.181-9.33a7.46,7.46,0,0,0-4.715-10.86L25.475.1a2.482,2.482,0,0,0-2.451.748L3.189,22.889A12.43,12.43,0,0,0,0,31.208V57.237A12.451,12.451,0,0,0,12.437,69.674l24.744,0a12.465,12.465,0,0,0,11.994-9.148l5.31-24.368A9.186,9.186,0,0,0,45.534,24.9Z" transform="translate(31.589 0.97)" fill="none" stroke="#fcab8f" stroke-width="4"/>
    </g>
    <g id="_002-like-5" data-name="002-like" transform="translate(943.958 512)">
      <path id="Trazado_80-5" data-name="Trazado 80" d="M0,4V36a4,4,0,0,0,4,4H16V0H4A4,4,0,0,0,0,4Z" transform="translate(2.042 30.647)" fill="none" stroke="#fcab8f" stroke-width="4"/>
      <path id="Trazado_81-5" data-name="Trazado 81" d="M45.534,24.9h-14.7a2.488,2.488,0,0,1-2.176-3.695l5.181-9.33a7.46,7.46,0,0,0-4.715-10.86L25.475.1a2.482,2.482,0,0,0-2.451.748L3.189,22.889A12.43,12.43,0,0,0,0,31.208V57.237A12.451,12.451,0,0,0,12.437,69.674l24.744,0a12.465,12.465,0,0,0,11.994-9.148l5.31-24.368A9.186,9.186,0,0,0,45.534,24.9Z" transform="translate(31.589 0.97)" fill="none" stroke="#fcab8f" stroke-width="4"/>
    </g>
    <g id="_002-like-6" data-name="002-like" transform="translate(901.958 946)">
      <path id="Trazado_80-6" data-name="Trazado 80" d="M0,4V36a4,4,0,0,0,4,4H16V0H4A4,4,0,0,0,0,4Z" transform="translate(2.042 30.647)" fill="none" stroke="#fcab8f" stroke-width="4"/>
      <path id="Trazado_81-6" data-name="Trazado 81" d="M45.534,24.9h-14.7a2.488,2.488,0,0,1-2.176-3.695l5.181-9.33a7.46,7.46,0,0,0-4.715-10.86L25.475.1a2.482,2.482,0,0,0-2.451.748L3.189,22.889A12.43,12.43,0,0,0,0,31.208V57.237A12.451,12.451,0,0,0,12.437,69.674l24.744,0a12.465,12.465,0,0,0,11.994-9.148l5.31-24.368A9.186,9.186,0,0,0,45.534,24.9Z" transform="translate(31.589 0.97)" fill="none" stroke="#fcab8f" stroke-width="4"/>
    </g>
    <g id="_002-like-7" data-name="002-like" transform="translate(901.958 1245)">
      <path id="Trazado_80-7" data-name="Trazado 80" d="M0,4V36a4,4,0,0,0,4,4H16V0H4A4,4,0,0,0,0,4Z" transform="translate(2.042 30.647)" fill="none" stroke="#fcab8f" stroke-width="4"/>
      <path id="Trazado_81-7" data-name="Trazado 81" d="M45.534,24.9h-14.7a2.488,2.488,0,0,1-2.176-3.695l5.181-9.33a7.46,7.46,0,0,0-4.715-10.86L25.475.1a2.482,2.482,0,0,0-2.451.748L3.189,22.889A12.43,12.43,0,0,0,0,31.208V57.237A12.451,12.451,0,0,0,12.437,69.674l24.744,0a12.465,12.465,0,0,0,11.994-9.148l5.31-24.368A9.186,9.186,0,0,0,45.534,24.9Z" transform="translate(31.589 0.97)" fill="none" stroke="#fcab8f" stroke-width="4"/>
    </g>
    <g id="_002-like-8" data-name="002-like" transform="translate(940.958 1448)">
      <path id="Trazado_80-8" data-name="Trazado 80" d="M0,4V36a4,4,0,0,0,4,4H16V0H4A4,4,0,0,0,0,4Z" transform="translate(2.042 30.647)" fill="none" stroke="#fcab8f" stroke-width="4"/>
      <path id="Trazado_81-8" data-name="Trazado 81" d="M45.534,24.9h-14.7a2.488,2.488,0,0,1-2.176-3.695l5.181-9.33a7.46,7.46,0,0,0-4.715-10.86L25.475.1a2.482,2.482,0,0,0-2.451.748L3.189,22.889A12.43,12.43,0,0,0,0,31.208V57.237A12.451,12.451,0,0,0,12.437,69.674l24.744,0a12.465,12.465,0,0,0,11.994-9.148l5.31-24.368A9.186,9.186,0,0,0,45.534,24.9Z" transform="translate(31.589 0.97)" fill="none" stroke="#fcab8f" stroke-width="4"/>
    </g>
    <g id="_002-like-9" data-name="002-like" transform="translate(932.958 1798)">
      <path id="Trazado_80-9" data-name="Trazado 80" d="M0,4V36a4,4,0,0,0,4,4H16V0H4A4,4,0,0,0,0,4Z" transform="translate(2.042 30.647)" fill="none" stroke="#fcab8f" stroke-width="4"/>
      <path id="Trazado_81-9" data-name="Trazado 81" d="M45.534,24.9h-14.7a2.488,2.488,0,0,1-2.176-3.695l5.181-9.33a7.46,7.46,0,0,0-4.715-10.86L25.475.1a2.482,2.482,0,0,0-2.451.748L3.189,22.889A12.43,12.43,0,0,0,0,31.208V57.237A12.451,12.451,0,0,0,12.437,69.674l24.744,0a12.465,12.465,0,0,0,11.994-9.148l5.31-24.368A9.186,9.186,0,0,0,45.534,24.9Z" transform="translate(31.589 0.97)" fill="none" stroke="#fcab8f" stroke-width="4"/>
    </g>
    <g id="_002-like-10" data-name="002-like" transform="translate(890.958 72)">
      <path id="Trazado_80-10" data-name="Trazado 80" d="M0,4V36a4,4,0,0,0,4,4H16V0H4A4,4,0,0,0,0,4Z" transform="translate(2.042 30.647)" fill="none" stroke="#fcab8f" stroke-width="4"/>
      <path id="Trazado_81-10" data-name="Trazado 81" d="M45.534,24.9h-14.7a2.488,2.488,0,0,1-2.176-3.695l5.181-9.33a7.46,7.46,0,0,0-4.715-10.86L25.475.1a2.482,2.482,0,0,0-2.451.748L3.189,22.889A12.43,12.43,0,0,0,0,31.208V57.237A12.451,12.451,0,0,0,12.437,69.674l24.744,0a12.465,12.465,0,0,0,11.994-9.148l5.31-24.368A9.186,9.186,0,0,0,45.534,24.9Z" transform="translate(31.589 0.97)" fill="none" stroke="#fcab8f" stroke-width="4"/>
    </g>
    <g id="_002-like-11" data-name="002-like" transform="translate(901.958 275)">
      <path id="Trazado_80-11" data-name="Trazado 80" d="M0,4V36a4,4,0,0,0,4,4H16V0H4A4,4,0,0,0,0,4Z" transform="translate(2.042 30.647)" fill="none" stroke="#fcab8f" stroke-width="4"/>
      <path id="Trazado_81-11" data-name="Trazado 81" d="M45.534,24.9h-14.7a2.488,2.488,0,0,1-2.176-3.695l5.181-9.33a7.46,7.46,0,0,0-4.715-10.86L25.475.1a2.482,2.482,0,0,0-2.451.748L3.189,22.889A12.43,12.43,0,0,0,0,31.208V57.237A12.451,12.451,0,0,0,12.437,69.674l24.744,0a12.465,12.465,0,0,0,11.994-9.148l5.31-24.368A9.186,9.186,0,0,0,45.534,24.9Z" transform="translate(31.589 0.97)" fill="none" stroke="#fcab8f" stroke-width="4"/>
    </g>
  </g>
</svg>
