<?xml version="1.0" encoding="utf-8"?>
<!-- Generator: Adobe Illustrator 24.1.0, SVG Export Plug-In . SVG Version: 6.00 Build 0)  -->
<svg version="1.1" id="Capa_1" xmlns="http://www.w3.org/2000/svg" xmlns:xlink="http://www.w3.org/1999/xlink" x="0px" y="0px"
	 viewBox="0 0 400.9 176" style="enable-background:new 0 0 400.9 176;" xml:space="preserve">
<style type="text/css">
	.st0{fill:#FFFFFF;}
</style>
<g id="Grupo_34" transform="translate(-68.17 -2126.241)">
	<g id="Grupo_32">
		<g id="Trazado_70">
			<path d="M124.5,2253.6c8.4,4.3,12.6,11.5,12.6,21.6c0,8.6-2.9,15-8.8,19.4c-5.8,4.4-13.5,6.6-22.9,6.6H71.1
				c-0.9,0-1.6-0.7-1.6-1.6c0,0,0,0,0,0v-89.6c0-0.9,0.7-1.6,1.6-1.6c0,0,0,0,0,0h33.3c20.9,0,31.4,8.5,31.4,25.5
				c0,8.8-3.8,15.2-11.3,19C124,2253,124,2253.3,124.5,2253.6z M88.2,2225.1v20.7c0,0.3,0.2,0.6,0.5,0.7c0.1,0,0.1,0,0.2,0h15.5
				c4.2,0,7.4-1,9.7-2.9c2.3-2,3.6-4.9,3.4-8c0.1-3.1-1.1-6.1-3.4-8.2c-2.3-2-5.5-3-9.7-3H88.9c-0.3,0-0.6,0.2-0.7,0.5
				C88.2,2224.9,88.2,2225,88.2,2225.1z M115,2281.9c4.6-4.8,4.6-12.3,0-17.1c-2.3-2.1-5.5-3.1-9.7-3.1H88.9c-0.3,0-0.6,0.2-0.7,0.5
				c0,0.1,0,0.1,0,0.2v22c0,0.3,0.2,0.6,0.5,0.7c0.1,0,0.1,0,0.2,0h16.6C109.5,2285,112.7,2283.9,115,2281.9L115,2281.9z"/>
		</g>
		<g id="Trazado_71">
			<path d="M152.2,2300.7c-0.3-0.3-0.5-0.7-0.5-1.1v-89.6c0-0.9,0.7-1.6,1.6-1.6c0,0,0,0,0,0h15.5c0.9,0,1.6,0.7,1.6,1.6
				c0,0,0,0,0,0v74.5c0,0.3,0.2,0.6,0.5,0.7c0.1,0,0.1,0,0.2,0h43.4c0.9,0,1.6,0.7,1.6,1.6c0,0,0,0,0,0v12.9c0,0.9-0.7,1.6-1.6,1.6
				c0,0,0,0,0,0h-61.1C152.9,2301.2,152.5,2301,152.2,2300.7z"/>
		</g>
		<g id="Trazado_72">
			<path d="M287.1,2299.8l-4-13c-0.2-0.4-0.4-0.5-0.7-0.5h-32.6c-0.3,0-0.5,0.2-0.7,0.5l-3.8,13c-0.2,0.8-0.9,1.4-1.7,1.3h-16.8
				c-0.4,0-0.9-0.1-1.2-0.5c-0.3-0.4-0.3-0.9-0.1-1.4l28.6-89.6c0.2-0.8,0.9-1.4,1.7-1.3h20.8c0.8,0,1.6,0.5,1.7,1.3l28.6,89.6
				c0.1,0.2,0.1,0.4,0.1,0.7c0,0.8-0.5,1.2-1.5,1.2h-16.8C288,2301.2,287.2,2300.6,287.1,2299.8z M254.5,2271.9h23.3
				c0.5,0,0.7-0.3,0.5-0.8l-11.9-39.4c-0.1-0.4-0.2-0.5-0.4-0.5c-0.2,0.1-0.4,0.2-0.4,0.5l-11.7,39.4
				C253.8,2271.6,254,2271.9,254.5,2271.9L254.5,2271.9z"/>
		</g>
		<g id="Trazado_73">
			<path d="M330.4,2298.2c-5-2.5-9.2-6.5-12.1-11.3c-2.9-5.1-4.4-11-4.2-16.8v-30.6c-0.1-5.9,1.3-11.7,4.2-16.8
				c2.8-4.9,7-8.8,12.1-11.3c5.7-2.8,11.9-4.1,18.2-4c6.2-0.1,12.3,1.2,18,3.8c5,2.3,9.2,6.1,12.1,10.7c2.9,4.9,4.4,10.4,4.3,16.1
				c0,0.8-0.5,1.3-1.6,1.5l-15.5,0.9h-0.3c-0.9,0-1.3-0.5-1.3-1.5c0-4.7-1.4-8.4-4.3-11.3c-2.9-2.8-6.7-4.2-11.3-4.2
				c-4.8,0-8.6,1.4-11.5,4.2c-2.9,2.8-4.3,6.6-4.3,11.3v32c-0.2,4.2,1.4,8.2,4.3,11.1c2.9,2.8,6.7,4.2,11.5,4.2
				c4.7,0,8.5-1.4,11.3-4.2c2.9-3,4.5-7,4.3-11.1c0-1,0.5-1.5,1.6-1.5l15.5,0.7c0.4,0,0.8,0.1,1.1,0.4c0.3,0.2,0.5,0.6,0.5,0.9
				c0.1,5.7-1.4,11.3-4.3,16.2c-2.9,4.7-7.1,8.5-12.1,10.9c-5.6,2.7-11.8,4-18,3.8C342.3,2302.4,336.1,2301,330.4,2298.2z"/>
		</g>
		<g id="Trazado_74">
			<path d="M397.1,2300.7c-0.3-0.3-0.5-0.7-0.5-1.1v-89.6c0-0.9,0.7-1.6,1.6-1.6c0,0,0,0,0,0h15.5c0.9,0,1.6,0.7,1.6,1.6
				c0,0,0,0,0,0v37.1c0,0.3,0.1,0.4,0.3,0.5c0.2,0,0.4,0,0.5-0.2l30.6-38.1c0.5-0.6,1.2-0.9,2-0.9h17.5c0.7,0,1.1,0.2,1.3,0.6
				c0.2,0.5,0.1,1-0.3,1.4l-29.6,37.8c-0.3,0.2-0.3,0.6-0.1,0.9l31.3,50.3c0.1,0.3,0.2,0.6,0.3,0.9c0,0.6-0.4,0.9-1.3,0.9h-17.5
				c-0.8,0.1-1.5-0.4-1.9-1.1l-23.6-38.2c-0.1-0.2-0.2-0.3-0.4-0.3c-0.2,0-0.4,0.1-0.5,0.3l-8.4,10.5c-0.1,0.2-0.2,0.5-0.3,0.8v26.4
				c0,0.9-0.7,1.6-1.6,1.6c0,0,0,0,0,0h-15.5C397.8,2301.2,397.4,2301,397.1,2300.7z"/>
		</g>
	</g>
	<g id="Grupo_33">
		<g id="Trazado_75">
			<path class="st0" d="M95.6,2198.4c-0.2,0-0.4,0-0.6,0c-4.8,0.1-9.6-1-13.9-3.3l0,0c-4-2.1-7.3-5.3-9.5-9.2
				c-2.3-4.1-3.5-8.8-3.4-13.5l0-20.6c-0.1-4.6,1.1-9.3,3.4-13.3c2.2-3.9,5.5-7,9.5-9.1c4.3-2.2,9.1-3.3,14-3.2
				c4.8-0.1,9.6,1,14,3.2c4,2.1,7.3,5.2,9.5,9.1c2.3,4.1,3.5,8.7,3.4,13.4l0,20.6c0.1,4.7-1.1,9.4-3.4,13.5
				c-2.2,3.9-5.5,7.1-9.5,9.2C104.9,2197.3,100.2,2198.4,95.6,2198.4z M95,2195.4c4.4,0.1,8.8-0.9,12.7-2.9c3.5-1.8,6.3-4.6,8.3-8
				c2-3.7,3.1-7.8,3-12l0-20.6c0.1-4.2-1-8.3-3-11.9c-1.9-3.4-4.8-6.1-8.3-7.9c-3.9-2-8.2-3-12.6-2.9c-4.4-0.1-8.7,0.9-12.6,2.9
				c-3.5,1.8-6.3,4.5-8.3,7.9c-2,3.6-3.1,7.7-3,11.8l0,20.6c-0.1,4.2,0.9,8.4,3,12c1.9,3.4,4.8,6.2,8.3,8
				C86.3,2194.5,90.6,2195.5,95,2195.4z M94.5,2186.8c-3.4,0-6.7-1.4-9.1-3.8c-2.5-2.7-3.8-6.4-3.7-10.1l0-21.1
				c-0.2-3.7,1.1-7.2,3.6-10c2.5-2.6,6-4,9.6-3.9c3.6-0.1,7.2,1.3,9.7,3.9c2.5,2.8,3.8,6.4,3.6,10.1l0,21.1c0.2,3.6-1.2,7.3-3.7,10
				l-0.3,0.3c-2.5,2.4-5.9,3.6-9.3,3.5C94.8,2186.8,94.7,2186.8,94.5,2186.8z M94.5,2140.9c-2.6,0-5.1,1.1-7,3
				c-1.9,2.1-2.9,5-2.8,7.9l0,21.2c-0.1,2.9,0.9,5.8,2.8,7.9c1.9,1.9,4.6,3,7.3,2.9l0.1,0l0.1,0c2.8,0.1,5.5-1,7.4-2.9l0,0
				c1.9-2.1,3-5,2.8-7.8l0-21.2c0.1-3-0.9-5.8-2.8-8c-1.9-2-4.6-3-7.4-2.9l-0.1,0l-0.1,0C94.8,2140.9,94.6,2140.9,94.5,2140.9z"/>
		</g>
		<g id="Trazado_76">
			<path class="st0" d="M170.9,2197.4c-1.1,0-2-0.6-2.5-1.5l-22.7-37.5l0.2,36.3c0,1.5-1.2,2.7-2.6,2.7h-11.3c0,0,0,0,0,0
				c-1.5,0-2.6-1.2-2.6-2.6v-65.1c0-1.5,1.2-2.6,2.6-2.7h10.8c1.1-0.1,2.2,0.5,2.7,1.5l22.6,37.3l-0.1-36.2c0-0.7,0.3-1.4,0.8-1.9
				c0.5-0.5,1.2-0.8,1.9-0.8h11.2c0,0,0,0,0,0c1.4,0,2.6,1.2,2.6,2.6v65.1c0,0.7-0.3,1.4-0.8,1.9c-0.5,0.5-1.2,0.8-1.9,0.8h-10.8
				C171,2197.4,170.9,2197.4,170.9,2197.4z M181.5,2194.7C181.5,2194.7,181.5,2194.7,181.5,2194.7L181.5,2194.7z M132.3,2194.4h10.6
				l-0.2-40.3c0-1.2,0.7-1.7,1.3-1.9c0.3-0.1,1.3-0.2,2,0.9l25,41.3h10.6V2130H171l0.1,40.1c0,1.1-0.7,1.7-1.3,1.9
				c-0.6,0.2-1.4,0-2-0.9l-24.9-41.1h-10.6V2194.4z M131.9,2194.4C131.9,2194.4,131.9,2194.4,131.9,2194.4L131.9,2194.4
				C131.9,2194.4,131.9,2194.4,131.9,2194.4z M170.6,2130L170.6,2130C170.6,2130,170.6,2130,170.6,2130z M181.9,2130
				C181.9,2130,181.9,2130,181.9,2130L181.9,2130z M132.3,2129.7L132.3,2129.7C132.3,2129.7,132.3,2129.7,132.3,2129.7z M171,2129.6
				L171,2129.6C171,2129.6,171,2129.6,171,2129.6z"/>
		</g>
		<g id="Trazado_77">
			<path class="st0" d="M195.9,2197.4c-0.7,0-1.3-0.3-1.8-0.8c-0.5-0.5-0.8-1.2-0.8-1.9l0-65c0-0.7,0.3-1.4,0.8-1.9
				c0.5-0.5,1.2-0.8,1.9-0.8h11.3c0.7,0,1.4,0.3,1.9,0.8c0.5,0.5,0.8,1.2,0.8,1.9v53.1h30.5c0,0,0,0,0,0c0.7,0,1.4,0.3,1.9,0.8
				c0.5,0.5,0.8,1.2,0.8,1.9v9.4c0,0.7-0.3,1.4-0.8,1.9c-0.5,0.5-1.2,0.8-1.9,0.8L195.9,2197.4
				C195.9,2197.4,195.9,2197.4,195.9,2197.4z M240,2194.7C240,2194.7,240,2194.7,240,2194.7L240,2194.7z M196.3,2194.7L196.3,2194.7
				C196.3,2194.7,196.3,2194.7,196.3,2194.7z M195.9,2194.4C195.9,2194.4,195.9,2194.4,195.9,2194.4L195.9,2194.4
				C195.9,2194.4,195.9,2194.4,195.9,2194.4z M196.3,2130v64.4l43.7,0v-8.6h-31.1c-0.1,0-0.3,0-0.4,0c-0.5-0.1-1-0.3-1.3-0.8
				c-0.3-0.4-0.4-0.8-0.4-1.3V2130H196.3z M240.3,2185.7C240.3,2185.7,240.3,2185.7,240.3,2185.7L240.3,2185.7z M207.2,2130
				C207.2,2130,207.2,2130,207.2,2130L207.2,2130z M196.3,2129.7L196.3,2129.7C196.3,2129.7,196.3,2129.7,196.3,2129.7z"/>
		</g>
		<g id="Trazado_78">
			<path class="st0" d="M263,2197.3c-0.7,0-1.3-0.3-1.8-0.8c-0.5-0.5-0.8-1.2-0.8-1.9l0-24.3l0,0l-19.8-39.7
				c-0.2-0.3-0.3-0.7-0.4-1.1l0-0.2c0-1.1,0.8-2.3,2.6-2.3h12.1c1.1-0.1,2.3,0.6,2.7,1.8l10.9,23.3l10.9-23.3
				c0.5-1.1,1.6-1.8,2.8-1.8l12.2,0c0.8-0.1,1.6,0.2,2.1,0.8l0.1,0.2l0.1,0.2c0.4,0.8,0.3,1.7-0.1,2.4l-19.9,39.7l0,24.3
				c0,0.7-0.3,1.4-0.8,1.9c-0.5,0.5-1.2,0.8-1.9,0.8L263,2197.3C263,2197.3,263,2197.3,263,2197.3z M273.8,2194.6
				C273.8,2194.6,273.8,2194.6,273.8,2194.6L273.8,2194.6z M263.4,2194.6L263.4,2194.6C263.4,2194.6,263.4,2194.6,263.4,2194.6z
				 M263,2194.3C263,2194.3,263,2194.3,263,2194.3L263,2194.3C263,2194.3,263,2194.3,263,2194.3z M243.7,2130l19.5,39.1
				c0.2,0.4,0.2,0.8,0.2,1.2l0,23.9l10.5,0v-24c0-0.3,0.1-0.8,0.2-1.1l0-0.1l19.6-39l-11.4,0l-12,25.6c-0.5,1-1.3,1.2-1.6,1.2
				s-1.1-0.1-1.6-1.1l-12-25.6L243.7,2130z M255,2130C255,2130,255,2130,255,2130L255,2130z"/>
		</g>
	</g>
</g>
</svg>
