<?xml version="1.0" encoding="utf-8"?>
<!-- Generator: Adobe Illustrator 24.1.0, SVG Export Plug-In . SVG Version: 6.00 Build 0)  -->
<svg version="1.1" id="Capa_1" xmlns="http://www.w3.org/2000/svg" xmlns:xlink="http://www.w3.org/1999/xlink" x="0px" y="0px"
	 viewBox="0 0 309.2 266.9" style="enable-background:new 0 0 309.2 266.9;" xml:space="preserve">
<style type="text/css">
	.st0{fill:#085BFE;}
	.st1{enable-background:new    ;}
	.st2{fill:#FFFFFF;}
</style>
<g id="Grupo_31" transform="translate(-6010.872 -3286.064)">
	<path id="Trazado_69" class="st0" d="M6038.9,3531.5l-27.8-186.6c-2-13.1,6.7-25.5,19.7-28.3l135.8-28.8
		c36.2-7.7,73,10.9,88.2,44.7l63,139.3c5.7,12.7,0.1,27.5-12.6,33.3c-1.8,0.8-3.6,1.4-5.5,1.8l-231.1,45.7
		c-13.6,2.7-26.8-6.2-29.5-19.8C6039.1,3532.3,6039,3531.9,6038.9,3531.5z"/>
	<g class="st1">
		<path class="st2" d="M6065.4,3387.6c-2.8-1.2-5-2.9-6.5-5.1c-1.5-2.2-2.3-4.8-2.3-7.8v-1.5c0-0.2,0.1-0.4,0.2-0.6
			c0.2-0.2,0.4-0.2,0.6-0.2h8c0.2,0,0.4,0.1,0.6,0.2c0.2,0.2,0.2,0.4,0.2,0.6v1.1c0,1.9,0.9,3.5,2.6,4.8c1.7,1.3,4.1,1.9,7,1.9
			c2.5,0,4.3-0.5,5.6-1.6c1.2-1.1,1.8-2.4,1.8-3.9c0-1.1-0.4-2.1-1.1-2.8c-0.8-0.8-1.8-1.5-3.1-2c-1.3-0.6-3.3-1.4-6.2-2.4
			c-3.1-1.1-5.8-2.2-8-3.3c-2.2-1.1-4-2.7-5.5-4.6c-1.5-1.9-2.2-4.4-2.2-7.2c0-2.8,0.7-5.3,2.2-7.4c1.5-2.1,3.5-3.7,6.1-4.9
			c2.6-1.1,5.6-1.7,8.9-1.7c3.6,0,6.7,0.6,9.5,1.9c2.8,1.3,5,3,6.5,5.3c1.6,2.3,2.4,4.9,2.4,7.9v1.1c0,0.2-0.1,0.4-0.2,0.6
			c-0.2,0.2-0.4,0.2-0.6,0.2h-8.1c-0.2,0-0.4-0.1-0.6-0.2c-0.2-0.2-0.2-0.4-0.2-0.6v-0.6c0-2-0.8-3.6-2.4-5
			c-1.6-1.4-3.8-2.1-6.7-2.1c-2.2,0-3.9,0.5-5.2,1.4c-1.2,0.9-1.9,2.2-1.9,3.9c0,1.2,0.4,2.2,1.1,3c0.7,0.8,1.8,1.5,3.2,2.1
			c1.4,0.6,3.6,1.5,6.7,2.6c3.3,1.2,5.9,2.3,7.8,3.2s3.6,2.3,5.1,4.2c1.5,1.9,2.3,4.3,2.3,7.2c0,4.4-1.6,7.9-4.9,10.5
			c-3.2,2.6-7.6,3.8-13.2,3.8C6071.5,3389.4,6068.2,3388.8,6065.4,3387.6z"/>
		<path class="st2" d="M6105.4,3386.3c-2.8-2.1-4.7-4.9-5.8-8.4c-0.7-2.2-1-4.6-1-7.2c0-2.8,0.3-5.3,1-7.5c1.1-3.5,3-6.2,5.8-8.2
			c2.8-2,6.2-3,10.1-3c3.8,0,7.1,1,9.9,2.9c2.7,1.9,4.6,4.7,5.8,8.1c0.8,2.3,1.1,4.8,1.1,7.4c0,2.5-0.3,4.9-1,7.1
			c-1,3.7-2.9,6.5-5.7,8.6c-2.8,2.1-6.2,3.1-10.1,3.1S6108.2,3388.4,6105.4,3386.3z M6119.5,3379.5c1.1-0.9,1.9-2.2,2.3-3.9
			c0.4-1.5,0.6-3.1,0.6-4.9c0-2-0.2-3.6-0.6-5c-0.5-1.6-1.3-2.8-2.4-3.7c-1.1-0.9-2.4-1.3-3.9-1.3c-1.6,0-2.9,0.4-4,1.3
			c-1.1,0.9-1.8,2.1-2.3,3.7c-0.4,1.1-0.6,2.8-0.6,5c0,2.1,0.2,3.8,0.5,4.9c0.5,1.6,1.3,2.9,2.4,3.9c1.1,0.9,2.5,1.4,4,1.4
			C6117.1,3380.9,6118.4,3380.4,6119.5,3379.5z"/>
		<path class="st2" d="M6139,3388.6c-0.2-0.2-0.2-0.4-0.2-0.6v-47.6c0-0.2,0.1-0.4,0.2-0.6c0.2-0.2,0.4-0.2,0.6-0.2h8.2
			c0.2,0,0.4,0.1,0.6,0.2c0.2,0.2,0.2,0.4,0.2,0.6v47.6c0,0.2-0.1,0.4-0.2,0.6c-0.2,0.2-0.4,0.2-0.6,0.2h-8.2
			C6139.4,3388.8,6139.2,3388.8,6139,3388.6z"/>
		<path class="st2" d="M6161.8,3386.3c-2.8-2.1-4.7-4.9-5.8-8.4c-0.7-2.2-1-4.6-1-7.2c0-2.8,0.3-5.3,1-7.5c1.1-3.5,3-6.2,5.8-8.2
			c2.8-2,6.2-3,10.1-3c3.8,0,7.1,1,9.9,2.9c2.7,1.9,4.6,4.7,5.8,8.1c0.8,2.3,1.1,4.8,1.1,7.4c0,2.5-0.3,4.9-1,7.1
			c-1,3.7-2.9,6.5-5.7,8.6c-2.8,2.1-6.2,3.1-10.1,3.1S6164.6,3388.4,6161.8,3386.3z M6175.9,3379.5c1.1-0.9,1.9-2.2,2.3-3.9
			c0.4-1.5,0.6-3.1,0.6-4.9c0-2-0.2-3.6-0.6-5c-0.5-1.6-1.3-2.8-2.4-3.7c-1.1-0.9-2.4-1.3-3.9-1.3c-1.6,0-2.9,0.4-4,1.3
			c-1.1,0.9-1.8,2.1-2.3,3.7c-0.4,1.1-0.6,2.8-0.6,5c0,2.1,0.2,3.8,0.5,4.9c0.5,1.6,1.3,2.9,2.4,3.9c1.1,0.9,2.5,1.4,4,1.4
			C6173.5,3380.9,6174.8,3380.4,6175.9,3379.5z"/>
	</g>
	<g class="st1">
		<path class="st2" d="M6063.9,3439.9c-2.7-1.9-4.7-4.5-5.9-7.7c-0.8-2.3-1.2-5.1-1.2-8.3c0-3.1,0.4-5.9,1.2-8.2
			c1.1-3.2,3.1-5.7,5.8-7.5c2.8-1.8,6-2.7,9.8-2.7c3.8,0,7,0.9,9.9,2.8c2.8,1.9,4.7,4.2,5.7,7.1c0.4,1.1,0.6,2,0.6,2.5v0.1
			c0,0.4-0.2,0.7-0.7,0.8l-8.1,1.2h-0.1c-0.4,0-0.7-0.2-0.8-0.7l-0.2-1.1c-0.3-1.2-1.1-2.2-2.2-3c-1.1-0.8-2.5-1.2-4-1.2
			c-1.5,0-2.8,0.4-3.8,1.1c-1,0.8-1.8,1.8-2.2,3.1c-0.5,1.4-0.8,3.3-0.8,5.8s0.2,4.4,0.7,5.8c0.4,1.4,1.2,2.5,2.2,3.3
			s2.3,1.2,3.8,1.2c1.5,0,2.7-0.4,3.8-1.2c1.1-0.8,1.9-1.8,2.3-3.2c0-0.1,0.1-0.2,0.1-0.4c0,0,0.1-0.1,0.1-0.2c0-0.6,0.4-0.8,1-0.7
			l8.1,1.3c0.5,0.1,0.7,0.4,0.7,0.8c0,0.4-0.1,1.1-0.4,2.1c-1,3.1-2.9,5.6-5.7,7.4c-2.8,1.8-6.1,2.7-9.8,2.7
			C6069.9,3442.8,6066.6,3441.8,6063.9,3439.9z"/>
		<path class="st2" d="M6100.9,3439.7c-2.8-2.1-4.7-4.9-5.8-8.4c-0.7-2.2-1-4.6-1-7.2c0-2.8,0.3-5.3,1-7.5c1.1-3.5,3-6.2,5.8-8.2
			c2.8-2,6.2-3,10.1-3c3.8,0,7.1,1,9.9,2.9c2.7,1.9,4.6,4.7,5.8,8.1c0.8,2.3,1.1,4.8,1.1,7.4c0,2.5-0.3,4.9-1,7.1
			c-1,3.7-2.9,6.5-5.7,8.6c-2.8,2.1-6.2,3.1-10.1,3.1S6103.7,3441.7,6100.9,3439.7z M6115,3432.8c1.1-0.9,1.9-2.2,2.3-3.9
			c0.4-1.5,0.6-3.1,0.6-4.9c0-2-0.2-3.6-0.6-5c-0.5-1.6-1.3-2.8-2.4-3.7c-1.1-0.9-2.4-1.3-3.9-1.3c-1.6,0-2.9,0.4-4,1.3
			c-1.1,0.9-1.8,2.1-2.3,3.7c-0.4,1.1-0.6,2.8-0.6,5c0,2.1,0.2,3.8,0.5,4.9c0.5,1.6,1.3,2.9,2.4,3.9c1.1,0.9,2.5,1.4,4,1.4
			C6112.6,3434.2,6113.9,3433.8,6115,3432.8z"/>
		<path class="st2" d="M6162.2,3408.9c2.3,2.3,3.4,5.4,3.4,9.4v23.1c0,0.2-0.1,0.4-0.2,0.6c-0.2,0.2-0.4,0.2-0.6,0.2h-8.2
			c-0.2,0-0.4-0.1-0.6-0.2c-0.2-0.2-0.2-0.4-0.2-0.6v-21c0-1.9-0.5-3.4-1.6-4.6c-1.1-1.2-2.5-1.8-4.2-1.8c-1.7,0-3.1,0.6-4.2,1.8
			c-1.1,1.2-1.6,2.7-1.6,4.6v21c0,0.2-0.1,0.4-0.2,0.6c-0.2,0.2-0.4,0.2-0.6,0.2h-8.2c-0.2,0-0.4-0.1-0.6-0.2
			c-0.2-0.2-0.2-0.4-0.2-0.6v-34.5c0-0.2,0.1-0.4,0.2-0.6c0.2-0.2,0.4-0.2,0.6-0.2h8.2c0.2,0,0.4,0.1,0.6,0.2
			c0.2,0.2,0.2,0.4,0.2,0.6v2.5c0,0.1,0,0.2,0.1,0.3c0.1,0,0.2,0,0.2-0.1c1.9-2.7,4.8-4.1,8.6-4.1
			C6156.9,3405.4,6159.9,3406.6,6162.2,3408.9z"/>
		<path class="st2" d="M6207.4,3413.7c-0.2,0.2-0.4,0.2-0.6,0.2h-6.8c-0.2,0-0.4,0.1-0.4,0.4v14.9c0,1.5,0.3,2.7,1,3.4
			c0.6,0.8,1.7,1.1,3.1,1.1h2.3c0.2,0,0.4,0.1,0.6,0.2c0.2,0.2,0.2,0.4,0.2,0.6v6.7c0,0.5-0.3,0.8-0.8,0.9c-2,0.1-3.4,0.1-4.2,0.1
			c-3.9,0-6.8-0.6-8.7-1.9c-1.9-1.3-2.9-3.7-3-7.3v-18.9c0-0.2-0.1-0.4-0.4-0.4h-4c-0.2,0-0.4-0.1-0.6-0.2c-0.2-0.2-0.2-0.4-0.2-0.6
			v-6.3c0-0.2,0.1-0.4,0.2-0.6c0.2-0.2,0.4-0.2,0.6-0.2h4c0.2,0,0.4-0.1,0.4-0.4v-8.4c0-0.2,0.1-0.4,0.2-0.6
			c0.2-0.2,0.4-0.2,0.6-0.2h7.9c0.2,0,0.4,0.1,0.6,0.2c0.2,0.2,0.2,0.4,0.2,0.6v8.4c0,0.2,0.1,0.4,0.4,0.4h6.8
			c0.2,0,0.4,0.1,0.6,0.2c0.2,0.2,0.2,0.4,0.2,0.6v6.3C6207.6,3413.4,6207.5,3413.6,6207.4,3413.7z"/>
		<path class="st2" d="M6235,3406.3c0.2-0.2,0.4-0.2,0.6-0.2h8.2c0.2,0,0.4,0.1,0.6,0.2c0.2,0.2,0.2,0.4,0.2,0.6v34.5
			c0,0.2-0.1,0.4-0.2,0.6c-0.2,0.2-0.4,0.2-0.6,0.2h-8.2c-0.2,0-0.4-0.1-0.6-0.2c-0.2-0.2-0.2-0.4-0.2-0.6v-2.4c0-0.1,0-0.2-0.1-0.2
			c-0.1,0-0.2,0-0.3,0.2c-1.9,2.5-4.8,3.8-8.7,3.8c-3.6,0-6.5-1.1-8.8-3.2c-2.3-2.2-3.4-5.2-3.4-9.1v-23.5c0-0.2,0.1-0.4,0.2-0.6
			c0.2-0.2,0.4-0.2,0.6-0.2h8.2c0.2,0,0.4,0.1,0.6,0.2c0.2,0.2,0.2,0.4,0.2,0.6v21c0,1.9,0.5,3.4,1.5,4.6c1,1.2,2.4,1.8,4.2,1.8
			c1.6,0,2.9-0.5,3.9-1.4c1-1,1.7-2.2,1.9-3.8v-22.2C6234.7,3406.6,6234.8,3406.4,6235,3406.3z"/>
	</g>
	<g class="st1">
		<path class="st2" d="M6063.9,3493.3c-2.7-1.9-4.7-4.5-5.9-7.7c-0.8-2.3-1.2-5.1-1.2-8.3c0-3.1,0.4-5.9,1.2-8.2
			c1.1-3.2,3.1-5.7,5.8-7.5c2.8-1.8,6-2.7,9.8-2.7c3.8,0,7,0.9,9.9,2.8c2.8,1.9,4.7,4.2,5.7,7.1c0.4,1.1,0.6,2,0.6,2.5v0.1
			c0,0.4-0.2,0.7-0.7,0.8l-8.1,1.2h-0.1c-0.4,0-0.7-0.2-0.8-0.7l-0.2-1.1c-0.3-1.2-1.1-2.2-2.2-3c-1.1-0.8-2.5-1.2-4-1.2
			c-1.5,0-2.8,0.4-3.8,1.1c-1,0.8-1.8,1.8-2.2,3.1c-0.5,1.4-0.8,3.3-0.8,5.8s0.2,4.4,0.7,5.8c0.4,1.4,1.2,2.5,2.2,3.3
			s2.3,1.2,3.8,1.2c1.5,0,2.7-0.4,3.8-1.2c1.1-0.8,1.9-1.8,2.3-3.2c0-0.1,0.1-0.2,0.1-0.4c0,0,0.1-0.1,0.1-0.2c0-0.6,0.4-0.8,1-0.7
			l8.1,1.3c0.5,0.1,0.7,0.4,0.7,0.8c0,0.4-0.1,1.1-0.4,2.1c-1,3.1-2.9,5.6-5.7,7.4c-2.8,1.8-6.1,2.7-9.8,2.7
			C6069.9,3496.1,6066.6,3495.2,6063.9,3493.3z"/>
		<path class="st2" d="M6118.1,3460.4c2.4,1.1,4.3,2.5,5.6,4.3c1.3,1.8,2,3.9,2,6.1v23.9c0,0.2-0.1,0.4-0.2,0.6
			c-0.2,0.2-0.4,0.2-0.6,0.2h-8.2c-0.2,0-0.4-0.1-0.6-0.2c-0.2-0.2-0.2-0.4-0.2-0.6v-2.3c0-0.1,0-0.2-0.1-0.3c-0.1,0-0.2,0-0.3,0.1
			c-2,2.6-5.1,3.9-9.5,3.9c-3.7,0-6.6-0.9-8.9-2.7c-2.3-1.8-3.4-4.4-3.4-7.9c0-3.6,1.3-6.4,3.8-8.4c2.5-2,6.1-3,10.8-3h7.2
			c0.2,0,0.4-0.1,0.4-0.4v-1.5c0-1.5-0.5-2.8-1.4-3.6c-0.9-0.9-2.3-1.3-4.2-1.3c-1.5,0-2.7,0.3-3.6,0.8c-1,0.5-1.6,1.2-1.9,2.2
			c-0.1,0.5-0.4,0.8-0.9,0.7l-8.5-1.1c-0.6-0.1-0.8-0.3-0.8-0.6c0.2-2,1-3.8,2.4-5.3c1.4-1.6,3.2-2.8,5.5-3.7
			c2.3-0.9,4.8-1.3,7.6-1.3C6113,3458.8,6115.7,3459.3,6118.1,3460.4z M6113.7,3487.1c1.4-1.1,2.1-2.5,2.1-4.2v-2.5
			c0-0.2-0.1-0.4-0.4-0.4h-5.1c-2.1,0-3.8,0.4-5,1.2c-1.2,0.8-1.8,1.9-1.8,3.4c0,1.3,0.4,2.3,1.3,3c0.9,0.7,2.1,1.1,3.6,1.1
			C6110.5,3488.7,6112.3,3488.2,6113.7,3487.1z"/>
		<path class="st2" d="M6154.7,3459.8c0.4,0.2,0.5,0.5,0.4,1.1l-1.5,8c0,0.6-0.4,0.7-1,0.5c-0.7-0.2-1.5-0.4-2.5-0.4
			c-0.4,0-0.9,0-1.5,0.1c-1.7,0.1-3.1,0.8-4.3,1.9c-1.2,1.1-1.8,2.6-1.8,4.4v19.2c0,0.2-0.1,0.4-0.2,0.6c-0.2,0.2-0.4,0.2-0.6,0.2
			h-8.2c-0.2,0-0.4-0.1-0.6-0.2c-0.2-0.2-0.2-0.4-0.2-0.6v-34.5c0-0.2,0.1-0.4,0.2-0.6c0.2-0.2,0.4-0.2,0.6-0.2h8.2
			c0.2,0,0.4,0.1,0.6,0.2c0.2,0.2,0.2,0.4,0.2,0.6v2.7c0,0.1,0,0.2,0.1,0.3c0.1,0,0.2,0,0.2-0.1c1.9-2.8,4.5-4.2,7.7-4.2
			C6152.4,3458.9,6153.7,3459.2,6154.7,3459.8z"/>
		<path class="st2" d="M6187.6,3462.2c2.3,2.3,3.4,5.4,3.4,9.4v23.1c0,0.2-0.1,0.4-0.2,0.6c-0.2,0.2-0.4,0.2-0.6,0.2h-8.2
			c-0.2,0-0.4-0.1-0.6-0.2c-0.2-0.2-0.2-0.4-0.2-0.6v-21c0-1.9-0.5-3.4-1.6-4.6c-1.1-1.2-2.5-1.8-4.2-1.8c-1.7,0-3.1,0.6-4.2,1.8
			c-1.1,1.2-1.6,2.7-1.6,4.6v21c0,0.2-0.1,0.4-0.2,0.6c-0.2,0.2-0.4,0.2-0.6,0.2h-8.2c-0.2,0-0.4-0.1-0.6-0.2
			c-0.2-0.2-0.2-0.4-0.2-0.6v-34.5c0-0.2,0.1-0.4,0.2-0.6c0.2-0.2,0.4-0.2,0.6-0.2h8.2c0.2,0,0.4,0.1,0.6,0.2
			c0.2,0.2,0.2,0.4,0.2,0.6v2.5c0,0.1,0,0.2,0.1,0.3c0.1,0,0.2,0,0.2-0.1c1.9-2.7,4.8-4.1,8.6-4.1
			C6182.2,3458.8,6185.3,3459.9,6187.6,3462.2z"/>
		<path class="st2" d="M6230.2,3479.7c0,0.6-0.4,0.8-0.9,0.8h-21.7c-0.3,0-0.4,0.1-0.3,0.4c0.1,0.9,0.4,1.9,0.8,2.8
			c1.2,2.6,3.7,3.9,7.5,3.9c3,0,5.4-1.3,7.1-3.7c0.2-0.3,0.4-0.4,0.6-0.4c0.1,0,0.3,0.1,0.5,0.3l5.1,5c0.2,0.2,0.4,0.4,0.4,0.6
			c0,0.1-0.1,0.3-0.3,0.6c-1.5,1.9-3.5,3.4-6,4.5s-5.1,1.6-8,1.6c-4,0-7.4-0.9-10.2-2.7c-2.8-1.8-4.8-4.4-6-7.7
			c-1-2.3-1.5-5.4-1.5-9.2c0-2.6,0.4-4.9,1.1-6.8c1.1-3.3,3-6,5.7-8s5.9-3,9.6-3c4.7,0,8.5,1.4,11.3,4.1c2.8,2.7,4.6,6.4,5.2,10.9
			C6230.2,3475.5,6230.3,3477.5,6230.2,3479.7z M6207.7,3471.5c-0.2,0.6-0.4,1.4-0.5,2.3c0,0.2,0.1,0.4,0.4,0.4h12.2
			c0.3,0,0.4-0.1,0.3-0.4c-0.2-1.4-0.4-2-0.4-2c-0.4-1.4-1.2-2.5-2.2-3.3c-1.1-0.8-2.4-1.2-3.9-1.2
			C6210.6,3467.3,6208.6,3468.7,6207.7,3471.5z"/>
		<path class="st2" d="M6256,3467.1c-0.2,0.2-0.4,0.2-0.6,0.2h-6.8c-0.2,0-0.4,0.1-0.4,0.4v14.9c0,1.5,0.3,2.7,0.9,3.4
			c0.6,0.8,1.7,1.1,3.1,1.1h2.3c0.2,0,0.4,0.1,0.6,0.2c0.2,0.2,0.2,0.4,0.2,0.6v6.7c0,0.5-0.3,0.8-0.8,0.9c-2,0.1-3.4,0.1-4.2,0.1
			c-3.9,0-6.8-0.6-8.7-1.9c-1.9-1.3-2.9-3.7-3-7.3v-18.9c0-0.2-0.1-0.4-0.4-0.4h-4c-0.2,0-0.4-0.1-0.6-0.2c-0.2-0.2-0.2-0.4-0.2-0.6
			v-6.3c0-0.2,0.1-0.4,0.2-0.6c0.2-0.2,0.4-0.2,0.6-0.2h4c0.2,0,0.4-0.1,0.4-0.4v-8.4c0-0.2,0.1-0.4,0.2-0.6
			c0.2-0.2,0.4-0.2,0.6-0.2h7.9c0.2,0,0.4,0.1,0.6,0.2c0.2,0.2,0.2,0.4,0.2,0.6v8.4c0,0.2,0.1,0.4,0.4,0.4h6.8
			c0.2,0,0.4,0.1,0.6,0.2c0.2,0.2,0.2,0.4,0.2,0.6v6.3C6256.3,3466.7,6256.2,3466.9,6256,3467.1z"/>
	</g>
</g>
</svg>
