<svg id="Grupo_36" data-name="Grupo 36" xmlns="http://www.w3.org/2000/svg" width="668.212" height="195.806" viewBox="0 0 668.212 195.806">
  <path id="Trazado_82" data-name="Trazado 82" d="M3355-41h668.212L3746.271,154.806,3355,84.458Z" transform="translate(-3355 41)" fill="#0a5bfc"/>
  <path id="Trazado_83" data-name="Trazado 83" d="M24.55-25.25h4.5a12.585,12.585,0,0,0-1.125-5.075,9.888,9.888,0,0,0-2.8-3.525A11.55,11.55,0,0,0,21-35.9a19.076,19.076,0,0,0-5.1-.65,18.313,18.313,0,0,0-4.775.625,13.129,13.129,0,0,0-4.15,1.9,9.617,9.617,0,0,0-2.925,3.25A9.459,9.459,0,0,0,2.95-26.1a7.806,7.806,0,0,0,.975,4.075,7.9,7.9,0,0,0,2.6,2.65,15.11,15.11,0,0,0,3.675,1.65q2.05.625,4.175,1.1t4.175.925a19.034,19.034,0,0,1,3.675,1.175,7.165,7.165,0,0,1,2.6,1.875,4.48,4.48,0,0,1,.975,3,5.84,5.84,0,0,1-.8,3.2,5.822,5.822,0,0,1-2.1,1.975A9.5,9.5,0,0,1,19.975-3.45a17.733,17.733,0,0,1-3.225.3,15.26,15.26,0,0,1-3.9-.5A9.7,9.7,0,0,1,9.525-5.2a7.956,7.956,0,0,1-2.3-2.675A8.064,8.064,0,0,1,6.35-11.75H1.85A12.554,12.554,0,0,0,3.025-6.125a10.785,10.785,0,0,0,3.2,3.9A14.015,14.015,0,0,0,10.925.05,20.932,20.932,0,0,0,16.6.8,21.7,21.7,0,0,0,21.525.225,14.252,14.252,0,0,0,26-1.625a10.493,10.493,0,0,0,3.275-3.3A8.964,8.964,0,0,0,30.55-9.8a8.953,8.953,0,0,0-.975-4.4,8.686,8.686,0,0,0-2.6-2.9A13.771,13.771,0,0,0,23.3-18.925Q21.25-19.6,19.125-20.1t-4.175-.925A21.862,21.862,0,0,1,11.275-22.1a7.23,7.23,0,0,1-2.6-1.675A3.721,3.721,0,0,1,7.7-26.45a5.8,5.8,0,0,1,.675-2.925,5.25,5.25,0,0,1,1.8-1.875,7.833,7.833,0,0,1,2.575-1,14.522,14.522,0,0,1,2.95-.3,10.08,10.08,0,0,1,6.075,1.725A7.438,7.438,0,0,1,24.55-25.25ZM38.7-12.9a12.86,12.86,0,0,1,.625-4.175A9.01,9.01,0,0,1,41.05-20.15a7.346,7.346,0,0,1,2.575-1.9,7.664,7.664,0,0,1,3.125-.65,7.664,7.664,0,0,1,3.125.65,7.346,7.346,0,0,1,2.575,1.9,9.01,9.01,0,0,1,1.725,3.075A12.86,12.86,0,0,1,54.8-12.9a12.86,12.86,0,0,1-.625,4.175,8.735,8.735,0,0,1-1.725,3.05A7.485,7.485,0,0,1,49.875-3.8a7.664,7.664,0,0,1-3.125.65,7.664,7.664,0,0,1-3.125-.65A7.485,7.485,0,0,1,41.05-5.675a8.735,8.735,0,0,1-1.725-3.05A12.86,12.86,0,0,1,38.7-12.9Zm-4.5,0A16.981,16.981,0,0,0,35-7.6a12.1,12.1,0,0,0,2.4,4.275,11.041,11.041,0,0,0,3.95,2.85A13.394,13.394,0,0,0,46.75.55,13.35,13.35,0,0,0,52.175-.475,11.093,11.093,0,0,0,56.1-3.325,12.1,12.1,0,0,0,58.5-7.6a16.98,16.98,0,0,0,.8-5.3,17.216,17.216,0,0,0-.8-5.325,12.065,12.065,0,0,0-2.4-4.3A11.363,11.363,0,0,0,52.175-25.4a13.073,13.073,0,0,0-5.425-1.05,13.117,13.117,0,0,0-5.4,1.05,11.306,11.306,0,0,0-3.95,2.875,12.065,12.065,0,0,0-2.4,4.3A17.217,17.217,0,0,0,34.2-12.9ZM64.55-35.7V0H68.8V-35.7ZM78.5-12.9a12.86,12.86,0,0,1,.625-4.175A9.01,9.01,0,0,1,80.85-20.15a7.346,7.346,0,0,1,2.575-1.9,7.664,7.664,0,0,1,3.125-.65,7.664,7.664,0,0,1,3.125.65,7.346,7.346,0,0,1,2.575,1.9,9.01,9.01,0,0,1,1.725,3.075A12.86,12.86,0,0,1,94.6-12.9a12.86,12.86,0,0,1-.625,4.175,8.735,8.735,0,0,1-1.725,3.05A7.485,7.485,0,0,1,89.675-3.8a7.664,7.664,0,0,1-3.125.65,7.664,7.664,0,0,1-3.125-.65A7.485,7.485,0,0,1,80.85-5.675a8.735,8.735,0,0,1-1.725-3.05A12.86,12.86,0,0,1,78.5-12.9Zm-4.5,0a16.981,16.981,0,0,0,.8,5.3,12.1,12.1,0,0,0,2.4,4.275,11.041,11.041,0,0,0,3.95,2.85A13.394,13.394,0,0,0,86.55.55,13.35,13.35,0,0,0,91.975-.475,11.093,11.093,0,0,0,95.9-3.325,12.1,12.1,0,0,0,98.3-7.6a16.981,16.981,0,0,0,.8-5.3,17.217,17.217,0,0,0-.8-5.325,12.065,12.065,0,0,0-2.4-4.3A11.363,11.363,0,0,0,91.975-25.4a13.073,13.073,0,0,0-5.425-1.05,13.117,13.117,0,0,0-5.4,1.05,11.306,11.306,0,0,0-3.95,2.875,12.065,12.065,0,0,0-2.4,4.3A17.217,17.217,0,0,0,74-12.9Zm61.55-4.65h4.4a10.216,10.216,0,0,0-1.2-3.975,8.872,8.872,0,0,0-2.425-2.775,10.045,10.045,0,0,0-3.4-1.625,15.623,15.623,0,0,0-4.125-.525,12.513,12.513,0,0,0-5.35,1.075,10.678,10.678,0,0,0-3.825,2.95,12.547,12.547,0,0,0-2.275,4.4,18.969,18.969,0,0,0-.75,5.425,17.418,17.418,0,0,0,.775,5.325,11.678,11.678,0,0,0,2.3,4.175,10.133,10.133,0,0,0,3.8,2.7A13.465,13.465,0,0,0,128.7.55a11.231,11.231,0,0,0,7.825-2.6,11.9,11.9,0,0,0,3.575-7.4h-4.35a7.451,7.451,0,0,1-2.175,4.65,6.955,6.955,0,0,1-4.925,1.65,7.037,7.037,0,0,1-3.45-.8,6.713,6.713,0,0,1-2.35-2.125A9.381,9.381,0,0,1,121.525-9.1a14.376,14.376,0,0,1-.425-3.5,17.583,17.583,0,0,1,.4-3.775,9.466,9.466,0,0,1,1.325-3.225,6.863,6.863,0,0,1,2.475-2.25,7.925,7.925,0,0,1,3.85-.85,6.451,6.451,0,0,1,4.3,1.35A6.477,6.477,0,0,1,135.55-17.55Zm12.4,4.65a12.86,12.86,0,0,1,.625-4.175A9.01,9.01,0,0,1,150.3-20.15a7.346,7.346,0,0,1,2.575-1.9A7.664,7.664,0,0,1,156-22.7a7.664,7.664,0,0,1,3.125.65,7.346,7.346,0,0,1,2.575,1.9,9.01,9.01,0,0,1,1.725,3.075,12.86,12.86,0,0,1,.625,4.175,12.86,12.86,0,0,1-.625,4.175,8.735,8.735,0,0,1-1.725,3.05A7.486,7.486,0,0,1,159.125-3.8,7.664,7.664,0,0,1,156-3.15a7.664,7.664,0,0,1-3.125-.65A7.485,7.485,0,0,1,150.3-5.675a8.735,8.735,0,0,1-1.725-3.05A12.86,12.86,0,0,1,147.95-12.9Zm-4.5,0a16.98,16.98,0,0,0,.8,5.3,12.1,12.1,0,0,0,2.4,4.275,11.041,11.041,0,0,0,3.95,2.85A13.394,13.394,0,0,0,156,.55a13.35,13.35,0,0,0,5.425-1.025,11.093,11.093,0,0,0,3.925-2.85,12.1,12.1,0,0,0,2.4-4.275,16.981,16.981,0,0,0,.8-5.3,17.217,17.217,0,0,0-.8-5.325,12.065,12.065,0,0,0-2.4-4.3,11.363,11.363,0,0,0-3.925-2.875A13.073,13.073,0,0,0,156-26.45a13.117,13.117,0,0,0-5.4,1.05,11.306,11.306,0,0,0-3.95,2.875,12.065,12.065,0,0,0-2.4,4.3A17.216,17.216,0,0,0,143.45-12.9Zm30.1-12.95V0h4.25V-14.6a10.472,10.472,0,0,1,.475-3.225A7.324,7.324,0,0,1,179.7-20.4a6.328,6.328,0,0,1,2.375-1.7,8.662,8.662,0,0,1,3.375-.6,5.2,5.2,0,0,1,3.85,1.4,5.135,5.135,0,0,1,1.4,3.8V0h4.25V-17a16,16,0,0,0-.425-3.825A7.244,7.244,0,0,0,193.05-23.8a6.987,6.987,0,0,0-2.75-1.95,11.218,11.218,0,0,0-4.25-.7,8.949,8.949,0,0,0-8.4,4.7h-.1v-4.1Zm47.6,0V-33.6H216.9v7.75h-4.4v3.75h4.4V-5.65a9.823,9.823,0,0,0,.35,2.9,3.526,3.526,0,0,0,1.075,1.7,4.15,4.15,0,0,0,1.9.825A15.261,15.261,0,0,0,223.05,0h3.25V-3.75h-1.95a14.174,14.174,0,0,1-1.625-.075,2.1,2.1,0,0,1-.975-.325,1.235,1.235,0,0,1-.475-.7,4.638,4.638,0,0,1-.125-1.2V-22.1h5.15v-3.75ZM252.4,0V-25.85h-4.25v14.6a10.472,10.472,0,0,1-.475,3.225A7.324,7.324,0,0,1,246.25-5.45a6.328,6.328,0,0,1-2.375,1.7,8.662,8.662,0,0,1-3.375.6,5.2,5.2,0,0,1-3.85-1.4,5.135,5.135,0,0,1-1.4-3.8v-17.5H231v17a16,16,0,0,0,.425,3.825A7.244,7.244,0,0,0,232.9-2.05a6.776,6.776,0,0,0,2.75,1.925A11.592,11.592,0,0,0,239.9.55a10.335,10.335,0,0,0,4.95-1.125A8.685,8.685,0,0,0,248.3-4.1h.1V0Zm37.85-17.55h4.4a10.216,10.216,0,0,0-1.2-3.975,8.872,8.872,0,0,0-2.425-2.775,10.045,10.045,0,0,0-3.4-1.625,15.623,15.623,0,0,0-4.125-.525,12.513,12.513,0,0,0-5.35,1.075,10.678,10.678,0,0,0-3.825,2.95,12.547,12.547,0,0,0-2.275,4.4,18.969,18.969,0,0,0-.75,5.425,17.417,17.417,0,0,0,.775,5.325,11.678,11.678,0,0,0,2.3,4.175,10.133,10.133,0,0,0,3.8,2.7A13.465,13.465,0,0,0,283.4.55a11.231,11.231,0,0,0,7.825-2.6,11.9,11.9,0,0,0,3.575-7.4h-4.35a7.451,7.451,0,0,1-2.175,4.65,6.955,6.955,0,0,1-4.925,1.65,7.037,7.037,0,0,1-3.45-.8,6.713,6.713,0,0,1-2.35-2.125A9.381,9.381,0,0,1,276.225-9.1a14.375,14.375,0,0,1-.425-3.5,17.581,17.581,0,0,1,.4-3.775,9.466,9.466,0,0,1,1.325-3.225A6.863,6.863,0,0,1,280-21.85a7.925,7.925,0,0,1,3.85-.85,6.451,6.451,0,0,1,4.3,1.35A6.477,6.477,0,0,1,290.25-17.55ZM322.45-.1a6.011,6.011,0,0,1-3.05.65,3.657,3.657,0,0,1-2.625-.925A4.021,4.021,0,0,1,315.8-3.4a10.168,10.168,0,0,1-4.075,3.025A13.469,13.469,0,0,1,306.7.55a13.462,13.462,0,0,1-3.325-.4A7.732,7.732,0,0,1,300.65-1.1a6,6,0,0,1-1.825-2.225,7.486,7.486,0,0,1-.675-3.325,7.593,7.593,0,0,1,.75-3.6,6.543,6.543,0,0,1,1.975-2.275,9.05,9.05,0,0,1,2.8-1.325q1.575-.45,3.225-.75,1.75-.35,3.325-.525a18.523,18.523,0,0,0,2.775-.5,4.623,4.623,0,0,0,1.9-.95,2.319,2.319,0,0,0,.7-1.825,4.242,4.242,0,0,0-.525-2.25,3.6,3.6,0,0,0-1.35-1.3,5.489,5.489,0,0,0-1.85-.6,13.971,13.971,0,0,0-2.025-.15,8.988,8.988,0,0,0-4.5,1.025q-1.8,1.025-1.95,3.875h-4.25a9.18,9.18,0,0,1,1-4.05,7.582,7.582,0,0,1,2.4-2.675A10.069,10.069,0,0,1,305.975-26a18.088,18.088,0,0,1,4.125-.45,24.2,24.2,0,0,1,3.475.25,9.082,9.082,0,0,1,3.125,1.025A5.992,5.992,0,0,1,318.95-23a6.96,6.96,0,0,1,.85,3.65v13.3a9.946,9.946,0,0,0,.175,2.2q.175.7,1.175.7a4.209,4.209,0,0,0,1.3-.25Zm-6.9-13.25a5.29,5.29,0,0,1-2.1.875q-1.3.275-2.725.45t-2.875.4a10.571,10.571,0,0,0-2.6.725,4.73,4.73,0,0,0-1.875,1.425,3.991,3.991,0,0,0-.725,2.525,3.456,3.456,0,0,0,.425,1.775A3.542,3.542,0,0,0,304.175-4a4.615,4.615,0,0,0,1.575.65,8.739,8.739,0,0,0,1.9.2,10.068,10.068,0,0,0,3.6-.575,7.572,7.572,0,0,0,2.45-1.45,5.72,5.72,0,0,0,1.4-1.9A4.805,4.805,0,0,0,315.55-9Zm10.7-12.5V0h4.25V-11.5a17.673,17.673,0,0,1,.5-4.425,8.482,8.482,0,0,1,1.6-3.275,6.858,6.858,0,0,1,2.9-2.05,12.02,12.02,0,0,1,4.35-.7v-4.5a9.551,9.551,0,0,0-5.7,1.4,11.514,11.514,0,0,0-3.8,4.65h-.1v-5.45Zm17.7,0V0h4.25V-14.6a10.472,10.472,0,0,1,.475-3.225A7.325,7.325,0,0,1,350.1-20.4a6.328,6.328,0,0,1,2.375-1.7,8.662,8.662,0,0,1,3.375-.6,5.2,5.2,0,0,1,3.85,1.4,5.135,5.135,0,0,1,1.4,3.8V0h4.25V-17a16,16,0,0,0-.425-3.825A7.244,7.244,0,0,0,363.45-23.8a6.988,6.988,0,0,0-2.75-1.95,11.218,11.218,0,0,0-4.25-.7,8.949,8.949,0,0,0-8.4,4.7h-.1v-4.1ZM389.7-15.4H374.85a8.853,8.853,0,0,1,.65-2.825A7.535,7.535,0,0,1,377-20.55a6.87,6.87,0,0,1,2.275-1.575,7.4,7.4,0,0,1,2.975-.575,7.27,7.27,0,0,1,2.925.575,7.359,7.359,0,0,1,2.3,1.55,7.284,7.284,0,0,1,1.55,2.325A8.7,8.7,0,0,1,389.7-15.4Zm4.1,7.2h-4.2a6.044,6.044,0,0,1-2.275,3.8A7.356,7.356,0,0,1,382.9-3.15a8.8,8.8,0,0,1-3.65-.7,7.154,7.154,0,0,1-2.55-1.875,7.3,7.3,0,0,1-1.45-2.7,10.26,10.26,0,0,1-.4-3.225H394.2a20.579,20.579,0,0,0-.425-4.95,14.33,14.33,0,0,0-1.9-4.8,11.321,11.321,0,0,0-3.65-3.625A10.6,10.6,0,0,0,382.5-26.45a11.755,11.755,0,0,0-4.875,1,11.458,11.458,0,0,0-3.85,2.8,12.906,12.906,0,0,0-2.525,4.25,15.555,15.555,0,0,0-.9,5.4,20.722,20.722,0,0,0,.875,5.45,11.9,11.9,0,0,0,2.325,4.3,10.6,10.6,0,0,0,3.825,2.8,13.278,13.278,0,0,0,5.375,1,11.734,11.734,0,0,0,7.3-2.2A10.33,10.33,0,0,0,393.8-8.2Zm10.7-17.65V-33.6h-4.25v7.75h-4.4v3.75h4.4V-5.65a9.822,9.822,0,0,0,.35,2.9,3.525,3.525,0,0,0,1.075,1.7,4.15,4.15,0,0,0,1.9.825A15.261,15.261,0,0,0,406.4,0h3.25V-3.75H407.7a14.174,14.174,0,0,1-1.625-.075,2.1,2.1,0,0,1-.975-.325,1.236,1.236,0,0,1-.475-.7,4.637,4.637,0,0,1-.125-1.2V-22.1h5.15v-3.75Z" transform="translate(62 87)" fill="#fff"/>
</svg>
