<svg id="_003-tablet" data-name="003-tablet" xmlns="http://www.w3.org/2000/svg" width="32" height="32" viewBox="0 0 32 32">
  <g id="Grupo_2070" data-name="Grupo 2070" transform="translate(14.682 16.919)">
    <g id="Grupo_2069" data-name="Grupo 2069">
      <path id="Trazado_1007" data-name="Trazado 1007" d="M250.108,273.372l-2.067-2.067a2.08,2.08,0,0,0-3.453.84,12.541,12.541,0,0,1-4.489,2.16,2.057,2.057,0,0,0-.431.627l-1.195-1.195a2.132,2.132,0,0,0-2.943,0,2.079,2.079,0,0,0,0,2.944l5.1,5.1h-1.057a3.338,3.338,0,0,0-3.333,3.333.667.667,0,0,0,.667.667h8.067a7.267,7.267,0,0,0,5.137-12.407Zm-5.137,11.073h-7.287a2.005,2.005,0,0,1,1.887-1.333h2.667a.667.667,0,0,0,.472-1.139l-6.235-6.235a.744.744,0,0,1,0-1.056.768.768,0,0,1,1.057,0l4.235,4.235a.667.667,0,0,0,.943-.944l-1.667-1.667a.747.747,0,0,1,0-1.056.765.765,0,0,1,1.057,0l1,1a.667.667,0,0,0,.943-.944l-.667-.667a.747.747,0,1,1,1.057-1.056l.667.667a.667.667,0,0,0,.943-.943.748.748,0,0,1,1.057-1.057l2.067,2.067a5.933,5.933,0,0,1-4.2,10.128Z" transform="translate(-234.92 -270.698)" fill="#0257f3"/>
    </g>
  </g>
  <g id="Grupo_2072" data-name="Grupo 2072">
    <g id="Grupo_2071" data-name="Grupo 2071">
      <path id="Trazado_1008" data-name="Trazado 1008" d="M19.333,0h-16A3.338,3.338,0,0,0,0,3.333V28.667A3.338,3.338,0,0,0,3.333,32H14a.667.667,0,1,0,0-1.333H3.333a2,2,0,0,1-2-2V3.333a2,2,0,0,1,2-2h16a2,2,0,0,1,2,2V16.667a.667.667,0,0,0,1.333,0V3.333A3.338,3.338,0,0,0,19.333,0Z" fill="#0257f3"/>
    </g>
  </g>
  <g id="Grupo_2074" data-name="Grupo 2074" transform="translate(0 25.333)">
    <g id="Grupo_2073" data-name="Grupo 2073">
      <path id="Trazado_1009" data-name="Trazado 1009" d="M15.333,405.333H.667a.667.667,0,1,0,0,1.333H15.333a.667.667,0,1,0,0-1.333Z" transform="translate(0 -405.333)" fill="#0257f3"/>
    </g>
  </g>
  <g id="Grupo_2076" data-name="Grupo 2076" transform="translate(9.333 28)">
    <g id="Grupo_2075" data-name="Grupo 2075">
      <path id="Trazado_1010" data-name="Trazado 1010" d="M152.666,448H150a.667.667,0,0,0,0,1.333h2.667a.667.667,0,1,0,0-1.333Z" transform="translate(-149.333 -448)" fill="#0257f3"/>
    </g>
  </g>
  <g id="Grupo_2078" data-name="Grupo 2078" transform="translate(2.667 2.667)">
    <g id="Grupo_2077" data-name="Grupo 2077">
      <circle id="Elipse_37" data-name="Elipse 37" cx="0.667" cy="0.667" r="0.667" fill="#0257f3"/>
    </g>
  </g>
</svg>
