<svg width="31" height="39" viewBox="0 0 31 39" fill="none" xmlns="http://www.w3.org/2000/svg">
<g clip-path="url(#clip0)">
<path d="M20.702 13.7781C20.4657 13.7781 20.2391 13.872 20.072 14.039C19.9049 14.2061 19.811 14.4328 19.811 14.6691V31.5081C19.811 31.7444 19.9049 31.971 20.072 32.1381C20.2391 32.3052 20.4657 32.3991 20.702 32.3991C20.9383 32.3991 21.165 32.3052 21.3321 32.1381C21.4992 31.971 21.593 31.7444 21.593 31.5081V14.6721C21.5934 14.5548 21.5707 14.4386 21.5261 14.3302C21.4815 14.2217 21.4159 14.1232 21.3331 14.0401C21.2504 13.957 21.152 13.8912 21.0437 13.8462C20.9354 13.8012 20.8193 13.7781 20.702 13.7781Z" fill="#D23D3D"/>
<path d="M10.1901 13.7781C9.95376 13.7781 9.72713 13.872 9.56004 14.039C9.39294 14.2061 9.29907 14.4328 9.29907 14.6691V31.5081C9.29907 31.7444 9.39294 31.971 9.56004 32.1381C9.72713 32.3052 9.95376 32.3991 10.1901 32.3991C10.4264 32.3991 10.653 32.3052 10.8201 32.1381C10.9872 31.971 11.0811 31.7444 11.0811 31.5081V14.6721C11.0815 14.5548 11.0587 14.4386 11.0141 14.3302C10.9695 14.2217 10.9039 14.1232 10.8212 14.0401C10.7384 13.957 10.64 13.8912 10.5317 13.8462C10.4234 13.8012 10.3073 13.7781 10.1901 13.7781Z" fill="#D23D3D"/>
<path d="M2.53003 11.3241V33.2711C2.51672 34.5266 2.98437 35.7395 3.83703 36.6611C4.24624 37.0947 4.73954 37.4404 5.28681 37.6769C5.83407 37.9135 6.42382 38.0361 7.02003 38.0371H23.873C24.4693 38.0361 25.059 37.9136 25.6063 37.677C26.1536 37.4404 26.6469 37.0948 27.056 36.6611C27.9087 35.7395 28.3763 34.5266 28.363 33.2711V11.3241C29.1663 11.1168 29.866 10.6229 30.3304 9.93556C30.7948 9.24821 30.9919 8.41478 30.8846 7.5922C30.7773 6.76962 30.373 6.01465 29.7478 5.46946C29.1225 4.92426 28.3196 4.62644 27.49 4.6321H22.929V3.5181C22.9313 3.05485 22.8416 2.59575 22.6651 2.16744C22.4886 1.73913 22.2288 1.35012 21.9008 1.02297C21.5728 0.695813 21.1831 0.437027 20.7544 0.261614C20.3256 0.0862006 19.8663 -0.0023498 19.403 0.00109706H11.493C11.0295 -0.002749 10.5699 0.0855066 10.1408 0.260741C9.71168 0.435976 9.32165 0.694698 8.99334 1.02189C8.66503 1.34908 8.40498 1.73823 8.22828 2.16674C8.05159 2.59525 7.96177 3.05459 7.96403 3.5181V4.6321H3.40303C2.57351 4.62644 1.77053 4.92426 1.1453 5.46946C0.520078 6.01465 0.115743 6.76962 0.00843392 7.5922C-0.0988748 8.41478 0.0982468 9.24821 0.562681 9.93556C1.02712 10.6229 1.72682 11.1168 2.53003 11.3241V11.3241ZM23.873 36.2551H7.01903C6.64406 36.2407 6.27572 36.1517 5.93559 35.9931C5.59545 35.8346 5.29036 35.6099 5.03818 35.332C4.786 35.0541 4.59179 34.7287 4.46694 34.3748C4.34208 34.0209 4.28908 33.6457 4.31103 33.2711V11.4011H26.581V33.2711C26.603 33.6457 26.55 34.0209 26.4251 34.3748C26.3003 34.7287 26.1061 35.0541 25.8539 35.332C25.6017 35.6099 25.2966 35.8346 24.9565 35.9931C24.6164 36.1517 24.248 36.2407 23.873 36.2551ZM9.74503 3.5181C9.74219 3.28844 9.78547 3.06055 9.87232 2.84793C9.95917 2.63531 10.0878 2.44229 10.2506 2.28031C10.4135 2.11832 10.6072 1.99067 10.8202 1.90492C11.0333 1.81917 11.2614 1.77706 11.491 1.7811H19.403C19.6327 1.77706 19.8608 1.81917 20.0739 1.90492C20.2869 1.99067 20.4806 2.11832 20.6434 2.28031C20.8062 2.44229 20.9349 2.63531 21.0217 2.84793C21.1086 3.06055 21.1519 3.28844 21.149 3.5181V4.6321H9.74503V3.5181ZM3.40303 6.4141H27.49C27.9153 6.4141 28.3232 6.58304 28.6239 6.88375C28.9246 7.18447 29.0935 7.59232 29.0935 8.0176C29.0935 8.44287 28.9246 8.85073 28.6239 9.15144C28.3232 9.45216 27.9153 9.6211 27.49 9.6211H3.40303C2.97776 9.6211 2.5699 9.45216 2.26919 9.15144C1.96847 8.85073 1.79953 8.44287 1.79953 8.0176C1.79953 7.59232 1.96847 7.18447 2.26919 6.88375C2.5699 6.58304 2.97776 6.4141 3.40303 6.4141V6.4141Z" fill="#D23D3D"/>
<path d="M15.4461 13.7781C15.2098 13.7781 14.9831 13.872 14.816 14.039C14.6489 14.2061 14.5551 14.4328 14.5551 14.6691V31.5081C14.5551 31.7444 14.6489 31.971 14.816 32.1381C14.9831 32.3052 15.2098 32.3991 15.4461 32.3991C15.6824 32.3991 15.909 32.3052 16.0761 32.1381C16.2432 31.971 16.3371 31.7444 16.3371 31.5081V14.6721C16.3374 14.5548 16.3147 14.4386 16.2701 14.3302C16.2255 14.2217 16.1599 14.1232 16.0771 14.0401C15.9944 13.957 15.896 13.8912 15.7877 13.8462C15.6794 13.8012 15.5633 13.7781 15.4461 13.7781Z" fill="#D23D3D"/>
</g>
<defs>
<clipPath id="clip0">
<rect width="30.893" height="38.037" fill="white"/>
</clipPath>
</defs>
</svg>
