<svg xmlns="http://www.w3.org/2000/svg" width="346.172" height="426.225" viewBox="0 0 346.172 426.225">
  <g id="_001-delete" data-name="001-delete" transform="translate(0.003 0.001)">
    <path id="Trazado_1356" data-name="Trazado 1356" d="M232.38,154.7a9.981,9.981,0,0,0-9.982,9.982V353.341a9.982,9.982,0,0,0,19.964,0V164.685A9.981,9.981,0,0,0,232.38,154.7Zm0,0" transform="translate(-0.404 -0.281)" fill="#42e8b4"/>
    <path id="Trazado_1357" data-name="Trazado 1357" d="M114.38,154.7a9.981,9.981,0,0,0-9.982,9.982V353.341a9.982,9.982,0,0,0,19.964,0V164.685A9.981,9.981,0,0,0,114.38,154.7Zm0,0" transform="translate(-0.19 -0.281)" fill="#42e8b4"/>
    <path id="Trazado_1358" data-name="Trazado 1358" d="M28.347,126.89V372.821c0,14.536,5.33,28.187,14.641,37.982a49.156,49.156,0,0,0,35.665,15.421H267.513A49.143,49.143,0,0,0,303.178,410.8c9.311-9.795,14.641-23.446,14.641-37.982V126.89a38.13,38.13,0,0,0-9.783-74.984H256.93V39.428A39.209,39.209,0,0,0,217.4,0H128.765a39.209,39.209,0,0,0-39.53,39.428V51.905H38.13a38.13,38.13,0,0,0-9.783,74.984ZM267.513,406.26H78.654c-17.067,0-30.343-14.661-30.343-33.439V127.767H297.856V372.821C297.856,391.6,284.579,406.26,267.513,406.26ZM109.2,39.428a19.231,19.231,0,0,1,19.566-19.465H217.4a19.231,19.231,0,0,1,19.566,19.465V51.905H109.2ZM38.13,71.869H308.036a17.967,17.967,0,1,1,0,35.935H38.13a17.967,17.967,0,0,1,0-35.935Zm0,0" transform="translate(0 0)" fill="#015cfc"/>
    <path id="Trazado_1359" data-name="Trazado 1359" d="M173.38,154.7a9.981,9.981,0,0,0-9.982,9.982V353.341a9.982,9.982,0,0,0,19.964,0V164.685A9.981,9.981,0,0,0,173.38,154.7Zm0,0" transform="translate(-0.297 -0.281)" fill="#42e8b4"/>
  </g>
</svg>
