<svg id="_001-file" data-name="001-file" xmlns="http://www.w3.org/2000/svg" width="18.539" height="21.313" viewBox="0 0 18.539 21.313">
  <path id="Trazado_619" data-name="Trazado 619" d="M50.742,2.893,48.18.33a1.121,1.121,0,0,0-.8-.33H39.1a1.13,1.13,0,0,0-1.128,1.128V3.613h-4.31a1.13,1.13,0,0,0-1.128,1.128v7.235a.427.427,0,0,0,.853,0V4.742a.276.276,0,0,1,.276-.276h8.1V6.371A1.13,1.13,0,0,0,42.891,7.5h1.891V20.184a.276.276,0,0,1-.276.276H33.662a.276.276,0,0,1-.276-.276V15.467a.427.427,0,0,0-.853,0v4.717a1.13,1.13,0,0,0,1.128,1.128H44.506a1.13,1.13,0,0,0,1.128-1.128V17.7h4.31a1.13,1.13,0,0,0,1.128-1.128V3.691a1.121,1.121,0,0,0-.33-.8Zm-1.064.141H48.33a.276.276,0,0,1-.276-.276V1.41ZM42.615,6.371V5.023l1.624,1.624H42.891A.276.276,0,0,1,42.615,6.371Zm7.329,10.475h-4.31V7.3a1.121,1.121,0,0,0-.331-.8L42.741,3.944a1.121,1.121,0,0,0-.8-.33H38.825V1.128A.276.276,0,0,1,39.1.853h8.1V2.758A1.13,1.13,0,0,0,48.33,3.887H50.22V16.571a.276.276,0,0,1-.276.276Z" transform="translate(-32.534 0)" fill="#035bfc"/>
  <path id="Trazado_620" data-name="Trazado 620" d="M90.185,194.18h2.944a.427.427,0,0,0,0-.853H90.185A.427.427,0,0,0,90.185,194.18Z" transform="translate(-87.334 -185.086)" fill="#035bfc"/>
  <path id="Trazado_621" data-name="Trazado 621" d="M90.185,236.072h7.352a.427.427,0,0,0,0-.853H90.185A.427.427,0,0,0,90.185,236.072Z" transform="translate(-87.334 -225.192)" fill="#035bfc"/>
  <path id="Trazado_622" data-name="Trazado 622" d="M90.185,280.57h7.352a.427.427,0,0,0,0-.853H90.185A.427.427,0,0,0,90.185,280.57Z" transform="translate(-87.334 -267.793)" fill="#035bfc"/>
  <path id="Trazado_623" data-name="Trazado 623" d="M90.185,323.764h7.352a.427.427,0,0,0,0-.853H90.185A.427.427,0,0,0,90.185,323.764Z" transform="translate(-87.334 -309.146)" fill="#035bfc"/>
  <path id="Trazado_624" data-name="Trazado 624" d="M90.185,366.958h7.352a.427.427,0,0,0,0-.853H90.185A.427.427,0,0,0,90.185,366.958Z" transform="translate(-87.334 -350.499)" fill="#035bfc"/>
  <path id="Trazado_625" data-name="Trazado 625" d="M33.042,312.649a.426.426,0,1,0-.294-.735A.431.431,0,0,0,33.042,312.649Z" transform="translate(-32.616 -298.509)" fill="#035bfc"/>
</svg>
