<svg xmlns="http://www.w3.org/2000/svg" width="23.268" height="20.876" viewBox="0 0 23.268 20.876">
  <g id="_001-pencil" data-name="001-pencil" transform="translate(0 10.79) rotate(-59)">
    <g id="Grupo_23" data-name="Grupo 23" transform="translate(0 0)">
      <path id="Trazado_29" data-name="Trazado 29" d="M91.641,13.241l3.194-8.775h0l.422-1.159h0L96.1.993a1.51,1.51,0,0,1,1.935-.9l4.987,1.815a1.512,1.512,0,0,1,.9,1.935L103.5,5h0L99.465,16.089a3.571,3.571,0,0,1-.824,1.294.287.287,0,0,1-.406-.405,2.993,2.993,0,0,0,.691-1.085l.159-.436-.139.039a1,1,0,0,1-1.1-.4l-.422-.62a.428.428,0,0,0-.295-.183l-.012,0a.427.427,0,0,0-.163.013l-.722.2a1,1,0,0,1-1.1-.4l-.422-.62a.428.428,0,0,0-.118-.116l-.009-.006a.427.427,0,0,0-.342-.049l-.722.2a1,1,0,0,1-1.1-.4L92.339,13l-.159.436a2.961,2.961,0,0,0,.069,2.205l.473,1.085A5.412,5.412,0,0,1,96.4,18.066l.79-.393a.287.287,0,1,1,.255.514l-2.495,1.24a1.461,1.461,0,0,1-1.99-.724l-1.234-2.83A3.533,3.533,0,0,1,91.641,13.241Zm11.225-8.172-4.837-1.76a.287.287,0,0,1,.2-.539l4.837,1.76.322-.886a.937.937,0,0,0-.56-1.2L97.838.63a.936.936,0,0,0-1.2.56l-.322.886.623.227a.287.287,0,1,1-.2.539l-.623-.227-.226.62,6.746,2.455Zm-.422,1.159L95.7,3.773l-.226.62,4.587,1.67h0l2.159.786ZM97.9,14.153l.422.62a.428.428,0,0,0,.47.171l.536-.151,2.7-7.406L100.133,6.7l-2.6,7.132A1,1,0,0,1,97.9,14.153Zm-2.713-.988.422.62a.428.428,0,0,0,.47.171l.722-.2a1,1,0,0,1,.168-.032L99.594,6.5,97.7,5.816l-2.627,7.218A1,1,0,0,1,95.185,13.166ZM92.894,12.8a.428.428,0,0,0,.47.171l.722-.2a1,1,0,0,1,.484-.014l2.6-7.132-1.889-.688-2.7,7.406Zm.589,5.675a.888.888,0,0,0,1.209.44l1.145-.569A4.879,4.879,0,0,0,92.971,17.3Z" transform="translate(-91.426 0.001)"/>
    </g>
  </g>
</svg>
