<svg id="_001-graphic-design" data-name="001-graphic-design" xmlns="http://www.w3.org/2000/svg" width="22" height="22.001" viewBox="0 0 22 22.001">
  <g id="Grupo_1" data-name="Grupo 1" transform="translate(0 0)">
    <path id="Trazado_1" data-name="Trazado 1" d="M21.7,3.12,18.887.307a1.052,1.052,0,0,0-1.486,0L12.1,5.6a.34.34,0,1,0,.48.48l5.3-5.3a.372.372,0,0,1,.526,0L21.219,3.6a.372.372,0,0,1,0,.526l-.69.69L18.72,3.007a.34.34,0,1,0-.48.48L20.049,5.3l-.789.789-.795-.795a.34.34,0,1,0-.48.48l.795.795-.789.789L17.2,6.559a.34.34,0,1,0-.48.48l.795.795-.789.789L14.914,6.814a.34.34,0,0,0-.48.48L16.242,9.1l-.789.789L14.659,9.1a.34.34,0,1,0-.48.48l.795.795-.667.667L10.968,7.7l.621-.621a.34.34,0,0,0-.48-.48l-.621.621L4.224.957A2.306,2.306,0,0,0,.962,4.218l6.263,6.263L.314,17.394a1.052,1.052,0,0,0,0,1.486l2.813,2.813a1.051,1.051,0,0,0,1.486,0l6.912-6.912.492.492a.34.34,0,1,0,.48-.48l-.68-.68a.332.332,0,0,0-.106-.106L4.354,6.65l.911-.911.563.563a.34.34,0,0,0,.48-.48l-.563-.563.911-.911L10.247,7.94h0l3.785,3.785a.305.305,0,0,0,.066.066l5.039,5.039-.911.911-5.084-5.084-.009-.01L11.107,10.62l-.01-.009L7.515,7.03a.34.34,0,0,0-.48.48L17.747,18.222l-.911.911L13.61,15.906a.34.34,0,0,0-.48.48L16.6,19.853a.343.343,0,0,0,.117.076l4.1,1.593a.551.551,0,0,0,.713-.713l-1.595-4.1a.343.343,0,0,0-.076-.117l-5.072-5.072L21.7,4.606A1.052,1.052,0,0,0,21.7,3.12ZM11.044,14.3l-.666.666-.795-.795a.34.34,0,0,0-.48.48l.795.795-.789.789L7.3,14.427a.34.34,0,0,0-.48.48l1.809,1.809L7.84,17.5l-.795-.795a.34.34,0,1,0-.48.48l.795.795-.789.789-.795-.795a.34.34,0,1,0-.48.48l.795.795-.789.789L3.494,18.233a.34.34,0,1,0-.48.48l1.809,1.809-.69.69a.372.372,0,0,1-.526,0L.794,18.4a.372.372,0,0,1,0-.526l6.912-6.912ZM1.442,3.738a1.627,1.627,0,0,1,2.3-2.3L4.817,2.51l-2.3,2.3ZM5.025,5.019h0L3.874,6.17,3,5.292l2.3-2.3.878.878ZM20.791,20.784l-3.346-1.3,2.045-2.045Z" transform="translate(-0.006 0)"/>
  </g>
</svg>
