<svg id="_002-edit" data-name="002-edit" xmlns="http://www.w3.org/2000/svg" width="21.385" height="21.277" viewBox="0 0 21.385 21.277">
  <path id="Trazado_626" data-name="Trazado 626" d="M19.737,50.452a.533.533,0,0,0-.533.533v4.729a1.6,1.6,0,0,1-1.6,1.6H2.663a1.6,1.6,0,0,1-1.6-1.6V41.835a1.6,1.6,0,0,1,1.6-1.6H7.392a.533.533,0,0,0,0-1.065H2.663A2.666,2.666,0,0,0,0,41.835V55.714a2.666,2.666,0,0,0,2.663,2.663H17.607a2.666,2.666,0,0,0,2.663-2.663V50.985A.533.533,0,0,0,19.737,50.452Zm0,0" transform="translate(0 -37.1)" fill="#035bfc"/>
  <path id="Trazado_627" data-name="Trazado 627" d="M122.487.963a2.4,2.4,0,0,0-3.389,0l-9.5,9.5a.532.532,0,0,0-.137.234l-1.25,4.511a.532.532,0,0,0,.655.656l4.511-1.25a.532.532,0,0,0,.234-.137l9.5-9.5a2.4,2.4,0,0,0,0-3.389Zm-11.731,9.848,7.776-7.777,2.508,2.508-7.777,7.777Zm-.5,1.005,2,2-2.772.768Zm12.1-7.592-.565.565-2.508-2.508.565-.565a1.331,1.331,0,0,1,1.883,0l.625.625A1.333,1.333,0,0,1,122.358,4.224Zm0,0" transform="translate(-102.428 -0.261)" fill="#035bfc"/>
</svg>
