<svg xmlns="http://www.w3.org/2000/svg" width="183.997" height="44.528" viewBox="0 0 183.997 44.528">
  <g id="Grupo_9" data-name="Grupo 9" transform="translate(40.963 -282.641)">
    <g id="Grupo_7" data-name="Grupo 7" transform="translate(-40.963 282.641)">
      <g id="Grupo_1" data-name="Grupo 1" transform="translate(173.823 4.882)">
        <path id="Trazado_1" data-name="Trazado 1" d="M1249.338,349.977c-4.817,0-6.843-3.3-6.843-6.548V318.688h5.852v24.39c0,1.362.585,2.065,2.071,2.065h2.251v4.834Z" transform="translate(-1242.495 -318.688)" fill="#fff"/>
      </g>
      <g id="Grupo_2" data-name="Grupo 2">
        <path id="Trazado_2" data-name="Trazado 2" d="M-30.174,308.208c0,5.58,3.456,9.661,9.609,9.661,4.8,0,7.164-1.332,9.946-4.081L-3.96,320.2c-4.467,4.414-8.766,6.829-16.689,6.829-10.367,0-20.313-4.664-20.313-22.236,0-14.158,7.755-22.153,19.134-22.153,12.222,0,19.133,8.828,19.133,20.737v4.83ZM-14.5,296.133a7.634,7.634,0,0,0-7.333-4.5,7.634,7.634,0,0,0-7.333,4.5,11.838,11.838,0,0,0-1.012,4.664h16.689A11.836,11.836,0,0,0-14.5,296.133Z" transform="translate(40.963 -282.641)" fill="#fff"/>
      </g>
      <g id="Grupo_3" data-name="Grupo 3" transform="translate(146.439 9.983)">
        <path id="Trazado_3" data-name="Trazado 3" d="M1046.852,371.554c0,3.318,2.1,5.744,5.837,5.744a7.5,7.5,0,0,0,6.042-2.426l4.045,3.813a12.911,12.911,0,0,1-10.137,4.061c-6.3,0-12.339-2.773-12.339-13.222,0-8.418,4.71-13.172,11.622-13.172,7.424,0,11.622,5.249,11.622,12.33v2.872Zm9.523-7.18a5.047,5.047,0,0,0-8.908,0,6.914,6.914,0,0,0-.614,2.773h10.137A6.916,6.916,0,0,0,1056.375,364.374Z" transform="translate(-1040.299 -356.352)" fill="#fff"/>
      </g>
      <g id="Grupo_4" data-name="Grupo 4" transform="translate(104.693 10.075)">
        <path id="Trazado_4" data-name="Trazado 4" d="M753.506,383.125h-6.487v-15.6a4.674,4.674,0,0,0-1.379-3.665,4.06,4.06,0,0,0-2.855-1.04,4.125,4.125,0,0,0-2.9,1.04,4.674,4.674,0,0,0-1.379,3.665v15.6h-6.437v-25.8h6.289V359.7a8.467,8.467,0,0,1,6.437-2.674,8.234,8.234,0,0,1,6.091,2.278,9.909,9.909,0,0,1,2.625,7.329Z" transform="translate(-732.064 -357.029)" fill="#fff"/>
      </g>
      <g id="Grupo_5" data-name="Grupo 5" transform="translate(131.901 4.942)">
        <path id="Trazado_5" data-name="Trazado 5" d="M932.958,319.128h7.4v5.621h3.626v5.258h-4.238v13.429a1.556,1.556,0,0,0,1.671,1.658h2.567v5.17h-3.491c-5.368,0-7.534-4.2-7.534-7.848" transform="translate(-932.958 -319.128)" fill="#fff"/>
      </g>
      <g id="Grupo_6" data-name="Grupo 6" transform="translate(76.381 9.983)">
        <path id="Trazado_6" data-name="Trazado 6" d="M546.256,371.553H529.565a5.668,5.668,0,0,0,1.562,4.16A5.726,5.726,0,0,0,535.4,377.3a8.377,8.377,0,0,0,6.042-2.426l4.045,3.813a14.511,14.511,0,0,1-4.3,3.021,14.687,14.687,0,0,1-5.837,1.04q-12.339,0-12.339-13.221,0-6.19,3.225-9.755a10.817,10.817,0,0,1,8.4-3.417,11.012,11.012,0,0,1,8.6,3.516,12.7,12.7,0,0,1,3.021,8.814Zm-6.553-4.407a6.96,6.96,0,0,0-.614-2.773,5.047,5.047,0,0,0-8.909,0,6.929,6.929,0,0,0-.614,2.773Z" transform="translate(-523.012 -356.351)" fill="#fff"/>
      </g>
    </g>
    <g id="Grupo_8" data-name="Grupo 8" transform="translate(1.652 285.512)">
      <path id="Trazado_7" data-name="Trazado 7" d="M279.857,303.836,273.693,310a18.452,18.452,0,0,1,0,29.327l6.164,6.166a27.143,27.143,0,0,0,0-41.658Z" transform="translate(-273.693 -303.836)" fill="#f78e1e"/>
    </g>
  </g>
</svg>
