<svg xmlns="http://www.w3.org/2000/svg" width="316.139" height="303.513" viewBox="0 0 316.139 303.513">
  <g id="Grupo_36" data-name="Grupo 36" transform="translate(-1763.269 -1920.712)">
    <path id="Trazado_69" data-name="Trazado 69" d="M6291.963,3531.535l27.8-186.644a25.138,25.138,0,0,0-19.647-28.293l-171.9-25.69A78.851,78.851,0,0,0,6040,3335.573l34.646,182.435c4.748,28.788,16.8,36.042,29.393,36.207l163.821-.393C6283.382,3553.748,6289.849,3545.728,6291.963,3531.535Z" transform="translate(-4696.587 -398.192) rotate(-8.5)" fill="#085bfe"/>
    <g id="logo-entel" transform="translate(1847.062 2016.373)">
      <g id="Grupo_2" data-name="Grupo 2" transform="translate(0.001 -0.001)">
        <path id="Trazado_2" data-name="Trazado 2" d="M-13.755,347.121c0,14.072,8.716,24.365,24.233,24.365,12.105,0,18.067-3.359,25.083-10.292l16.794,16.171C41.09,388.5,30.248,394.587,10.266,394.587c-26.145,0-51.228-11.762-51.228-56.078,0-35.706,19.558-55.869,48.255-55.869,30.823,0,48.253,22.264,48.253,52.3v12.181Zm39.529-30.453A19.253,19.253,0,0,0,7.28,305.32a19.253,19.253,0,0,0-18.493,11.349,29.855,29.855,0,0,0-2.552,11.762H28.324a29.85,29.85,0,0,0-2.55-11.762Z" transform="translate(40.962 -282.64)" fill="#fff"/>
      </g>
      <g id="Grupo_8" data-name="Grupo 8" transform="translate(107.472 7.239)">
        <path id="Trazado_7" data-name="Trazado 7" d="M289.238,303.838l-15.545,15.545a46.535,46.535,0,0,1,0,73.961l15.545,15.55a68.454,68.454,0,0,0,0-105.06Z" transform="translate(-273.693 -303.835)" fill="#fd3d08"/>
      </g>
    </g>
  </g>
</svg>
