<svg id="_002-shop" data-name="002-shop" xmlns="http://www.w3.org/2000/svg" width="43.097" height="35" viewBox="0 0 43.097 35">
  <g id="Grupo_1845" data-name="Grupo 1845" transform="translate(0 0)">
    <g id="Grupo_1844" data-name="Grupo 1844">
      <path id="Trazado_637" data-name="Trazado 637" d="M41.116,81.833H40.4V63.1a5.86,5.86,0,0,0,2.7-4.931.632.632,0,0,0-.083-.313L38,49.094a1.985,1.985,0,0,0-1.72-1H6.812a1.985,1.985,0,0,0-1.72,1L.083,57.861A.632.632,0,0,0,0,58.174,5.86,5.86,0,0,0,2.7,63.1V81.833H1.981a.631.631,0,1,0,0,1.263H41.116a.631.631,0,1,0,0-1.263ZM1.306,58.805H3.33a.631.631,0,0,0,0-1.263H1.719l4.47-7.822a.72.72,0,0,1,.624-.362H36.284a.72.72,0,0,1,.624.362l4.47,7.822H39.767a.631.631,0,0,0,0,1.263h2.024a4.6,4.6,0,0,1-9.108,0h4.385a.631.631,0,1,0,0-1.263H6.029a.631.631,0,0,0,0,1.263h4.385a4.6,4.6,0,0,1-9.108,0Zm30.025,0a4.6,4.6,0,0,1-9.107,0Zm-10.459,0a4.6,4.6,0,0,1-9.107,0ZM35.762,81.833H28.927V79.722h6.834Zm0-3.374H28.927V66.9h6.834Zm3.374,3.374H37.024V66.271a.631.631,0,0,0-.631-.631H28.3a.631.631,0,0,0-.631.631V81.833H3.962V63.717a5.855,5.855,0,0,0,7.128-2.9,5.859,5.859,0,0,0,10.459,0,5.859,5.859,0,0,0,10.459,0,5.855,5.855,0,0,0,7.128,2.9Z" transform="translate(0 -48.096)" fill="#0257f3"/>
    </g>
  </g>
  <g id="Grupo_1847" data-name="Grupo 1847" transform="translate(6.073 17.543)">
    <g id="Grupo_1846" data-name="Grupo 1846">
      <path id="Trazado_638" data-name="Trazado 638" d="M90.995,256.516H72.776a.631.631,0,0,0-.631.631v12.82a.631.631,0,0,0,.631.631H90.995a.631.631,0,0,0,.631-.631v-12.82A.631.631,0,0,0,90.995,256.516Zm-.631,12.82H73.408V257.779H90.363Z" transform="translate(-72.145 -256.516)" fill="#0257f3"/>
    </g>
  </g>
</svg>
