<svg xmlns="http://www.w3.org/2000/svg" width="29.723" height="41.718" viewBox="0 0 29.723 41.718">
  <g id="surface1" transform="translate(-0.273 0)">
    <path id="Trazado_1085" data-name="Trazado 1085" d="M20.414,25.112H37.04a.57.57,0,0,0,0-1.14H20.414a.57.57,0,1,0,0,1.14Zm0,0" transform="translate(-13.591 -16.648)" fill="#666"/>
    <path id="Trazado_1086" data-name="Trazado 1086" d="M.273,5.691V39.932A1.792,1.792,0,0,0,2.06,41.718H28.21A1.789,1.789,0,0,0,30,39.932V5.691A1.788,1.788,0,0,0,28.21,3.9H19.526a4.421,4.421,0,0,0-8.781,0H2.06A1.789,1.789,0,0,0,.273,5.691ZM28.853,39.932a.645.645,0,0,1-.646.646H2.06a.645.645,0,0,1-.646-.646V11.209H28.858ZM15.135,1.129A3.284,3.284,0,0,1,18.374,3.9H11.912A3.283,3.283,0,0,1,15.135,1.129ZM28.21,5.042a.649.649,0,0,1,.648.648v4.378H1.414V5.691a.647.647,0,0,1,.646-.648Zm0,0" transform="translate(0 0)" fill="#666"/>
    <path id="Trazado_1087" data-name="Trazado 1087" d="M36.675,54.659H50.153a.57.57,0,0,0,0-1.14H36.675a.57.57,0,0,0,0,1.14Zm0,0" transform="translate(-24.885 -37.168)" fill="#666"/>
    <path id="Trazado_1088" data-name="Trazado 1088" d="M36.675,74.129H50.153a.57.57,0,0,0,0-1.141H36.675a.57.57,0,0,0,0,1.141Zm0,0" transform="translate(-24.885 -50.689)" fill="#666"/>
    <path id="Trazado_1089" data-name="Trazado 1089" d="M36.675,93.586H50.153a.57.57,0,0,0,0-1.141H36.675a.57.57,0,0,0,0,1.141Zm0,0" transform="translate(-24.885 -64.201)" fill="#666"/>
    <path id="Trazado_1090" data-name="Trazado 1090" d="M36.675,113.045H50.153a.569.569,0,1,0,0-1.139H36.675a.569.569,0,1,0,0,1.139Zm0,0" transform="translate(-24.885 -77.716)" fill="#666"/>
    <path id="Trazado_1091" data-name="Trazado 1091" d="M17.085,49.683a.571.571,0,0,0,.38.236h.085a.571.571,0,0,0,.35-.122l3.632-2.838a.57.57,0,1,0-.569-.987.551.551,0,0,0-.129.1l-3.159,2.472-.551-.786a.57.57,0,1,0-.934.653Zm0,0" transform="translate(-10.98 -31.873)" fill="#666"/>
    <path id="Trazado_1092" data-name="Trazado 1092" d="M16.99,68.944a.572.572,0,0,0,.38.237h.085a.58.58,0,0,0,.35-.123l3.632-2.839a.569.569,0,1,0-.675-.917l-.026.02L17.578,67.8l-.551-.786a.57.57,0,1,0-1.019.51.544.544,0,0,0,.085.124Zm0,0" transform="translate(-10.885 -45.274)" fill="#666"/>
    <path id="Trazado_1093" data-name="Trazado 1093" d="M17.077,88.18a.574.574,0,0,0,.38.235h.085a.571.571,0,0,0,.35-.122l3.632-2.839a.57.57,0,1,0-.675-.918l-.026.02-3.159,2.467-.55-.786a.571.571,0,0,0-.936.654Zm0,0" transform="translate(-10.972 -58.631)" fill="#666"/>
    <path id="Trazado_1094" data-name="Trazado 1094" d="M17.085,107.584a.575.575,0,0,0,.38.236h.085a.6.6,0,0,0,.35-.122l3.632-2.84a.57.57,0,1,0-.607-.964.521.521,0,0,0-.091.072l-3.159,2.47-.551-.786a.57.57,0,0,0-.934.653Zm0,0" transform="translate(-10.98 -72.091)" fill="#666"/>
  </g>
</svg>
