<svg xmlns="http://www.w3.org/2000/svg" width="35.233" height="32.255" viewBox="0 0 35.233 32.255">
  <g id="logout" transform="translate(0.001 1.105)">
    <path id="Trazado_653" data-name="Trazado 653" d="M211.794-1.105H199.026a3.844,3.844,0,0,0-3.815,3.837V6.123a.951.951,0,0,0,1.9,0V2.732A1.94,1.94,0,0,1,199.026.8h12.769a1.909,1.909,0,0,1,1.875,1.934v24.6a1.888,1.888,0,0,1-1.866,1.911H199.026a1.919,1.919,0,0,1-1.912-1.911v-3.32a.951.951,0,1,0-1.9,0v3.32a3.824,3.824,0,0,0,3.815,3.814h12.769a3.793,3.793,0,0,0,3.778-3.808V2.732A3.814,3.814,0,0,0,211.794-1.105Zm0,0" transform="translate(-180.341)" fill="#868686"/>
    <path id="Trazado_654" data-name="Trazado 654" d="M3.265,112.974H25.783a.951.951,0,1,0,0-1.9H3.054l4.882-5.643a.963.963,0,0,0-.095-1.351.951.951,0,0,0-1.342.09h0L.345,111.255a.948.948,0,0,0,.045,1.5l6.154,6.154a.951.951,0,0,0,1.345,0,.93.93,0,0,0,.013-1.316l-.013-.012Zm0,0" transform="translate(0 -96.953)" fill="#868686"/>
  </g>
</svg>
