<svg id="Grupo_9" data-name="Grupo 9" xmlns="http://www.w3.org/2000/svg" width="365.816" height="88.53" viewBox="0 0 365.816 88.53">
  <g id="Grupo_7" data-name="Grupo 7">
    <g id="Grupo_1" data-name="Grupo 1" transform="translate(345.588 9.706)">
      <path id="Trazado_1" data-name="Trazado 1" d="M1256.1,380.9c-9.577,0-13.6-6.553-13.6-13.018v-49.19h11.635v48.491c0,2.708,1.163,4.106,4.117,4.106h4.475V380.9Z" transform="translate(-1242.495 -318.688)" fill="#fff"/>
    </g>
    <g id="Grupo_2" data-name="Grupo 2">
      <path id="Trazado_2" data-name="Trazado 2" d="M-19.513,333.473c0,11.094,6.871,19.207,19.1,19.207,9.552,0,14.244-2.649,19.774-8.113L32.6,357.317c-8.882,8.776-17.428,13.577-33.181,13.577-20.612,0-40.387-9.272-40.387-44.209,0-28.148,15.417-44.044,38.041-44.044,24.3,0,38.04,17.551,38.04,41.229v9.6Zm31.17-24.009c-2.346-5.133-7.206-8.941-14.579-8.941s-12.233,3.808-14.58,8.941a23.537,23.537,0,0,0-2.011,9.273H13.668A23.532,23.532,0,0,0,11.657,309.464Z" transform="translate(40.963 -282.641)" fill="#fff"/>
    </g>
    <g id="Grupo_3" data-name="Grupo 3" transform="translate(291.144 19.848)">
      <path id="Trazado_3" data-name="Trazado 3" d="M1053.328,386.577c0,6.6,4.174,11.42,11.6,11.42,5.8,0,8.653-1.575,12.012-4.824l8.041,7.581c-5.4,5.218-10.586,8.073-20.155,8.073-12.52,0-24.531-5.513-24.531-26.287,0-16.737,9.365-26.188,23.107-26.188,14.76,0,23.107,10.436,23.107,24.514v5.71Zm18.933-14.275a10.034,10.034,0,0,0-17.711,0,13.744,13.744,0,0,0-1.221,5.513h20.155A13.748,13.748,0,0,0,1072.261,372.3Z" transform="translate(-1040.299 -356.352)" fill="#fff"/>
    </g>
    <g id="Grupo_4" data-name="Grupo 4" transform="translate(208.148 20.03)">
      <path id="Trazado_4" data-name="Trazado 4" d="M774.693,408.913H761.8V377.9q0-4.823-2.741-7.286a8.072,8.072,0,0,0-5.676-2.067,8.2,8.2,0,0,0-5.775,2.067q-2.741,2.462-2.741,7.286v31.012h-12.8V357.619h12.5v4.726a16.835,16.835,0,0,1,12.8-5.316q7.58,0,12.11,4.529,5.217,5.22,5.218,14.571Z" transform="translate(-732.064 -357.029)" fill="#fff"/>
    </g>
    <g id="Grupo_5" data-name="Grupo 5" transform="translate(262.241 9.825)">
      <path id="Trazado_5" data-name="Trazado 5" d="M932.958,319.128h14.71V330.3h7.208v10.455h-8.425v26.7a3.094,3.094,0,0,0,3.321,3.3h5.1v10.279h-6.94c-10.672,0-14.978-8.341-14.978-15.6" transform="translate(-932.958 -319.128)" fill="#fff"/>
    </g>
    <g id="Grupo_6" data-name="Grupo 6" transform="translate(151.858 19.847)">
      <path id="Trazado_6" data-name="Trazado 6" d="M569.225,386.576H536.041a11.268,11.268,0,0,0,3.1,8.27q3.1,3.152,8.5,3.15a16.654,16.654,0,0,0,12.011-4.824l8.041,7.581a28.851,28.851,0,0,1-8.551,6.005,29.2,29.2,0,0,1-11.6,2.068q-24.532,0-24.532-26.287,0-12.306,6.413-19.4,6.208-6.793,16.694-6.793,10.789,0,17.1,6.99,6,6.7,6.006,17.524ZM556.2,377.813a13.838,13.838,0,0,0-1.221-5.513q-2.443-5.317-8.856-5.317t-8.856,5.317a13.776,13.776,0,0,0-1.222,5.513Z" transform="translate(-523.012 -356.351)" fill="#fff"/>
    </g>
  </g>
  <g id="Grupo_8" data-name="Grupo 8" transform="translate(84.725 5.707)">
    <path id="Trazado_7" data-name="Trazado 7" d="M285.949,303.836l-12.256,12.257a36.685,36.685,0,0,1,0,58.307l12.256,12.258a53.965,53.965,0,0,0,0-82.823Z" transform="translate(-273.693 -303.836)" fill="#ff3d00"/>
  </g>
</svg>
