<svg id="Grupo_1838" data-name="Grupo 1838" xmlns="http://www.w3.org/2000/svg" width="58.519" height="44.528" viewBox="0 0 58.519 44.528">
  <g id="Grupo_2" data-name="Grupo 2">
    <path id="Trazado_2" data-name="Trazado 2" d="M-30.174,308.208c0,5.58,3.456,9.661,9.609,9.661,4.8,0,7.164-1.332,9.946-4.081L-3.96,320.2c-4.467,4.414-8.766,6.829-16.689,6.829-10.367,0-20.313-4.664-20.313-22.236,0-14.158,7.755-22.153,19.134-22.153,12.222,0,19.133,8.828,19.133,20.737v4.83ZM-14.5,296.133a7.634,7.634,0,0,0-7.333-4.5,7.634,7.634,0,0,0-7.333,4.5,11.838,11.838,0,0,0-1.012,4.664h16.689A11.836,11.836,0,0,0-14.5,296.133Z" transform="translate(40.963 -282.641)" fill="#035bfc"/>
  </g>
  <g id="Grupo_8" data-name="Grupo 8" transform="translate(42.615 2.871)">
    <path id="Trazado_7" data-name="Trazado 7" d="M279.857,303.836,273.693,310a18.452,18.452,0,0,1,0,29.327l6.164,6.166a27.143,27.143,0,0,0,0-41.658Z" transform="translate(-273.693 -303.836)" fill="#ff3d00"/>
  </g>
</svg>
