<svg id="_003-pen" data-name="003-pen" xmlns="http://www.w3.org/2000/svg" width="426.248" height="426.225" viewBox="0 0 426.248 426.225">
  <path id="Trazado_1366" data-name="Trazado 1366" d="M424.56,2.946A9.72,9.72,0,0,0,417.583.1a10.128,10.128,0,0,0-6.974,2.849l-140.7,140.7-.391.4-.2.2c-.194.3-.489.591-.686.883,0,.1-.1.1-.1.2-.2.292-.3.492-.492.784-.1.1-.1.2-.2.3-.1.3-.194.492-.3.788,0,.1-.1.1-.1.194l-25.056,75.559a9.68,9.68,0,0,0,2.363,10.022,9.894,9.894,0,0,0,6.971,2.849,11.706,11.706,0,0,0,3.147-.492l75.363-25.152c.1,0,.1,0,.194-.1a3.5,3.5,0,0,0,.883-.391.348.348,0,0,0,.2-.1c.292-.194.686-.391.981-.591s.588-.492.883-.686c.1-.1.2-.1.2-.2.1-.1.3-.2.4-.391l140.792-140.8a9.781,9.781,0,0,0,0-13.856ZM281.11,168.8,308.916,196.6l-41.662,13.852Zm45.984,18.178-36.355-36.352L417.583,23.776l36.352,36.352Zm0,0" transform="translate(-51.392 -0.097)" fill="#42e8b4"/>
  <path id="Trazado_1367" data-name="Trazado 1367" d="M349.979,201.652a9.853,9.853,0,0,0-9.826,9.826V395.116a29.564,29.564,0,0,1-29.477,29.477H49.128a29.568,29.568,0,0,1-29.477-29.477V133.562a29.566,29.566,0,0,1,29.477-29.477H232.76a9.826,9.826,0,1,0,0-19.651H49.128A49.15,49.15,0,0,0,0,133.562V395.116a49.145,49.145,0,0,0,49.128,49.125H310.676A49.143,49.143,0,0,0,359.8,395.116V211.478A9.853,9.853,0,0,0,349.979,201.652Zm0,0" transform="translate(0 -18.016)" fill="#015cfc"/>
</svg>
