<?xml version="1.0" encoding="utf-8"?>
<!-- Generator: Adobe Illustrator 24.1.0, SVG Export Plug-In . SVG Version: 6.00 Build 0)  -->
<svg version="1.1" id="Capa_1" xmlns="http://www.w3.org/2000/svg" xmlns:xlink="http://www.w3.org/1999/xlink" x="0px" y="0px"
	 viewBox="0 0 447.5 237.9" style="enable-background:new 0 0 447.5 237.9;" xml:space="preserve">
<style type="text/css">
	.st0{enable-background:new    ;}
	.st1{fill:#005CFD;}
	.st2{fill:#FFFFFF;}
	.st3{fill:#42E8B4;}
	.st4{fill:#FD6C98;}
</style>
<g id="Grupo_2" transform="translate(-2736.892 -2046.491)">
	<g class="st0">
		<path class="st1" d="M2979.5,2159.5c-0.2,0.2-0.4,0.2-0.6,0.2h-22.4c-0.2,0-0.3,0.1-0.3,0.3v10.6c0,0.2,0.1,0.3,0.3,0.3h14.7
			c0.2,0,0.4,0.1,0.6,0.2s0.2,0.4,0.2,0.6v6.6c0,0.2-0.1,0.4-0.2,0.6s-0.4,0.2-0.6,0.2h-14.7c-0.2,0-0.3,0.1-0.3,0.3v18.9
			c0,0.2-0.1,0.4-0.2,0.6c-0.2,0.2-0.4,0.2-0.6,0.2h-8c-0.2,0-0.4-0.1-0.6-0.2c-0.2-0.2-0.2-0.4-0.2-0.6v-46.3
			c0-0.2,0.1-0.4,0.2-0.6c0.2-0.2,0.4-0.2,0.6-0.2h31.6c0.2,0,0.4,0.1,0.6,0.2c0.2,0.2,0.2,0.4,0.2,0.6v6.6
			C2979.8,2159.2,2979.7,2159.4,2979.5,2159.5z"/>
		<path class="st1" d="M3011.8,2184c0,0.5-0.3,0.8-0.9,0.8h-21.2c-0.3,0-0.4,0.1-0.3,0.3c0.1,0.9,0.4,1.8,0.8,2.7
			c1.2,2.6,3.6,3.8,7.3,3.8c2.9,0,5.2-1.2,6.9-3.6c0.2-0.3,0.4-0.4,0.6-0.4c0.1,0,0.3,0.1,0.5,0.3l4.9,4.9c0.2,0.2,0.3,0.4,0.3,0.6
			c0,0.1-0.1,0.3-0.3,0.5c-1.5,1.9-3.4,3.3-5.8,4.4c-2.4,1-5,1.5-7.8,1.5c-3.9,0-7.3-0.9-10-2.7s-4.7-4.3-5.9-7.5
			c-1-2.3-1.4-5.3-1.4-9c0-2.5,0.3-4.7,1-6.6c1-3.2,2.9-5.8,5.5-7.7c2.6-1.9,5.7-2.9,9.4-2.9c4.6,0,8.2,1.3,11,4
			c2.8,2.7,4.4,6.2,5,10.6C3011.8,2179.9,3011.9,2181.9,3011.8,2184z M2989.8,2176c-0.2,0.6-0.3,1.3-0.5,2.2c0,0.2,0.1,0.3,0.3,0.3
			h11.9c0.3,0,0.4-0.1,0.3-0.3c-0.2-1.3-0.3-2-0.3-1.9c-0.4-1.4-1.1-2.4-2.2-3.2c-1-0.8-2.3-1.1-3.8-1.1
			C2992.6,2172,2990.7,2173.3,2989.8,2176z"/>
		<path class="st1" d="M3018,2199.2c-0.2-0.2-0.2-0.4-0.2-0.6v-46.3c0-0.2,0.1-0.4,0.2-0.6c0.2-0.2,0.4-0.2,0.6-0.2h8
			c0.2,0,0.4,0.1,0.6,0.2c0.2,0.2,0.2,0.4,0.2,0.6v46.3c0,0.2-0.1,0.4-0.2,0.6c-0.2,0.2-0.4,0.2-0.6,0.2h-8
			C3018.3,2199.4,3018.1,2199.3,3018,2199.2z"/>
		<path class="st1" d="M3034.4,2199.2c-0.2-0.2-0.2-0.4-0.2-0.6V2165c0-0.2,0.1-0.4,0.2-0.6c0.2-0.2,0.4-0.2,0.6-0.2h8
			c0.2,0,0.4,0.1,0.6,0.2c0.2,0.2,0.2,0.4,0.2,0.6v33.6c0,0.2-0.1,0.4-0.2,0.6c-0.2,0.2-0.4,0.2-0.6,0.2h-8
			C3034.8,2199.4,3034.6,2199.3,3034.4,2199.2z M3034.6,2159.7c-0.1-0.2-0.1-0.4,0.1-0.7l3.6-6.9c0.2-0.4,0.5-0.6,1-0.6h6.9
			c0.3,0,0.5,0.1,0.7,0.3c0.1,0.2,0.1,0.4-0.1,0.7l-4.9,6.9c-0.2,0.4-0.5,0.5-1,0.5h-5.8C3034.9,2160,3034.7,2159.9,3034.6,2159.7z"
			/>
		<path class="st1" d="M3049,2199.2c-0.2-0.2-0.2-0.4-0.2-0.6v-7.3c0-0.4,0.1-0.7,0.4-1l15.4-16.9c0.2-0.3,0.2-0.4-0.1-0.4H3050
			c-0.2,0-0.4-0.1-0.6-0.2c-0.2-0.2-0.2-0.4-0.2-0.6v-7.1c0-0.2,0.1-0.4,0.2-0.6c0.2-0.2,0.4-0.2,0.6-0.2h25.6
			c0.2,0,0.4,0.1,0.6,0.2c0.2,0.2,0.2,0.4,0.2,0.6v7.3c0,0.3-0.1,0.7-0.4,1l-15.9,16.9c-0.2,0.3-0.1,0.4,0.1,0.4h15.7
			c0.2,0,0.4,0.1,0.6,0.2c0.2,0.2,0.2,0.4,0.2,0.6v7.1c0,0.2-0.1,0.4-0.2,0.6c-0.2,0.2-0.4,0.2-0.6,0.2h-26.4
			C3049.3,2199.4,3049.2,2199.3,3049,2199.2z"/>
		<path class="st1" d="M3118,2151.7c0.2-0.2,0.4-0.2,0.6-0.2h8c0.2,0,0.4,0.1,0.6,0.2c0.2,0.2,0.2,0.4,0.2,0.6v46.3
			c0,0.2-0.1,0.4-0.2,0.6c-0.2,0.2-0.4,0.2-0.6,0.2h-8c-0.2,0-0.4-0.1-0.6-0.2c-0.2-0.2-0.2-0.4-0.2-0.6v-2.3c0-0.1,0-0.2-0.1-0.2
			c-0.1,0-0.2,0-0.3,0.1c-1.9,2.5-4.5,3.8-7.9,3.8c-3.2,0-5.9-0.9-8.3-2.7s-4-4.2-5-7.3c-0.8-2.4-1.2-5.1-1.2-8.3
			c0-3.2,0.4-6.1,1.2-8.5c1-2.9,2.7-5.2,5-7c2.3-1.7,5.1-2.6,8.4-2.6c3.3,0,5.8,1.1,7.7,3.4c0.1,0.1,0.2,0.2,0.3,0.1
			c0.1,0,0.1-0.1,0.1-0.3v-14.7C3117.8,2152.1,3117.8,2151.9,3118,2151.7z M3117.7,2181.8c0-3.1-0.5-5.5-1.5-7.2
			c-1.1-1.8-2.6-2.7-4.6-2.7c-2.1,0-3.8,0.9-4.9,2.7c-1.1,1.8-1.7,4.2-1.7,7.3c0,2.7,0.5,5,1.4,6.9c1.1,2,2.8,2.9,5.1,2.9
			c2.1,0,3.7-1,4.8-2.9C3117.2,2187,3117.7,2184.7,3117.7,2181.8z"/>
		<path class="st1" d="M3134.6,2199.2c-0.2-0.2-0.2-0.4-0.2-0.6V2165c0-0.2,0.1-0.4,0.2-0.6c0.2-0.2,0.4-0.2,0.6-0.2h8
			c0.2,0,0.4,0.1,0.6,0.2c0.2,0.2,0.2,0.4,0.2,0.6v33.6c0,0.2-0.1,0.4-0.2,0.6c-0.2,0.2-0.4,0.2-0.6,0.2h-8
			C3135,2199.4,3134.8,2199.3,3134.6,2199.2z M3134.8,2159.7c-0.1-0.2-0.1-0.4,0.1-0.7l3.6-6.9c0.2-0.4,0.5-0.6,1-0.6h6.9
			c0.3,0,0.5,0.1,0.7,0.3c0.1,0.2,0.1,0.4-0.1,0.7l-4.9,6.9c-0.2,0.4-0.5,0.5-1,0.5h-5.8C3135.1,2160,3134.9,2159.9,3134.8,2159.7z"
			/>
		<path class="st1" d="M3172.9,2165.2c2.3,1,4.1,2.4,5.4,4.2c1.3,1.8,2,3.8,2,6v23.2c0,0.2-0.1,0.4-0.2,0.6
			c-0.2,0.2-0.4,0.2-0.6,0.2h-8c-0.2,0-0.4-0.1-0.6-0.2c-0.2-0.2-0.2-0.4-0.2-0.6v-2.3c0-0.1,0-0.2-0.1-0.3c-0.1,0-0.2,0-0.3,0.1
			c-1.9,2.5-5,3.8-9.2,3.8c-3.6,0-6.4-0.9-8.6-2.6c-2.2-1.7-3.3-4.3-3.3-7.7c0-3.5,1.2-6.2,3.7-8.2s6-2.9,10.6-2.9h7
			c0.2,0,0.3-0.1,0.3-0.3v-1.5c0-1.5-0.5-2.7-1.4-3.5c-0.9-0.8-2.3-1.3-4.1-1.3c-1.4,0-2.6,0.3-3.5,0.8c-0.9,0.5-1.5,1.2-1.8,2.1
			c-0.1,0.5-0.4,0.7-0.9,0.7l-8.3-1.1c-0.5-0.1-0.8-0.3-0.8-0.6c0.2-1.9,0.9-3.7,2.3-5.2c1.3-1.6,3.1-2.8,5.3-3.6
			c2.2-0.9,4.7-1.3,7.4-1.3C3167.9,2163.7,3170.6,2164.2,3172.9,2165.2z M3168.6,2191.2c1.4-1.1,2.1-2.4,2.1-4v-2.5
			c0-0.2-0.1-0.3-0.3-0.3h-4.9c-2.1,0-3.7,0.4-4.8,1.2c-1.2,0.8-1.7,1.9-1.7,3.3c0,1.2,0.4,2.2,1.3,2.9c0.9,0.7,2,1.1,3.5,1.1
			C3165.6,2192.8,3167.2,2192.3,3168.6,2191.2z"/>
	</g>
	<g class="st0">
		<path class="st1" d="M2968,2222.4c0.2-0.2,0.4-0.2,0.6-0.2h8c0.2,0,0.4,0.1,0.6,0.2c0.2,0.2,0.2,0.4,0.2,0.6v46.3
			c0,0.2-0.1,0.4-0.2,0.6c-0.2,0.2-0.4,0.2-0.6,0.2h-8c-0.2,0-0.4-0.1-0.6-0.2c-0.2-0.2-0.2-0.4-0.2-0.6v-2.3c0-0.1,0-0.2-0.1-0.2
			c-0.1,0-0.2,0-0.3,0.1c-1.9,2.5-4.5,3.8-7.9,3.8c-3.2,0-6-0.9-8.3-2.7c-2.3-1.8-4-4.2-5-7.3c-0.8-2.4-1.2-5.1-1.2-8.3
			c0-3.2,0.4-6.1,1.2-8.5c1-2.9,2.7-5.2,5-7c2.3-1.7,5.1-2.6,8.4-2.6c3.3,0,5.8,1.1,7.7,3.4c0.1,0.1,0.2,0.2,0.3,0.1
			c0.1,0,0.1-0.1,0.1-0.3V2223C2967.8,2222.7,2967.9,2222.5,2968,2222.4z M2967.7,2252.5c0-3.1-0.5-5.5-1.5-7.2
			c-1.1-1.8-2.6-2.7-4.6-2.7c-2.1,0-3.8,0.9-4.9,2.7c-1.1,1.8-1.7,4.2-1.7,7.3c0,2.7,0.5,5,1.4,6.9c1.1,2,2.8,2.9,5.1,2.9
			c2.1,0,3.7-1,4.8-2.9C2967.2,2257.7,2967.7,2255.4,2967.7,2252.5z"/>
		<path class="st1" d="M3016.1,2254.7c0,0.5-0.3,0.8-0.9,0.8h-21.2c-0.3,0-0.4,0.1-0.3,0.3c0.1,0.9,0.4,1.8,0.8,2.7
			c1.2,2.6,3.6,3.8,7.3,3.8c2.9,0,5.2-1.2,6.9-3.6c0.2-0.3,0.4-0.4,0.6-0.4c0.1,0,0.3,0.1,0.5,0.3l4.9,4.9c0.2,0.2,0.3,0.4,0.3,0.6
			c0,0.1-0.1,0.3-0.3,0.5c-1.5,1.9-3.4,3.3-5.8,4.4c-2.4,1-5,1.5-7.8,1.5c-3.9,0-7.3-0.9-10-2.7s-4.7-4.3-5.9-7.5
			c-1-2.3-1.4-5.3-1.4-9c0-2.5,0.3-4.7,1-6.6c1-3.2,2.9-5.8,5.5-7.7c2.6-1.9,5.7-2.9,9.4-2.9c4.6,0,8.2,1.3,11,4
			c2.8,2.7,4.4,6.2,5,10.6C3016.1,2250.6,3016.2,2252.5,3016.1,2254.7z M2994.2,2246.7c-0.2,0.6-0.3,1.3-0.5,2.2
			c0,0.2,0.1,0.3,0.3,0.3h11.9c0.3,0,0.4-0.1,0.3-0.3c-0.2-1.3-0.3-2-0.3-1.9c-0.4-1.4-1.1-2.4-2.2-3.2c-1-0.8-2.3-1.1-3.8-1.1
			C2997,2242.6,2995.1,2244,2994.2,2246.7z"/>
		<path class="st1" d="M3022.3,2269.9c-0.2-0.2-0.2-0.4-0.2-0.6V2223c0-0.2,0.1-0.4,0.2-0.6c0.2-0.2,0.4-0.2,0.6-0.2h8
			c0.2,0,0.4,0.1,0.6,0.2c0.2,0.2,0.2,0.4,0.2,0.6v46.3c0,0.2-0.1,0.4-0.2,0.6c-0.2,0.2-0.4,0.2-0.6,0.2h-8
			C3022.7,2270.1,3022.5,2270,3022.3,2269.9z"/>
		<path class="st1" d="M3079.7,2237.7c2.2,2.2,3.4,5.3,3.4,9.1v22.5c0,0.2-0.1,0.4-0.2,0.6c-0.2,0.2-0.4,0.2-0.6,0.2h-8
			c-0.2,0-0.4-0.1-0.6-0.2c-0.2-0.2-0.2-0.4-0.2-0.6v-20.5c0-1.8-0.5-3.3-1.5-4.5s-2.4-1.7-4.1-1.7c-1.7,0-3,0.6-4.1,1.7
			s-1.5,2.6-1.5,4.5v20.5c0,0.2-0.1,0.4-0.2,0.6c-0.2,0.2-0.4,0.2-0.6,0.2h-8c-0.2,0-0.4-0.1-0.6-0.2c-0.2-0.2-0.2-0.4-0.2-0.6
			v-33.6c0-0.2,0.1-0.4,0.2-0.6c0.2-0.2,0.4-0.2,0.6-0.2h8c0.2,0,0.4,0.1,0.6,0.2c0.2,0.2,0.2,0.4,0.2,0.6v2.4c0,0.1,0,0.2,0.1,0.3
			c0.1,0,0.2,0,0.2-0.1c1.9-2.6,4.7-4,8.4-4C3074.5,2234.3,3077.5,2235.5,3079.7,2237.7z"/>
		<path class="st1" d="M3091.3,2229.4c-1-1-1.5-2.3-1.5-3.9c0-1.6,0.5-2.9,1.5-3.9c1-1,2.3-1.5,3.9-1.5c1.6,0,2.9,0.5,3.9,1.5
			c1,1,1.5,2.3,1.5,3.9c0,1.6-0.5,2.8-1.5,3.9c-1,1-2.3,1.5-3.9,1.5C3093.7,2230.9,3092.4,2230.4,3091.3,2229.4z M3090.5,2269.9
			c-0.2-0.2-0.2-0.4-0.2-0.6v-33.6c0-0.2,0.1-0.4,0.2-0.6c0.2-0.2,0.4-0.2,0.6-0.2h8c0.2,0,0.4,0.1,0.6,0.2c0.2,0.2,0.2,0.4,0.2,0.6
			v33.6c0,0.2-0.1,0.4-0.2,0.6c-0.2,0.2-0.4,0.2-0.6,0.2h-8C3090.9,2270.1,3090.7,2270,3090.5,2269.9z"/>
		<path class="st1" d="M3134.7,2237.7c2.2,2.2,3.4,5.3,3.4,9.1v22.5c0,0.2-0.1,0.4-0.2,0.6c-0.2,0.2-0.4,0.2-0.6,0.2h-8
			c-0.2,0-0.4-0.1-0.6-0.2c-0.2-0.2-0.2-0.4-0.2-0.6v-20.5c0-1.8-0.5-3.3-1.5-4.5c-1-1.1-2.4-1.7-4.1-1.7c-1.7,0-3,0.6-4.1,1.7
			c-1,1.1-1.5,2.6-1.5,4.5v20.5c0,0.2-0.1,0.4-0.2,0.6c-0.2,0.2-0.4,0.2-0.6,0.2h-8c-0.2,0-0.4-0.1-0.6-0.2
			c-0.2-0.2-0.2-0.4-0.2-0.6v-33.6c0-0.2,0.1-0.4,0.2-0.6c0.2-0.2,0.4-0.2,0.6-0.2h8c0.2,0,0.4,0.1,0.6,0.2c0.2,0.2,0.2,0.4,0.2,0.6
			v2.4c0,0.1,0,0.2,0.1,0.3c0.1,0,0.2,0,0.2-0.1c1.9-2.6,4.7-4,8.4-4C3129.5,2234.3,3132.4,2235.5,3134.7,2237.7z M3125,2230.5
			c-0.6-0.2-1.4-0.5-2.2-0.9c-1-0.5-1.7-0.8-2.1-0.9c-0.4-0.2-0.9-0.2-1.4-0.2c-1.4,0-2.6,0.5-3.6,1.5c-0.2,0.2-0.4,0.3-0.6,0.3
			c-0.2,0-0.4-0.1-0.5-0.3l-2.8-3c-0.3-0.4-0.4-0.8-0.1-1.2c0.7-1.3,1.7-2.3,3-3.1c1.3-0.8,2.7-1.2,4.2-1.2c0.9,0,1.6,0.1,2.3,0.3
			c0.7,0.2,1.3,0.5,1.8,0.7c0.5,0.3,0.9,0.4,1.1,0.5c0.9,0.5,1.5,0.8,2,1c0.5,0.2,0.9,0.3,1.4,0.3c1.4,0,2.5-0.5,3.3-1.6
			c0.2-0.2,0.4-0.3,0.6-0.3c0.2,0,0.4,0.1,0.5,0.3l2.5,3.1c0.3,0.3,0.3,0.6,0.2,1c-0.6,1.2-1.5,2.2-2.8,3c-1.3,0.8-2.7,1.1-4.4,1.1
			C3126.5,2230.8,3125.7,2230.7,3125,2230.5z"/>
		<path class="st1" d="M3150.6,2267.6c-2.7-2-4.6-4.8-5.6-8.2c-0.6-2.1-1-4.5-1-7c0-2.7,0.3-5.1,1-7.3c1-3.4,2.9-6,5.7-7.9
			c2.7-1.9,6-2.9,9.9-2.9c3.7,0,6.9,0.9,9.6,2.8c2.6,1.9,4.5,4.5,5.6,7.9c0.7,2.3,1.1,4.7,1.1,7.2c0,2.5-0.3,4.8-1,6.9
			c-1,3.6-2.9,6.4-5.6,8.4c-2.7,2-6,3-9.8,3S3153.4,2269.6,3150.6,2267.6z M3164.3,2261c1.1-0.9,1.8-2.2,2.3-3.8
			c0.4-1.5,0.5-3.1,0.5-4.8c0-1.9-0.2-3.5-0.5-4.9c-0.5-1.6-1.3-2.8-2.3-3.6c-1.1-0.9-2.3-1.3-3.8-1.3c-1.6,0-2.8,0.4-3.9,1.3
			c-1,0.9-1.8,2.1-2.2,3.6c-0.4,1.1-0.5,2.7-0.5,4.9c0,2.1,0.2,3.7,0.5,4.8c0.5,1.6,1.2,2.9,2.3,3.8c1.1,0.9,2.4,1.4,3.9,1.4
			C3162,2262.4,3163.3,2261.9,3164.3,2261z"/>
	</g>
	<g id="Grupo_1">
		<g id="Trazado_2">
			<path class="st2" d="M2878.3,2277.1C2878.3,2277.1,2878.3,2277.1,2878.3,2277.1c-13.5,0-26.1-6.1-34.5-16.8
				c-0.5-0.6-0.9-1.3-1.2-1.9c-0.2-0.3-0.3-0.5-0.5-0.8c-1.3-1.9-0.8-4.5,1.1-5.8c1.9-1.3,4.5-0.8,5.8,1.1c0.3,0.4,0.5,0.8,0.8,1.2
				c0.2,0.3,0.5,0.8,0.6,1c6.8,8.6,17,13.6,28,13.6c0,0,0,0,0,0c9.5,0,18.4-3.7,25.1-10.4c6.7-6.7,10.4-15.6,10.4-25.1
				c0-19.6-15.9-35.5-35.5-35.5c-2.3,0-4.1-1.9-4.1-4.1c0-2.3,1.9-4.1,4.1-4.1c0,0,0,0,0,0c24.2,0,43.8,19.7,43.8,43.8
				c0,11.7-4.6,22.7-12.8,31C2901,2272.5,2890,2277.1,2878.3,2277.1z"/>
		</g>
		<g id="Línea_1">
			<path class="st2" d="M2878.3,2197.7C2878.3,2197.7,2878.3,2197.7,2878.3,2197.7l-48.9-0.1c-2.3,0-4.1-1.9-4.1-4.1
				c0-2.3,1.9-4.1,4.1-4.1c0,0,0,0,0,0l48.8,0.1c2.3,0,4.1,1.9,4.1,4.1C2882.4,2195.9,2880.6,2197.7,2878.3,2197.7z"/>
		</g>
		<g id="Línea_2">
			<path class="st2" d="M2845.5,2259.5h-16.1c-2.3,0-4.1-1.9-4.1-4.1s1.9-4.1,4.1-4.1h16.1c2.3,0,4.1,1.9,4.1,4.1
				S2847.8,2259.5,2845.5,2259.5z"/>
		</g>
		<g id="Trazado_3">
			<path class="st2" d="M2780.7,2277.1c-24.2,0-43.8-19.6-43.8-43.8c0-24.2,19.6-43.8,43.8-43.8c2.3,0,4.1,1.9,4.1,4.1
				c0,2.3-1.9,4.1-4.1,4.1c-19.6,0-35.5,15.9-35.5,35.5c0,9.5,3.7,18.4,10.4,25.1c6.7,6.7,15.6,10.4,25.1,10.4c0,0,0,0,0,0
				c11,0,21.2-5,27.9-13.6c0.1-0.2,0.4-0.6,0.6-1c0.3-0.4,0.5-0.9,0.8-1.2c1.3-1.9,3.9-2.4,5.8-1.1c1.9,1.3,2.4,3.9,1.1,5.8
				c-0.2,0.2-0.3,0.5-0.5,0.8c-0.3,0.6-0.7,1.2-1.2,1.8C2806.8,2270.9,2794.3,2277.1,2780.7,2277.1z"/>
		</g>
		<g id="Trazado_4">
			<path class="st2" d="M2780.7,2197.7c-2.3,0-4.1-1.9-4.1-4.1c0-2.3,1.9-4.1,4.1-4.1l44.7,0v-27.3c0-2.3,1.9-4.1,4.1-4.1
				s4.1,1.9,4.1,4.1v31.5c0,2.3-1.9,4.1-4.1,4.1L2780.7,2197.7C2780.7,2197.7,2780.7,2197.7,2780.7,2197.7z"/>
		</g>
		<g id="Línea_3">
			<path class="st2" d="M2829.5,2259.5h-16.1c-2.3,0-4.1-1.9-4.1-4.1s1.9-4.1,4.1-4.1h16.1c2.3,0,4.1,1.9,4.1,4.1
				S2831.8,2259.5,2829.5,2259.5z"/>
		</g>
		<g id="Línea_4">
			<path class="st3" d="M2780.7,2252.9c-2.3,0-4.1-1.9-4.1-4.1v-31.1c0-2.3,1.9-4.1,4.1-4.1s4.1,1.9,4.1,4.1v31.1
				C2784.8,2251.1,2783,2252.9,2780.7,2252.9z"/>
		</g>
		<g id="Línea_5">
			<path class="st3" d="M2796.2,2237.4h-31.1c-2.3,0-4.1-1.9-4.1-4.1s1.9-4.1,4.1-4.1h31.1c2.3,0,4.1,1.9,4.1,4.1
				S2798.5,2237.4,2796.2,2237.4z"/>
		</g>
		<g id="Trazado_5">
			<path class="st4" d="M2862,2223.2c4.2,0,7.7,3.4,7.7,7.7c0,4.2-3.4,7.7-7.7,7.7c-4.2,0-7.7-3.4-7.7-7.7
				C2854.3,2226.6,2857.7,2223.2,2862,2223.2C2862,2223.2,2862,2223.2,2862,2223.2"/>
		</g>
		<g id="Trazado_6">
			<path class="st4" d="M2894.6,2223.2c4.2,0,7.7,3.4,7.7,7.7c0,4.2-3.4,7.7-7.7,7.7c-4.2,0-7.7-3.4-7.7-7.7
				C2886.9,2226.6,2890.3,2223.2,2894.6,2223.2"/>
		</g>
		<g id="Trazado_7">
			<path class="st4" d="M2885.9,2214.6c0,4.2-3.4,7.7-7.7,7.7c-4.2,0-7.7-3.4-7.7-7.7c0-4.2,3.4-7.7,7.7-7.7
				C2882.5,2206.9,2885.9,2210.3,2885.9,2214.6"/>
		</g>
		<g id="Trazado_8">
			<path class="st4" d="M2885.9,2247.2c0,4.2-3.4,7.7-7.7,7.7s-7.7-3.4-7.7-7.7s3.4-7.7,7.7-7.7l0,0
				C2882.5,2239.5,2885.9,2242.9,2885.9,2247.2C2885.9,2247.2,2885.9,2247.2,2885.9,2247.2"/>
		</g>
		<g id="Trazado_9">
			<path class="st2" d="M2820.5,2217.3h-7.4c-1.8,0-3.2-1.4-3.2-3.2c0-1.8,1.4-3.2,3.2-3.2h7.4c1.8,0,3.2,1.4,3.2,3.2
				C2823.7,2215.9,2822.3,2217.3,2820.5,2217.3C2820.5,2217.3,2820.5,2217.3,2820.5,2217.3"/>
		</g>
		<g id="Trazado_10">
			<path class="st2" d="M2845.7,2217.3h-7.4c-1.8,0-3.2-1.4-3.2-3.2c0-1.8,1.4-3.2,3.2-3.2c0,0,0,0,0,0h7.4c1.8,0,3.2,1.4,3.2,3.2
				C2848.9,2215.9,2847.5,2217.3,2845.7,2217.3"/>
		</g>
		<g id="Trazado_11">
			<path class="st2" d="M2829.5,2166.2h-26.6c-8.4,0-15.2-6.8-15.2-15.2c0-8.4,6.8-15.2,15.2-15.2h48.8c2.3,0,4.1,1.9,4.1,4.1
				s-1.9,4.1-4.1,4.1h-48.8c-3.8,0-7,3.1-7,7c0,3.8,3.1,7,7,7h26.6c2.3,0,4.1,1.9,4.1,4.1S2831.8,2166.2,2829.5,2166.2z"/>
		</g>
		<g id="Trazado_12">
			<path class="st2" d="M2851.8,2144c-2.3,0-4.1-1.9-4.1-4.1c0-2.3,1.9-4.1,4.1-4.1c3.8,0,7-3.1,7-7v-78.1c0-2.3,1.9-4.1,4.1-4.1
				s4.1,1.9,4.1,4.1v78.1C2867,2137.2,2860.2,2144,2851.8,2144z"/>
		</g>
	</g>
</g>
</svg>
