<?xml version="1.0" encoding="utf-8"?>
<!-- Generator: Adobe Illustrator 24.1.0, SVG Export Plug-In . SVG Version: 6.00 Build 0)  -->
<svg version="1.1" id="Capa_1" xmlns="http://www.w3.org/2000/svg" xmlns:xlink="http://www.w3.org/1999/xlink" x="0px" y="0px"
	 viewBox="0 0 433.7 201" style="enable-background:new 0 0 433.7 201;" xml:space="preserve">
<style type="text/css">
	.st0{enable-background:new    ;}
	.st1{fill:#FFFFFF;}
	.st2{fill:none;}
</style>
<g id="Grupo_16" transform="translate(-2742.497 -34.626)">
	<g class="st0">
		<path class="st1" d="M2792.5,173.8c-0.8-0.8-1.2-1.8-1.2-3.1c0-1.3,0.4-2.3,1.2-3.1c0.8-0.8,1.8-1.2,3.1-1.2
			c1.2,0,2.2,0.4,3.1,1.2c0.8,0.8,1.2,1.8,1.2,3.1c0,1.2-0.4,2.2-1.2,3.1c-0.8,0.8-1.8,1.2-3.1,1.2
			C2794.3,175,2793.3,174.6,2792.5,173.8z M2792.6,219.8v-37.1c0-0.5,0.3-0.8,0.8-0.8h3.9c0.5,0,0.8,0.3,0.8,0.8v37.1
			c0,0.5-0.3,0.8-0.8,0.8h-3.9C2792.9,220.6,2792.6,220.3,2792.6,219.8z"/>
		<path class="st1" d="M2859.5,184.9c2.2,2.3,3.3,5.4,3.3,9.4v25.6c0,0.5-0.3,0.8-0.8,0.8h-3.8c-0.5,0-0.8-0.3-0.8-0.8v-24.5
			c0-2.8-0.8-5-2.4-6.7c-1.6-1.7-3.7-2.5-6.3-2.5c-2.7,0-4.9,0.8-6.5,2.4c-1.7,1.6-2.5,3.8-2.5,6.6v24.7c0,0.5-0.3,0.8-0.8,0.8h-3.9
			c-0.5,0-0.8-0.3-0.8-0.8v-24.5c0-2.8-0.8-5-2.4-6.7c-1.6-1.7-3.7-2.5-6.3-2.5c-2.7,0-4.8,0.8-6.5,2.4c-1.6,1.6-2.4,3.8-2.4,6.6
			v24.7c0,0.5-0.3,0.8-0.8,0.8h-3.9c-0.5,0-0.8-0.3-0.8-0.8v-37.1c0-0.5,0.3-0.8,0.8-0.8h3.9c0.5,0,0.8,0.3,0.8,0.8v3.1
			c0,0.1,0,0.2,0.1,0.2c0.1,0,0.2,0,0.3-0.1c1.1-1.5,2.6-2.6,4.3-3.3c1.8-0.7,3.7-1.1,5.8-1.1c2.6,0,4.9,0.5,6.8,1.6
			c1.9,1.1,3.3,2.6,4.3,4.7c0.1,0.3,0.2,0.3,0.4,0c1.1-2.1,2.7-3.7,4.7-4.7c2-1,4.4-1.6,6.9-1.6
			C2854.2,181.5,2857.2,182.6,2859.5,184.9z"/>
		<path class="st1" d="M2905.6,201.3c0,4.1-0.3,7.2-1,9.5c-0.9,3.3-2.6,5.8-5,7.7c-2.4,1.9-5.5,2.8-9.1,2.8c-2,0-3.8-0.4-5.5-1.2
			c-1.7-0.8-3.1-1.9-4.2-3.4c-0.1-0.1-0.2-0.1-0.3-0.1c-0.1,0-0.1,0.1-0.1,0.2v17.9c0,0.5-0.3,0.8-0.8,0.8h-3.9
			c-0.5,0-0.8-0.3-0.8-0.8v-51.9c0-0.5,0.3-0.8,0.8-0.8h3.9c0.5,0,0.8,0.3,0.8,0.8v3.2c0,0.1,0,0.2,0.1,0.2c0.1,0,0.2,0,0.3-0.1
			c1.1-1.5,2.5-2.6,4.2-3.4c1.7-0.8,3.5-1.2,5.5-1.2c3.6,0,6.6,0.9,9,2.7c2.4,1.8,4.1,4.3,5,7.5
			C2905.2,194.1,2905.6,197.3,2905.6,201.3z M2899.7,207.2c0.3-1.4,0.4-3.3,0.4-5.8c0-2.4-0.1-4.3-0.3-5.6c-0.2-1.3-0.6-2.6-1.1-3.6
			c-0.6-1.8-1.7-3.3-3.2-4.4c-1.6-1.1-3.4-1.6-5.5-1.6c-2,0-3.7,0.5-5.1,1.6c-1.4,1.1-2.4,2.5-3.1,4.3c-0.5,1-0.8,2.2-1,3.6
			c-0.2,1.4-0.3,3.3-0.3,5.7s0.1,4.4,0.3,5.8c0.2,1.4,0.6,2.6,1.1,3.7c0.6,1.7,1.6,3.1,3,4.2c1.4,1,3.1,1.6,5,1.6
			c2,0,3.8-0.5,5.3-1.5c1.5-1,2.6-2.4,3.2-4C2899,209.8,2899.4,208.6,2899.7,207.2z"/>
		<path class="st1" d="M2946,200.2v2.4c0,0.5-0.3,0.8-0.8,0.8h-24.7c-0.2,0-0.3,0.1-0.3,0.3c0.1,2.8,0.3,4.6,0.5,5.4
			c0.6,2.3,1.8,4.1,3.6,5.4c1.8,1.3,4.2,2,7,2c2.1,0,4-0.5,5.6-1.5c1.6-1,2.9-2.3,3.8-4.1c0.3-0.5,0.7-0.6,1.1-0.3l3,1.8
			c0.4,0.3,0.5,0.6,0.3,1.1c-1.3,2.4-3.2,4.4-5.7,5.8c-2.5,1.4-5.5,2.1-8.8,2.1c-3.6-0.1-6.6-0.9-9.1-2.6c-2.4-1.7-4.2-4-5.3-7
			c-0.9-2.4-1.4-6-1.4-10.5c0-2.1,0-3.9,0.1-5.2c0.1-1.3,0.3-2.6,0.6-3.6c0.9-3.3,2.6-6,5.2-7.9c2.6-2,5.8-3,9.5-3
			c4.6,0,8.2,1.2,10.7,3.5c2.5,2.3,4,5.7,4.7,9.9C2945.9,196.3,2946,198,2946,200.2z M2924.1,188.1c-1.7,1.3-2.7,3-3.2,5.2
			c-0.3,1.1-0.5,2.8-0.6,5.2c0,0.2,0.1,0.3,0.3,0.3h19.8c0.2,0,0.3-0.1,0.3-0.3c-0.1-2.3-0.3-3.9-0.5-4.9c-0.6-2.3-1.7-4.1-3.4-5.5
			c-1.7-1.3-3.9-2-6.5-2C2927.9,186.1,2925.8,186.8,2924.1,188.1z"/>
		<path class="st1" d="M2976.7,182.6c0.4,0.2,0.6,0.5,0.5,1l-0.8,3.7c-0.2,0.5-0.5,0.7-1,0.5c-0.9-0.4-1.9-0.5-3-0.5l-1,0.1
			c-2.6,0.1-4.8,1.1-6.6,2.9c-1.7,1.9-2.6,4.2-2.6,7.1v22.5c0,0.5-0.3,0.8-0.8,0.8h-3.9c-0.5,0-0.8-0.3-0.8-0.8v-37.1
			c0-0.5,0.3-0.8,0.8-0.8h3.9c0.5,0,0.8,0.3,0.8,0.8v4.7c0,0.2,0,0.2,0.1,0.3c0.1,0,0.1,0,0.2-0.1c1.1-1.9,2.4-3.3,4.1-4.4
			c1.7-1,3.6-1.6,5.8-1.6C2974,181.6,2975.5,182,2976.7,182.6z"/>
		<path class="st1" d="M3008.9,167.2h3.9c0.5,0,0.8,0.3,0.8,0.8v51.9c0,0.5-0.3,0.8-0.8,0.8h-3.9c-0.5,0-0.8-0.3-0.8-0.8v-3.2
			c0-0.1,0-0.2-0.1-0.2c-0.1,0-0.2,0-0.3,0.1c-1.1,1.5-2.5,2.6-4.2,3.4c-1.7,0.8-3.5,1.2-5.5,1.2c-3.6,0-6.6-0.9-9-2.7
			c-2.4-1.8-4.1-4.3-5-7.5c-0.7-2.3-1.1-5.5-1.1-9.7c0-4.2,0.3-7.4,0.9-9.5c0.9-3.3,2.6-5.8,5-7.7c2.4-1.9,5.5-2.8,9.1-2.8
			c2,0,3.8,0.4,5.5,1.2s3.1,1.9,4.2,3.4c0.1,0.1,0.2,0.1,0.3,0.1c0.1,0,0.1-0.1,0.1-0.2V168C3008.2,167.5,3008.4,167.2,3008.9,167.2
			z M3007.8,207.1c0.2-1.4,0.3-3.3,0.3-5.7s-0.1-4.4-0.3-5.8c-0.2-1.4-0.6-2.6-1.1-3.7c-0.6-1.7-1.6-3.1-3-4.2c-1.4-1-3.1-1.6-5-1.6
			c-2,0-3.8,0.5-5.3,1.5c-1.5,1-2.5,2.4-3.2,4c-0.6,1.1-1.1,2.4-1.3,3.8c-0.3,1.4-0.4,3.3-0.4,5.8c0,2.4,0.1,4.3,0.3,5.6
			c0.2,1.3,0.6,2.6,1.1,3.6c0.6,1.8,1.7,3.3,3.2,4.4c1.6,1.1,3.4,1.6,5.5,1.6c2,0,3.7-0.5,5.1-1.6c1.4-1.1,2.4-2.5,3.1-4.3
			C3007.2,209.6,3007.6,208.4,3007.8,207.1z"/>
		<path class="st1" d="M3026.5,173.8c-0.8-0.8-1.2-1.8-1.2-3.1c0-1.3,0.4-2.3,1.2-3.1c0.8-0.8,1.8-1.2,3.1-1.2
			c1.2,0,2.2,0.4,3.1,1.2c0.8,0.8,1.2,1.8,1.2,3.1c0,1.2-0.4,2.2-1.2,3.1c-0.8,0.8-1.8,1.2-3.1,1.2
			C3028.3,175,3027.3,174.6,3026.5,173.8z M3026.6,219.8v-37.1c0-0.5,0.3-0.8,0.8-0.8h3.9c0.5,0,0.8,0.3,0.8,0.8v37.1
			c0,0.5-0.3,0.8-0.8,0.8h-3.9C3026.9,220.6,3026.6,220.3,3026.6,219.8z"/>
		<path class="st1" d="M3075.9,201.3c0,4.2-0.4,7.4-1.1,9.7c-1,3.2-2.6,5.7-5,7.5s-5.4,2.7-8.9,2.7c-2,0-3.9-0.4-5.6-1.2
			c-1.7-0.8-3.1-2-4.2-3.5c-0.1-0.1-0.1-0.1-0.2-0.1c-0.1,0-0.2,0.1-0.2,0.2v3.3c0,0.5-0.3,0.8-0.8,0.8h-3.9c-0.5,0-0.8-0.3-0.8-0.8
			V168c0-0.5,0.3-0.8,0.8-0.8h3.9c0.5,0,0.8,0.3,0.8,0.8v18c0,0.1,0,0.2,0.1,0.2c0.1,0,0.2,0,0.3-0.1c1.1-1.5,2.5-2.6,4.2-3.4
			c1.7-0.8,3.5-1.2,5.6-1.2c3.6,0,6.6,0.9,9.1,2.8c2.4,1.9,4.1,4.4,5,7.7C3075.6,194.2,3075.9,197.3,3075.9,201.3z M3070.2,206.9
			c0.2-1.3,0.3-3.2,0.3-5.6c0-2.5-0.1-4.4-0.4-5.8c-0.3-1.4-0.7-2.7-1.3-3.8c-0.7-1.7-1.7-3-3.2-4c-1.5-1-3.2-1.5-5.3-1.5
			c-1.9,0-3.6,0.5-5,1.6c-1.4,1-2.4,2.4-3,4.2c-0.5,1.1-0.9,2.3-1.1,3.7c-0.2,1.4-0.3,3.3-0.3,5.8c0,2.4,0.1,4.3,0.3,5.7
			c0.2,1.3,0.6,2.6,1,3.6c0.7,1.8,1.7,3.2,3.1,4.3c1.4,1.1,3.1,1.6,5.1,1.6c2.1,0,4-0.5,5.5-1.6c1.6-1.1,2.6-2.5,3.2-4.4
			C3069.7,209.5,3070,208.3,3070.2,206.9z"/>
		<path class="st1" d="M3087,219.9V168c0-0.5,0.3-0.8,0.8-0.8h3.9c0.5,0,0.8,0.3,0.8,0.8v51.9c0,0.5-0.3,0.8-0.8,0.8h-3.9
			C3087.3,220.6,3087,220.4,3087,219.9z"/>
		<path class="st1" d="M3134.5,200.2v2.4c0,0.5-0.3,0.8-0.8,0.8h-24.7c-0.2,0-0.3,0.1-0.3,0.3c0.1,2.8,0.3,4.6,0.5,5.4
			c0.6,2.3,1.8,4.1,3.6,5.4c1.8,1.3,4.2,2,7,2c2.1,0,4-0.5,5.6-1.5s2.9-2.3,3.8-4.1c0.3-0.5,0.7-0.6,1.1-0.3l3,1.8
			c0.4,0.3,0.5,0.6,0.3,1.1c-1.3,2.4-3.2,4.4-5.7,5.8c-2.5,1.4-5.5,2.1-8.8,2.1c-3.6-0.1-6.6-0.9-9.1-2.6s-4.2-4-5.3-7
			c-0.9-2.4-1.4-6-1.4-10.5c0-2.1,0-3.9,0.1-5.2c0.1-1.3,0.3-2.6,0.6-3.6c0.9-3.3,2.6-6,5.2-7.9c2.6-2,5.8-3,9.5-3
			c4.6,0,8.2,1.2,10.7,3.5c2.5,2.3,4,5.7,4.7,9.9C3134.4,196.3,3134.5,198,3134.5,200.2z M3112.6,188.1c-1.7,1.3-2.7,3-3.2,5.2
			c-0.3,1.1-0.5,2.8-0.6,5.2c0,0.2,0.1,0.3,0.3,0.3h19.8c0.2,0,0.3-0.1,0.3-0.3c-0.1-2.3-0.3-3.9-0.5-4.9c-0.6-2.3-1.7-4.1-3.4-5.5
			c-1.7-1.3-3.9-2-6.5-2C3116.4,186.1,3114.3,186.8,3112.6,188.1z"/>
		<path class="st1" d="M3149.7,219.7c-2.2-0.9-3.9-2.1-5.1-3.7c-1.2-1.5-1.8-3.2-1.8-5.1V210c0-0.5,0.3-0.8,0.8-0.8h3.7
			c0.5,0,0.8,0.3,0.8,0.8v0.6c0,1.7,0.9,3.1,2.6,4.4c1.8,1.2,4,1.9,6.6,1.9c2.6,0,4.8-0.6,6.4-1.8c1.6-1.2,2.4-2.7,2.4-4.5
			c0-1.3-0.4-2.3-1.3-3.1c-0.8-0.8-1.8-1.5-3-1.9c-1.1-0.5-2.9-1-5.3-1.8c-2.9-0.8-5.2-1.6-7-2.4c-1.8-0.8-3.4-1.9-4.6-3.4
			c-1.2-1.5-1.9-3.3-1.9-5.5c0-3.3,1.3-5.9,3.8-7.8c2.5-1.9,5.9-2.9,10.1-2.9c2.8,0,5.3,0.5,7.4,1.4c2.2,0.9,3.8,2.2,5,3.8
			c1.2,1.6,1.8,3.4,1.8,5.4v0.2c0,0.5-0.3,0.8-0.8,0.8h-3.6c-0.5,0-0.8-0.3-0.8-0.8v-0.2c0-1.7-0.8-3.2-2.5-4.4
			c-1.7-1.2-3.9-1.8-6.7-1.8c-2.6,0-4.7,0.5-6.3,1.6c-1.6,1-2.4,2.5-2.4,4.3c0,1.7,0.8,3.1,2.3,4c1.5,0.9,3.9,1.8,7.1,2.7
			c3,0.9,5.3,1.7,7.2,2.4c1.8,0.8,3.4,1.9,4.7,3.3c1.3,1.5,2,3.3,2,5.7c0,3.3-1.3,6-3.9,7.9s-6,3-10.3,3
			C3154.4,221,3151.9,220.6,3149.7,219.7z"/>
	</g>
	<g class="st0">
		<path class="st1" d="M2906.1,89.4c0.3,0.3,0.4,0.6,0.4,1V103c0,0.4-0.1,0.7-0.4,1c-0.3,0.3-0.6,0.4-1,0.4h-10.6
			c-0.4,0-0.6,0.2-0.6,0.6v41.3c0,0.4-0.1,0.7-0.4,1c-0.3,0.3-0.6,0.4-1,0.4h-16.1c-0.4,0-0.7-0.1-1-0.4c-0.3-0.3-0.4-0.6-0.4-1V105
			c0-0.4-0.2-0.6-0.6-0.6h-6.3c-0.4,0-0.7-0.1-1-0.4c-0.3-0.3-0.4-0.6-0.4-1V90.3c0-0.4,0.1-0.7,0.4-1c0.3-0.3,0.6-0.4,1-0.4h6.3
			c0.4,0,0.6-0.2,0.6-0.6v-3.1c0-4.5,0.8-7.9,2.4-10.5c1.6-2.5,4.1-4.3,7.6-5.3c3.5-1,8.2-1.4,14.1-1.2h4.6c0.4,0,0.7,0.1,1,0.4
			c0.3,0.3,0.4,0.6,0.4,1V80c0,0.4-0.1,0.7-0.4,1c-0.3,0.3-0.6,0.4-1,0.4h-4.4c-2,0.2-3.5,0.6-4.3,1.5c-0.8,0.8-1.2,2.2-1.2,4.2v1.4
			c0,0.4,0.2,0.6,0.6,0.6h10.6C2905.5,89,2905.8,89.1,2906.1,89.4z"/>
		<path class="st1" d="M2965.8,122.2c-0.1,0.9-0.6,1.4-1.5,1.4h-34.5c-0.2,0-0.3,0.1-0.5,0.2c-0.2,0.1-0.2,0.2-0.1,0.4
			c0.2,0.8,0.5,1.9,1.1,3.3c0.9,1.6,2.3,2.9,4.1,3.8c1.8,1,4,1.5,6.7,1.5c4.8,0,8.5-1.5,11.2-4.6c0.3-0.4,0.6-0.6,1-0.6
			c0.4,0,0.7,0.2,0.9,0.5l8.7,10c0.3,0.2,0.5,0.5,0.5,0.9c0,0.3-0.2,0.6-0.5,0.9c-2.6,2.9-5.9,5.1-9.8,6.6
			c-3.9,1.5-8.1,2.3-12.7,2.3c-6.9,0-12.7-1.5-17.5-4.5c-4.8-3-8.2-7.1-10.4-12.5c-1.6-3.8-2.4-8.5-2.4-14.1c0-3.9,0.6-7.7,1.8-11.3
			c2-5.6,5.2-10,9.7-13.2c4.5-3.2,9.8-4.8,16-4.8c5,0,9.4,1.1,13.4,3.2c3.9,2.2,7.1,5.1,9.6,8.9c2.5,3.8,4.1,8.1,4.8,13
			C2965.8,115.5,2965.9,118.5,2965.8,122.2z M2929.9,109.8c-0.3,0.8-0.5,1.6-0.6,2.4c-0.2,0.4,0,0.6,0.5,0.6h16.1
			c0.3,0,0.5-0.2,0.5-0.5c0-0.6-0.2-1.4-0.5-2.3c-0.5-1.9-1.5-3.3-2.9-4.3c-1.4-1-3.2-1.5-5.3-1.5
			C2933.8,104.3,2931.2,106.1,2929.9,109.8z"/>
		<path class="st1" d="M3010.9,89.8c0.6,0.4,0.8,0.9,0.7,1.7l-2.6,15.7c-0.1,0.9-0.6,1.2-1.6,0.8c-1.4-0.3-2.6-0.5-3.8-0.5
			c-1.3,0-2.3,0.1-2.9,0.2c-2.3,0.3-4.3,1.2-5.9,2.7c-1.6,1.5-2.4,3.5-2.4,6v29.8c0,0.4-0.1,0.7-0.4,1c-0.3,0.3-0.6,0.4-1,0.4h-16.1
			c-0.4,0-0.7-0.1-1-0.4c-0.3-0.3-0.4-0.6-0.4-1V90.5c0-0.4,0.1-0.7,0.4-1c0.3-0.3,0.6-0.4,1-0.4h16.1c0.4,0,0.7,0.1,1,0.4
			c0.3,0.3,0.4,0.6,0.4,1v3.6c0,0.2,0.1,0.4,0.2,0.5c0.2,0.1,0.3,0,0.3-0.2c3-4,6.9-6,11.8-6C3007.3,88.3,3009.4,88.8,3010.9,89.8z"
			/>
		<path class="st1" d="M3053.7,103.8c-0.3,0.3-0.6,0.4-1,0.4h-10.3c-0.4,0-0.6,0.2-0.6,0.6v20.6c0,4.3,1.7,6.5,5.2,6.5h4.2
			c0.4,0,0.7,0.1,1,0.4c0.3,0.3,0.4,0.6,0.4,1v13.1c0,0.8-0.5,1.3-1.4,1.5c-3.6,0.2-6.3,0.2-7.9,0.2c-6.6,0-11.4-1-14.6-3.1
			c-3.2-2.1-4.8-6-4.9-11.8v-28.3c0-0.4-0.2-0.6-0.6-0.6h-6.5c-0.4,0-0.7-0.1-1-0.4c-0.3-0.3-0.4-0.6-0.4-1V90.5
			c0-0.4,0.1-0.7,0.4-1c0.3-0.3,0.6-0.4,1-0.4h6.5c0.4,0,0.6-0.2,0.6-0.6V74.8c0-0.4,0.1-0.7,0.4-1c0.3-0.3,0.6-0.4,1-0.4h15.3
			c0.4,0,0.7,0.1,1,0.4c0.3,0.3,0.4,0.6,0.4,1v13.7c0,0.4,0.2,0.6,0.6,0.6h10.3c0.4,0,0.7,0.1,1,0.4c0.3,0.3,0.4,0.6,0.4,1v12.3
			C3054.1,103.2,3053.9,103.5,3053.7,103.8z"/>
		<path class="st1" d="M3099.8,90.7c4.1,1.7,7.3,4,9.6,7c2.3,3,3.5,6.3,3.5,9.9v38.6c0,0.4-0.1,0.7-0.4,1c-0.3,0.3-0.6,0.4-1,0.4
			h-16.1c-0.4,0-0.7-0.1-1-0.4c-0.3-0.3-0.4-0.6-0.4-1v-4c0-0.3-0.1-0.5-0.2-0.5c-0.2,0-0.3,0.1-0.5,0.4c-2.9,4.2-7.8,6.3-14.7,6.3
			c-6,0-10.8-1.4-14.4-4.2c-3.6-2.8-5.4-7-5.4-12.5c0-5.8,2-10.3,6.1-13.5c4-3.2,9.9-4.8,17.6-4.8h11c0.4,0,0.6-0.2,0.6-0.6v-2.2
			c0-2-0.7-3.6-2-4.8c-1.4-1.2-3.2-1.8-5.7-1.8c-1.8,0-3.4,0.3-4.7,1c-1.3,0.7-2.2,1.5-2.5,2.6c-0.4,0.8-0.9,1.2-1.6,1.1l-16.3-2.2
			c-0.9-0.2-1.4-0.5-1.4-1c0.3-3.3,1.6-6.3,3.9-9c2.3-2.7,5.4-4.8,9.3-6.3c3.9-1.5,8.2-2.3,13-2.3
			C3091.2,88.2,3095.7,89,3099.8,90.7z M3091.4,132.9c1.8-1.5,2.8-3.4,2.8-5.8v-2.7c0-0.4-0.2-0.6-0.6-0.6h-6.8
			c-2.9,0-5.1,0.5-6.6,1.5c-1.5,1-2.3,2.5-2.3,4.4c0,1.7,0.6,3,1.7,4c1.1,1,2.7,1.5,4.8,1.5C3087.2,135.1,3089.5,134.3,3091.4,132.9
			z"/>
		<path class="st1" d="M3133.1,146.3c-4-1.5-7.1-3.5-9.2-6.2c-2.2-2.7-3.2-5.8-3.2-9.2v-1.2c0-0.4,0.1-0.7,0.4-1
			c0.3-0.3,0.6-0.4,1-0.4h15.3c0.4,0,0.7,0.1,1,0.4c0.3,0.3,0.4,0.6,0.4,1c0,1.4,0.8,2.6,2.4,3.6c1.6,0.9,3.6,1.4,6,1.4
			c2.1,0,3.8-0.4,5-1.1c1.2-0.7,1.9-1.7,1.9-2.9c0-1.2-0.7-2.1-2-2.7c-1.3-0.6-3.5-1.1-6.4-1.6c-4.8-0.9-8.6-2-11.5-3.3
			c-3.8-1.6-6.9-3.6-9.2-5.9c-2.3-2.4-3.4-5.6-3.4-9.8c0-5.9,2.3-10.5,6.8-14c4.6-3.4,10.6-5.2,18.1-5.2c5.1,0,9.5,0.8,13.3,2.4
			c3.8,1.6,6.8,3.9,8.9,6.8c2.1,2.9,3.2,6.3,3.2,10.2c0,0.4-0.1,0.7-0.4,1c-0.3,0.3-0.6,0.4-1,0.4h-14.8c-0.4,0-0.7-0.1-1-0.4
			c-0.3-0.3-0.4-0.6-0.4-1c0-1.4-0.7-2.6-2-3.5s-3.2-1.4-5.5-1.4c-2.1,0-3.8,0.4-5.2,1.1c-1.3,0.7-2,1.7-2,3c0,1.3,0.7,2.2,2.2,2.8
			c1.4,0.6,3.8,1.2,7.2,1.9c4.4,0.9,7.4,1.6,9.2,2.2c4.7,1.5,8.3,3.5,10.9,6.1c2.6,2.6,3.9,6,3.9,10.3c0,5.9-2.3,10.4-7,13.6
			c-4.6,3.2-10.9,4.8-18.7,4.8C3141.8,148.5,3137.1,147.8,3133.1,146.3z"/>
	</g>
	<g id="Grupo_14">
		<path id="Trazado_37" class="st1" d="M2818.9,80.9c16.5,0,29.8,13.3,29.8,29.8s-13.3,29.8-29.8,29.8c-16.5,0-29.8-13.3-29.8-29.8
			c0-7.9,3.1-15.5,8.7-21.1C2803.4,84,2811,80.9,2818.9,80.9 M2818.9,64.9c-25.3,0-45.9,20.5-45.9,45.9c0,25.3,20.5,45.9,45.9,45.9
			c25.3,0,45.9-20.5,45.9-45.9c0-12.2-4.8-23.8-13.4-32.4C2842.7,69.7,2831.1,64.8,2818.9,64.9z"/>
		<g id="Trazado_38">
			<path class="st2" d="M2784.8,128.7l-39.1,39.1c-4.3,4.3-4.3,11.3,0,15.6l0,0c4.3,4.3,11.3,4.3,15.6,0l39.1-39.1L2784.8,128.7z"/>
			<path class="st1" d="M2784.8,128.7l15.6,15.6l-39.1,39.1c-2.1,2.1-5,3.2-7.8,3.2s-5.7-1.1-7.8-3.2c-4.3-4.3-4.3-11.3,0-15.6
				L2784.8,128.7z"/>
		</g>
	</g>
	<g id="Grupo_15">
		<path id="Trazado_39" class="st1" d="M2800.5,114.1c-1.8,0-3.3-1.5-3.3-3.3c0-13.1,10.6-23.8,23.8-23.8c1.9,0,3.4,1.5,3.4,3.3
			s-1.5,3.3-3.4,3.3c-9.4,0-17.1,7.7-17.1,17.1C2803.8,112.6,2802.3,114.1,2800.5,114.1z"/>
	</g>
</g>
</svg>
