<svg xmlns="http://www.w3.org/2000/svg" width="48.89" height="48.891" viewBox="0 0 48.89 48.891">
  <g id="Grupo_4" data-name="Grupo 4" transform="translate(0.016 0.017)">
    <path id="Trazado_15" data-name="Trazado 15" d="M48.856,19.634v9.93a1.716,1.716,0,0,1-1.941,1.942H31.963a.6.6,0,0,0-.685.5.568.568,0,0,0,0,.184V46.915a1.716,1.716,0,0,1-1.941,1.941H19.52A1.714,1.714,0,0,1,17.58,47.4a1.734,1.734,0,0,1,0-.488V32.191a.6.6,0,0,0-.513-.685.619.619,0,0,0-.172,0H1.941A1.716,1.716,0,0,1,0,29.564v-9.93a1.714,1.714,0,0,1,1.94-1.94H16.9a.606.606,0,0,0,.685-.685V1.94A1.714,1.714,0,0,1,19.52,0h9.817a1.717,1.717,0,0,1,1.941,1.457,1.7,1.7,0,0,1,0,.483V17.009a.6.6,0,0,0,.513.685.619.619,0,0,0,.172,0H46.916a1.715,1.715,0,0,1,1.94,1.94Z" fill="#fd3d08"/>
  </g>
</svg>
