<svg id="_003-preview" data-name="003-preview" xmlns="http://www.w3.org/2000/svg" width="22" height="23.336" viewBox="0 0 22 23.336">
  <g id="Grupo_4" data-name="Grupo 4" transform="translate(0)">
    <g id="Grupo_3" data-name="Grupo 3">
      <path id="Trazado_3" data-name="Trazado 3" d="M35.946,20.854l-4.723-4.723a4.941,4.941,0,0,0-1.649-6.436V4.3a.465.465,0,0,0-.136-.329L25.6.136A.465.465,0,0,0,25.273,0H14.836a.465.465,0,0,0-.465.465V20.349a.465.465,0,0,0,.465.465H29.109a.465.465,0,0,0,.465-.465V18.6l4.315,4.315a1.454,1.454,0,0,0,2.057-2.056ZM27.987,3.837H25.738V1.587l1.125,1.125Zm.657,14.59v1.458H15.3V.93h9.507V4.3a.465.465,0,0,0,.465.465h3.372V9.213h0a4.941,4.941,0,1,0,0,9.212Zm.35-1.213-.12.073a4.011,4.011,0,1,1,1.374-1.327A4.056,4.056,0,0,1,28.995,17.213Zm6.294,5.039a.524.524,0,0,1-.742,0l-4.588-4.588h0a5.016,5.016,0,0,0,.742-.742h0l4.589,4.589A.525.525,0,0,1,35.288,22.253Z" transform="translate(-14.371 0)"/>
      <path id="Trazado_4" data-name="Trazado 4" d="M215.319,236.988a3.008,3.008,0,0,0-1.445,2.581.438.438,0,1,0,.877,0,2.138,2.138,0,0,1,1.027-1.834.438.438,0,0,0-.459-.747Z" transform="translate(-204.54 -225.807)"/>
      <path id="Trazado_5" data-name="Trazado 5" d="M274.89,228.644a3.025,3.025,0,0,0-1.524-.412.438.438,0,0,0,0,.877,2.148,2.148,0,0,1,1.082.292.438.438,0,0,0,.442-.757Z" transform="translate(-260.827 -217.586)"/>
    </g>
  </g>
</svg>
