<svg xmlns="http://www.w3.org/2000/svg" width="40" height="38.241" viewBox="0 0 40 38.241">
  <g id="sign_·_ecommerce_·_shopping_·_tag_·_sale" data-name="sign · ecommerce · shopping · tag · sale" transform="translate(-1.836 -4.645)">
    <path id="Trazado_1095" data-name="Trazado 1095" d="M20.233,42.146a2.2,2.2,0,0,0-3.115,0l-1.038,1.038a.734.734,0,0,1-1.039,0L14,42.146a.734.734,0,0,1,0-1.039l2.076-2.076a.734.734,0,1,0-1.038-1.038L12.966,40.07a2.2,2.2,0,0,0,0,3.115L14,44.222a2.2,2.2,0,0,0,3.115,0l1.038-1.038a.734.734,0,0,1,1.039,0l1.038,1.037a.734.734,0,0,1,0,1.039l-2.076,2.077A.734.734,0,1,0,19.2,48.375L21.272,46.3a2.2,2.2,0,0,0,0-3.115Z" transform="translate(-3.716 -11.894)" fill="#0257f3"/>
    <path id="Trazado_1096" data-name="Trazado 1096" d="M30.915,35.9l-7.786-4.671a.734.734,0,0,0-.9.11l-1.039,1.039a.734.734,0,0,0-.11.9l4.671,7.786a.734.734,0,1,0,1.259-.756l-1.263-2.1,2.3-2.3,2.1,1.263a.734.734,0,0,0,.756-1.259Zm-5.942,1-2.336-3.89.228-.228,3.89,2.336Z" transform="translate(-6.819 -9.464)" fill="#0257f3"/>
    <path id="Trazado_1097" data-name="Trazado 1097" d="M37.194,29.208l-2.6,2.6-5.709-5.709a.734.734,0,1,0-1.038,1.038l6.228,6.228a.734.734,0,0,0,1.038,0l3.115-3.115a.734.734,0,1,0-1.038-1.038Z" transform="translate(-9.226 -7.444)" fill="#0257f3"/>
    <path id="Trazado_1098" data-name="Trazado 1098" d="M44.039,21.422,41.963,23.5l-2.076-2.077,1.038-1.038a.734.734,0,1,0-1.038-1.038l-1.038,1.038-2.077-2.076,2.077-2.077a.734.734,0,1,0-1.038-1.038l-2.6,2.6a.734.734,0,0,0,0,1.038l6.228,6.228a.734.734,0,0,0,1.038,0l2.6-2.6a.734.734,0,1,0-1.038-1.038Z" transform="translate(-11.813 -3.694)" fill="#0257f3"/>
    <path id="Trazado_1099" data-name="Trazado 1099" d="M39.35,13.278l.739-4.807a3.324,3.324,0,0,0-3.776-3.79L26.075,6.211A6.019,6.019,0,0,0,22.727,7.9L2.809,27.808a3.324,3.324,0,0,0,0,4.7l9.4,9.4a3.324,3.324,0,0,0,4.7,0l10.9-10.9c1.14,5.573,3.705,9.108,6.7,9.108,4.1,0,7.313-6.715,7.313-15.291A24.927,24.927,0,0,0,39.35,13.278ZM15.973,40.972a2.042,2.042,0,0,1-2.821,0l-9.4-9.4a2,2,0,0,1,0-2.821L23.665,8.834a4.686,4.686,0,0,1,2.6-1.312L36.508,5.993a1.994,1.994,0,0,1,2.27,2.278l-.515,3.352a6.848,6.848,0,0,0-1.294-1.236,2.64,2.64,0,0,0-.777-1.853,2.726,2.726,0,0,0-3.761,0,2.659,2.659,0,1,0,4.153,3.246,7.424,7.424,0,0,1,1.386,1.748l-.759,4.936a4.624,4.624,0,0,1-1.31,2.583ZM34.522,10.865a2.526,2.526,0,0,1,.945.19,1.346,1.346,0,1,1-.072-1.4,3.737,3.737,0,0,0-.872-.117.665.665,0,1,0,0,1.33Zm0,27.923c-2.4,0-4.665-3.657-5.561-8.924l7.876-7.877a5.94,5.94,0,0,0,1.683-3.324l.465-3.007a26.1,26.1,0,0,1,1.52,9.17C40.506,32.394,37.765,38.788,34.522,38.788Z" transform="translate(0 0)" fill="#0257f3"/>
  </g>
</svg>
