<svg id="_002-shop" data-name="002-shop" xmlns="http://www.w3.org/2000/svg" width="50.485" height="41" viewBox="0 0 50.485 41">
  <g id="Grupo_1845" data-name="Grupo 1845" transform="translate(0 0)">
    <g id="Grupo_1844" data-name="Grupo 1844">
      <path id="Trazado_637" data-name="Trazado 637" d="M48.165,87.617h-.841V65.677A6.864,6.864,0,0,0,50.485,59.9a.74.74,0,0,0-.1-.367L44.519,49.265A2.326,2.326,0,0,0,42.5,48.1H7.98a2.326,2.326,0,0,0-2.015,1.169L.1,59.534A.74.74,0,0,0,0,59.9a6.864,6.864,0,0,0,3.162,5.776v21.94H2.32a.74.74,0,1,0,0,1.479H48.165a.74.74,0,1,0,0-1.479ZM1.53,60.641H3.9a.74.74,0,0,0,0-1.479H2.014L7.25,50a.843.843,0,0,1,.73-.424H42.5a.843.843,0,0,1,.73.424l5.236,9.163H46.584a.74.74,0,0,0,0,1.479h2.371a5.386,5.386,0,0,1-10.669,0h5.137a.74.74,0,1,0,0-1.479H7.063a.74.74,0,0,0,0,1.479H12.2a5.386,5.386,0,0,1-10.669,0Zm35.172,0a5.385,5.385,0,0,1-10.668,0Zm-12.251,0a5.385,5.385,0,0,1-10.668,0ZM41.892,87.617H33.886V85.144h8.006Zm0-3.952H33.886V70.126h8.006Zm3.952,3.952H43.371V69.386a.739.739,0,0,0-.74-.74H33.147a.739.739,0,0,0-.74.74v18.23H4.641V66.395a6.858,6.858,0,0,0,8.35-3.4,6.864,6.864,0,0,0,12.251,0,6.864,6.864,0,0,0,12.251,0,6.859,6.859,0,0,0,8.35,3.4Z" transform="translate(0 -48.096)" fill="#4a4a4a"/>
    </g>
  </g>
  <g id="Grupo_1847" data-name="Grupo 1847" transform="translate(7.114 20.551)">
    <g id="Grupo_1846" data-name="Grupo 1846">
      <path id="Trazado_638" data-name="Trazado 638" d="M94.226,256.516H72.885a.74.74,0,0,0-.74.74v15.018a.74.74,0,0,0,.74.74H94.226a.739.739,0,0,0,.74-.74V257.255A.739.739,0,0,0,94.226,256.516Zm-.74,15.018H73.624V258H93.486Z" transform="translate(-72.145 -256.516)" fill="#4a4a4a"/>
    </g>
  </g>
</svg>
