<svg xmlns="http://www.w3.org/2000/svg" width="32" height="33.796" viewBox="0 0 32 33.796">
  <g id="bar-chart" transform="translate(-13.601)">
    <g id="Grupo_2142" data-name="Grupo 2142" transform="translate(13.601 9.68)">
      <g id="Grupo_2141" data-name="Grupo 2141">
        <path id="Trazado_1047" data-name="Trazado 1047" d="M44.941,169.449H43.493V148.428a1.776,1.776,0,0,0-1.774-1.774H38.483a1.776,1.776,0,0,0-1.774,1.774v21.021H33.032v-11.5a1.776,1.776,0,0,0-1.774-1.774H28.022a1.776,1.776,0,0,0-1.774,1.774v11.5H22.572V163.5a1.776,1.776,0,0,0-1.774-1.774H17.561a1.776,1.776,0,0,0-1.774,1.774v5.954H14.261a.66.66,0,1,0,0,1.32h30.68a.66.66,0,1,0,0-1.32Zm-23.69,0H17.107V163.5a.455.455,0,0,1,.454-.454H20.8a.455.455,0,0,1,.454.454Zm10.461,0H27.568v-11.5a.455.455,0,0,1,.454-.454h3.236a.455.455,0,0,1,.454.454Zm10.461,0H38.029V148.428a.455.455,0,0,1,.454-.454h3.236a.455.455,0,0,1,.454.454v21.021Z" transform="translate(-13.601 -146.654)" fill="#666"/>
      </g>
    </g>
    <g id="Grupo_2144" data-name="Grupo 2144" transform="translate(19.261)">
      <g id="Grupo_2143" data-name="Grupo 2143">
        <path id="Trazado_1048" data-name="Trazado 1048" d="M123.577.694A.658.658,0,0,0,122.885,0l-.032,0h-3.993a.66.66,0,1,0,0,1.32h2.466L114.8,7.845l-2.461-2.461a.66.66,0,0,0-.933,0L99.54,17.251a.66.66,0,0,0,.933.933l11.4-11.4,2.461,2.461a.66.66,0,0,0,.934,0l6.992-6.992V4.485a.66.66,0,0,0,1.32,0V.726C123.579.715,123.578.7,123.577.694Z" transform="translate(-99.346)" fill="#666"/>
      </g>
    </g>
    <g id="Grupo_2146" data-name="Grupo 2146" transform="translate(17.036 19.361)">
      <g id="Grupo_2145" data-name="Grupo 2145">
        <circle id="Elipse_39" data-name="Elipse 39" cx="0.66" cy="0.66" r="0.66" fill="#666"/>
      </g>
    </g>
  </g>
</svg>
