<?xml version="1.0" encoding="UTF-8"?>
<svg width="32px" height="24px" viewBox="0 0 32 24" version="1.1" xmlns="http://www.w3.org/2000/svg" xmlns:xlink="http://www.w3.org/1999/xlink">
    <title>BA8E3EED-B08B-4411-8E5F-45596B18BCD4</title>
    <g id="02.-UI-::" stroke="none" stroke-width="1" fill="none" fill-rule="evenodd">
        <g id="framework/Toolbar+sidenav/colapsed" transform="translate(-28.000000, -623.000000)" fill="#FFFFFF" fill-rule="nonzero">
            <g id="Sidenav/colapsed" transform="translate(0.000000, 64.000000)">
                <g id="Group-2-Copy-5" transform="translate(0.000000, 527.000000)">
                    <g id="Combined-Shape-2" transform="translate(28.000000, 32.000000)">
                        <path d="M16.5,19 C17.8807119,19 19,20.1192881 19,21.5 C19,22.8807119 17.8807119,24 16.5,24 C15.1192881,24 14,22.8807119 14,21.5 C14,20.1192881 15.1192881,19 16.5,19 Z M16.2557977,13.0011105 C18.6315955,12.9624704 20.9416697,13.9332127 22.7826512,15.7496635 C23.0679347,16.0310804 23.0729903,16.4925748 22.7942069,16.7805532 C22.5154236,17.0685316 22.0582477,17.073635 21.7729642,16.7922181 C20.210405,15.2506226 18.267227,14.4140272 16.2821593,14.4588643 C14.4068716,14.4938592 12.6182523,15.3155088 11.2456414,16.7732626 C11.1037219,16.9241778 10.9130514,17 10.7220197,17 C10.5436273,17 10.3645125,16.9336556 10.2247597,16.7995087 C9.93550392,16.5217372 9.92394813,16.0606073 10.1987592,15.7686191 C11.8396811,14.0261677 13.9908632,13.043396 16.2557977,13.0011105 Z M16.7541742,6.0011522 C20.9145053,6.0430438 24.838534,7.75426306 27.8047406,10.8193908 C28.0818487,11.1059435 28.0614458,11.5512618 27.7598543,11.8142284 C27.6174051,11.9384951 27.4374889,11.9997484 27.2583146,11.9997484 C27.0576245,11.9997484 26.8576764,11.9233578 26.7115176,11.7719848 C24.0264997,8.99622593 20.4845611,7.44694061 16.7385938,7.40892134 C12.8846768,7.37512643 9.16504775,8.92335566 6.27785588,11.7828977 C5.99444144,12.0638179 5.52480443,12.0733227 5.2287773,11.8043716 C4.93275018,11.5354204 4.92273422,11.0897501 5.20614866,10.8088299 C8.38009362,7.66555143 12.489232,5.94905172 16.7541742,6.0011522 Z M16.262656,0.000424741919 C22.1873602,0.0455134619 27.7056846,2.45085122 31.8007703,6.77209597 C32.0769048,7.06408179 32.0645351,7.52405946 31.7727566,7.80040968 C31.6319608,7.93349412 31.4522369,7.99967273 31.272513,7.99967273 C31.0796918,7.99967273 30.8872344,7.92367642 30.7446195,7.77313827 C26.924213,3.7409704 21.7773423,1.49744297 16.2517416,1.4552632 C16.1986248,1.45489958 16.1451442,1.45453596 16.0920274,1.45453596 C10.503487,1.45453596 5.23801303,3.69733616 1.24843329,7.78077427 C0.967569204,8.06803305 0.506981209,8.07385095 0.219204666,7.7931373 C-0.0682080639,7.51242366 -0.0736652677,7.05208237 0.206835004,6.76445997 C4.51366019,2.35631036 10.2142552,-0.0366643664 16.262656,0.000424741919 Z" id="Combined-Shape"></path>
                    </g>
                </g>
            </g>
        </g>
    </g>
</svg>