<?xml version="1.0" encoding="UTF-8"?>
<svg width="40px" height="31px" viewBox="0 0 40 31" version="1.1" xmlns="http://www.w3.org/2000/svg" xmlns:xlink="http://www.w3.org/1999/xlink">
    <title>583905E9-0289-49FE-B9F1-48B861F46E80</title>
    <g id="02.-UI-::" stroke="none" stroke-width="1" fill="none" fill-rule="evenodd">
        <g id="framework/Toolbar+sidenav/colapsed" transform="translate(-16.000000, -17.000000)" fill-rule="nonzero">
            <g id="logo-entel" transform="translate(16.000000, 17.000000)">
                <g id="Group_2" fill="#005CFF">
                    <path d="M7.29861429,17.4073191 C7.29861429,21.2064681 9.6365521,23.9850213 13.7989744,23.9850213 C17.0461102,23.9850213 18.6453246,23.0781277 20.5273104,21.2064681 L25.0320349,25.5720851 C22.0101691,28.5773617 19.1019531,30.221617 13.7421495,30.221617 C6.72901255,30.221617 0.000676486634,27.0461277 0.000676486634,15.0822128 C0.000676486634,5.4427234 5.24683033,-0.000680851064 12.9445717,-0.000680851064 C21.2125914,-0.000680851064 25.8877905,6.00987234 25.8877905,14.1181277 L25.8877905,17.4066383 L7.29861429,17.4073191 Z M17.9018658,9.18604255 C17.0320256,7.23490742 15.0635488,6.01913008 12.9411893,6.12221277 C10.8188299,6.01913008 8.85035299,7.23490742 7.98051282,9.18604255 C7.54047887,10.1867853 7.30754445,11.2672352 7.29590835,12.3615319 L18.5857938,12.3615319 C18.5744087,11.2672782 18.3417032,10.1868228 17.9018658,9.18604255 L17.9018658,9.18604255 Z" id="Path_2"></path>
                </g>
                <g id="Group_8" transform="translate(28.936170, 1.702128)" fill="#FF3D00">
                    <path d="M4.26234043,0 L0,4.24672746 C3.16011315,6.65175775 5.014123,10.3872381 5.014123,14.3492401 C5.014123,18.3112421 3.16011315,22.0467225 0,24.4517528 L4.26234043,28.6998582 C8.53025533,25.1468207 10.9968349,19.8908817 10.9968349,14.3495846 C10.9968349,8.80828751 8.53025533,3.55234853 4.26234043,-0.000688956434 L4.26234043,0 Z" id="Path_7"></path>
                </g>
            </g>
        </g>
    </g>
</svg>