<?xml version="1.0" encoding="UTF-8"?>
<svg width="24px" height="25px" viewBox="0 0 24 25" version="1.1" xmlns="http://www.w3.org/2000/svg" xmlns:xlink="http://www.w3.org/1999/xlink">
    <title>B6EA0A0E-0E5B-4659-AF8B-3793B30AA813</title>
    <g id="02.-UI-::" stroke="none" stroke-width="1" fill="none" fill-rule="evenodd">
        <g id="framework/Toolbar+sidenav/colapsed" transform="translate(-32.000000, -711.000000)" fill="#FFFFFF" fill-rule="nonzero">
            <g id="Sidenav/colapsed" transform="translate(0.000000, 64.000000)">
                <g id="Group-2-Copy-6" transform="translate(0.000000, 615.000000)">
                    <g id="noun_bar-chart_884017" transform="translate(32.000000, 32.000000)">
                        <path d="M23.4666667,22.9866667 L23.2,22.9866667 L23.2,6.37333333 L18.4,6.37333333 L18.4,22.9866667 L17.3333333,22.9866667 L17.3333333,10.1333333 L12.5333333,10.1333333 L12.5333333,22.9866667 L11.4666667,22.9866667 L11.4666667,13.8666667 L6.66666667,13.8666667 L6.66666667,22.9866667 L5.6,22.9866667 L5.6,17.6266667 L0.8,17.6266667 L0.8,22.9866667 L0.533333333,22.9866667 C0.24,22.9866667 0,23.2266667 0,23.52 C0,23.8133333 0.24,24.0533333 0.533333333,24.0533333 L0.8,24.0533333 L5.6,24.0533333 L6.66666667,24.0533333 L11.4666667,24.0533333 L12.5333333,24.0533333 L17.3333333,24.0533333 L18.4,24.0533333 L23.2,24.0533333 L23.4666667,24.0533333 C23.76,24.0533333 24,23.8133333 24,23.52 C24,23.2266667 23.76,22.9866667 23.4666667,22.9866667 Z M1.86666667,22.9866667 L1.86666667,18.6933333 L4.53333333,18.6933333 L4.53333333,22.9866667 L1.86666667,22.9866667 L1.86666667,22.9866667 Z M7.73333333,22.9866667 L7.73333333,14.9333333 L10.4,14.9333333 L10.4,22.96 L7.73333333,22.96 L7.73333333,22.9866667 Z M13.6,22.9866667 L13.6,11.2 L16.2666667,11.2 L16.2666667,22.9866667 L13.6,22.9866667 Z M19.4666667,22.9866667 L19.4666667,7.44 L22.1333333,7.44 L22.1333333,22.9866667 L19.4666667,22.9866667 L19.4666667,22.9866667 Z M1.01333333,13.28 C0.853333333,13.04 0.906666667,12.6933333 1.14666667,12.5333333 L16.8533333,1.2 L14.9866667,1.12 C14.6933333,1.09333333 14.48,0.88 14.48,0.586666667 C14.48,0.586666667 14.48,0.56 14.48,0.56 C14.5066667,0.266666667 14.7466667,0.0266666667 15.04,0.0533333333 L18.4266667,0.213333333 C18.4266667,0.213333333 18.4266667,0.213333333 18.4266667,0.213333333 C18.4266667,0.213333333 18.4266667,0.213333333 18.4266667,0.213333333 L18.4266667,0.213333333 C18.4266667,0.213333333 18.4266667,0.213333333 18.4266667,0.213333333 C18.4266667,0.213333333 18.4266667,0.213333333 18.4266667,0.213333333 C18.4266667,0.213333333 18.4266667,0.213333333 18.4266667,0.213333333 C18.4266667,0.213333333 18.4266667,0.213333333 18.4266667,0.213333333 C18.5333333,0.213333333 18.6133333,0.24 18.6933333,0.293333333 L18.6933333,0.293333333 C18.6933333,0.293333333 18.6933333,0.293333333 18.6933333,0.293333333 C18.72,0.32 18.72,0.32 18.7466667,0.346666667 C18.7466667,0.346666667 18.7466667,0.346666667 18.7466667,0.346666667 C18.7466667,0.346666667 18.7466667,0.346666667 18.7466667,0.346666667 C18.8266667,0.4 18.88,0.48 18.9066667,0.586666667 C18.9066667,0.586666667 18.9066667,0.586666667 18.9066667,0.586666667 C18.9066667,0.586666667 18.9066667,0.586666667 18.9066667,0.586666667 C18.9066667,0.586666667 18.9066667,0.586666667 18.9066667,0.586666667 C18.9066667,0.586666667 18.9066667,0.586666667 18.9066667,0.586666667 L18.9066667,0.586666667 C18.9066667,0.586666667 18.9066667,0.586666667 18.9066667,0.586666667 C18.9066667,0.586666667 18.9066667,0.586666667 18.9066667,0.586666667 C18.9066667,0.586666667 18.9066667,0.586666667 18.9066667,0.586666667 C18.9066667,0.586666667 18.9066667,0.586666667 18.9066667,0.586666667 C18.9333333,0.666666667 18.9333333,0.746666667 18.9333333,0.8 L18.6133333,4.18666667 C18.5866667,4.48 18.32,4.69333333 18.0266667,4.66666667 C17.7333333,4.64 17.52,4.37333333 17.5466667,4.08 L17.76,1.86666667 L1.76,13.3866667 C1.65333333,13.4666667 1.54666667,13.4933333 1.44,13.4933333 C1.28,13.4933333 1.12,13.44 1.01333333,13.28 Z" id="Shape"></path>
                    </g>
                </g>
            </g>
        </g>
    </g>
</svg>