<?xml version="1.0" encoding="UTF-8"?>
<svg width="25px" height="38px" viewBox="0 0 25 38" version="1.1" xmlns="http://www.w3.org/2000/svg" xmlns:xlink="http://www.w3.org/1999/xlink">
    <title>1C0D2998-8AB3-4578-8A97-239DC98E4314</title>
    <g id="02.-UI-::" stroke="none" stroke-width="1" fill="none" fill-rule="evenodd">
        <g id="framework/Toolbar+sidenav/colapsed" transform="translate(-32.000000, -440.000000)" fill="#FFFFFF" fill-rule="nonzero">
            <g id="Sidenav/colapsed" transform="translate(0.000000, 64.000000)">
                <g id="Group-2-Copy-3" transform="translate(0.000000, 351.000000)">
                    <g id="noun_tap_3671487" transform="translate(32.000000, 25.000000)">
                        <path d="M5.02021085,17.5363276 C4.58156268,16.8436475 3.86155929,16.3990915 3.0451863,16.3171219 C2.22955173,16.2358907 1.43422497,16.5290613 0.866345385,17.1205718 C0.168495963,17.8486982 -0.0563665579,18.9298109 0.294035064,19.8765231 L4.48556218,31.1927602 C5.95141517,35.1501939 9.77186368,37.8094063 13.9925601,37.8094063 C19.5827399,37.8094063 24.1309457,33.2612006 24.1309457,27.6710208 L24.1309457,20.8874816 C24.1309457,18.7754717 22.4129069,17.0578023 20.3008972,17.0578023 L20.0873423,17.0578023 C19.7849871,15.5342106 18.4401039,14.3816052 16.8290041,14.3816052 L16.0044618,14.3816052 C15.5718136,13.0033527 14.2977308,11.994148 12.7785238,11.994148 L12.1966133,11.994148 L12.1966133,9.50219799 C13.6902972,8.56111672 14.606963,6.94193994 14.606963,5.15596242 C14.606963,2.31287231 12.2937215,0 9.45063141,0 C6.60754131,0 4.29466899,2.31287231 4.29466899,5.15596242 C4.29466899,6.94235531 5.21184246,8.56190134 6.70612631,9.50284415 L6.70612631,20.1977554 L5.02021085,17.5363276 Z M12.7785238,13.5065242 C13.8171748,13.5065242 14.6623479,14.3513282 14.6623479,15.3903483 L14.6623479,22.8045366 C14.6623479,23.2225078 15.0009341,23.5607247 15.418536,23.5607247 C15.836138,23.5607247 16.1747241,23.2225078 16.1747241,22.8045366 L16.1747241,15.8939814 L16.8290041,15.8939814 C17.827778,15.8939814 18.6404587,16.7062929 18.6404587,17.705436 L18.6404587,17.8139903 L18.6404587,22.8045366 C18.6404587,23.2225078 18.9790449,23.5607247 19.3966468,23.5607247 C19.8142487,23.5607247 20.1528349,23.2225078 20.1528349,22.8045366 L20.1528349,18.5701785 L20.3008972,18.5701785 C21.5788108,18.5701785 22.6185695,19.6099371 22.6185695,20.8874815 L22.6185695,27.6710207 C22.6185695,32.4274736 18.749013,36.2970301 13.9925601,36.2970301 C10.401405,36.2970301 7.1506822,34.0343734 5.90378416,30.6669732 L1.71225697,19.350736 C1.56197933,18.9445802 1.658349,18.4800858 1.9581658,18.1677151 C2.20222846,17.9129447 2.54487621,17.791098 2.89453941,17.8221135 C3.24494104,17.8568213 3.55398862,18.0480837 3.7426664,18.3456851 L6.82354228,23.2092154 C7.00298928,23.4935244 7.35006783,23.6249712 7.67314626,23.5304476 C7.99622469,23.437401 8.21850264,23.1412766 8.21850264,22.8045366 L8.21850264,7.14538706 C8.21850264,6.4652608 8.77161289,5.91215055 9.4513699,5.91215055 C10.1311269,5.91215055 10.6842372,6.4652608 10.6842372,7.14538706 L10.6842372,9.12567317 C10.6843756,9.12770391 10.6840987,9.12959627 10.6842372,9.13162701 L10.6842372,12.7503361 L10.6842372,22.8045366 C10.6842372,23.2225078 11.0228234,23.5607247 11.4404253,23.5607247 C11.8580272,23.5607247 12.1966134,23.2225078 12.1966134,22.8045366 L12.1966134,13.5065242 L12.7785238,13.5065242 Z M5.80704524,5.15596242 C5.80704524,3.14659922 7.44163745,1.51237625 9.45063141,1.51237625 C11.4599946,1.51237625 13.0945868,3.14659922 13.0945868,5.15596242 C13.0945868,6.05273582 12.7647237,6.89001666 12.1966134,7.5402812 L12.1966134,7.14538706 C12.1966134,5.6315339 10.9652231,4.39977429 9.4513699,4.39977429 C7.93751674,4.39977429 6.70612638,5.6315339 6.70612638,7.14538706 L6.70612638,7.5414812 C6.13736984,6.89098586 5.80704524,6.05328966 5.80704524,5.15596242 Z" id="Shape"></path>
                    </g>
                </g>
            </g>
        </g>
    </g>
</svg>