<?xml version="1.0" encoding="UTF-8"?>
<svg width="24px" height="34px" viewBox="0 0 24 34" version="1.1" xmlns="http://www.w3.org/2000/svg" xmlns:xlink="http://www.w3.org/1999/xlink">
    <title>E06EC097-162B-46DB-BEDE-895AF7885CBC</title>
    <g id="02.-UI-::" stroke="none" stroke-width="1" fill="none" fill-rule="evenodd">
        <g id="framework/Toolbar+sidenav/colapsed" transform="translate(-32.000000, -178.000000)" fill="#FFFFFF">
            <g id="Sidenav/colapsed" transform="translate(0.000000, 64.000000)">
                <g id="Group-2" transform="translate(0.000000, 87.000000)">
                    <g id="Group" transform="translate(32.000000, 27.000000)">
                        <path d="M3.13657756,3.63092404 L6.92839024,3.63092404 L6.92839024,3.18152195 C6.92839024,2.28985923 7.66552976,1.55938955 8.56596293,1.55938955 L9.79916488,1.55938955 C10.032,0.662625784 10.8536195,0 11.8318361,0 C12.8105678,0 13.6321873,0.663645993 13.8645073,1.55938955 L15.0977093,1.55938955 C16.0002029,1.55938955 16.7357971,2.28781882 16.7357971,3.18152195 L16.7357971,3.63092404 L20.5270946,3.63092404 C22.2501776,3.63092404 23.6636722,5.03065087 23.6636722,6.73695052 L23.6636722,30.6593226 C23.6636722,32.3656223 22.2501776,33.7653491 20.5270946,33.7653491 L3.13657756,33.7653491 C1.41349463,33.7653491 0,32.3656223 0,30.6593226 L0,6.73695052 C0,5.03065087 1.41349463,3.63092404 3.13657756,3.63092404 Z M6.92839024,4.6511331 L3.13657756,4.6511331 C1.97652293,4.6511331 1.0302439,5.58819512 1.0302439,6.73695052 L1.0302439,30.6593226 C1.0302439,31.808078 1.97652293,32.7451401 3.13657756,32.7451401 L20.5270946,32.7451401 C21.6871493,32.7451401 22.6334283,31.808078 22.6334283,30.6593226 L22.6334283,6.73695052 C22.6334283,5.58819512 21.6871493,4.6511331 20.5270946,4.6511331 L16.7357971,4.6511331 C16.7357971,5.55350801 16.0141112,6.29111916 15.0977093,6.29111916 L8.56596293,6.29111916 C7.6500761,6.29111916 6.92839024,5.55299791 6.92839024,4.6511331 Z M9.7950439,2.57959861 L8.56596293,2.57959861 C8.23113366,2.57959861 7.95863415,2.85046411 7.95863415,3.18152195 L7.95863415,4.66898676 C7.95863415,5.0000446 8.23113366,5.2709101 8.56596293,5.2709101 L15.0977093,5.2709101 C15.4325385,5.2709101 15.7055532,5.0005547 15.7055532,4.66898676 L15.7055532,3.18152195 C15.7055532,2.85097422 15.4315083,2.57959861 15.0977093,2.57959861 L13.8686283,2.57959861 C13.6419746,3.48401394 12.8152039,4.15633171 11.8318361,4.15633171 C10.8479532,4.15633171 10.0222127,3.48401394 9.7950439,2.57959861 L9.7950439,2.57959861 Z M11.8318361,1.02020906 C11.2415063,1.02020906 10.7634732,1.49358606 10.7634732,2.07816585 C10.7634732,2.66427596 11.239961,3.13612265 11.8318361,3.13612265 C12.4237112,3.13612265 12.900199,2.66427596 12.900199,2.07816585 C12.900199,1.49358606 12.4221659,1.02020906 11.8318361,1.02020906 Z" id="Shape" fill-rule="nonzero"></path>
                        <path d="M21.7886283,30.6588125 C21.7886283,31.3438829 21.2189034,31.9080585 20.5270946,31.9080585 L3.13657756,31.9080585 C2.44476878,31.9080585 1.8750439,31.3438829 1.8750439,30.6588125 L1.8750439,8.08362648 C8.51290537,8.08362648 15.1507668,8.08362648 21.7886283,8.08362648 L21.7886283,30.6588125 Z M20.7583844,30.6588125 L20.7583844,9.10383554 L2.9052878,9.10383554 L2.9052878,30.6588125 C2.9052878,30.7858286 3.0083122,30.8878495 3.13657756,30.8878495 L20.5270946,30.8878495 C20.65536,30.8878495 20.7583844,30.7858286 20.7583844,30.6588125 Z" id="Shape" fill-rule="nonzero"></path>
                        <path d="M6.46323512,15.7402955 C6.35145366,15.7443763 6.24276293,15.6923456 6.16394927,15.6142997 L5.08940488,14.5497115 C4.70409366,14.1681533 5.28669659,13.5902049 5.6720078,13.9722732 L6.46323512,14.7552836 L8.52423805,12.7143554 C8.91006439,12.3327972 9.49266732,12.9097254 9.1073561,13.2917937 L6.76200585,15.6142997 C6.67907122,15.6964265 6.57913756,15.7402955 6.46323512,15.7402955 L6.46323512,15.7402955 Z" id="Path"></path>
                        <path d="M10.1746888,13.746807 L18.2693151,13.746807 C18.5031805,13.746807 18.6942907,13.9360557 18.6942907,14.1676432 L18.6942907,14.1681533 C18.6942907,14.3997408 18.5031805,14.5889895 18.2693151,14.5889895 L10.1746888,14.5889895 C9.94082341,14.5889895 9.74971317,14.3997408 9.74971317,14.1681533 L9.74971317,14.1676432 C9.74971317,13.9360557 9.94082341,13.746807 10.1746888,13.746807 Z" id="Path"></path>
                        <path d="M6.46323512,21.5677296 C6.35145366,21.5718105 6.24276293,21.5197798 6.16394927,21.4417338 L5.08940488,20.3771456 C4.70409366,19.9955875 5.28669659,19.417639 5.6720078,19.7997073 L6.46323512,20.5827178 L8.52423805,18.5417895 C8.91006439,18.1602314 9.49266732,18.7371596 9.1073561,19.1192279 L6.76200585,21.4417338 C6.67907122,21.5238606 6.57913756,21.5677296 6.46323512,21.5677296 L6.46323512,21.5677296 Z" id="Path"></path>
                        <path d="M10.1746888,19.5742411 L18.2693151,19.5742411 C18.8318283,19.5742411 18.8318283,20.4164237 18.2693151,20.4164237 L10.1746888,20.4164237 C9.61217561,20.4164237 9.61217561,19.5742411 10.1746888,19.5742411 Z" id="Path"></path>
                        <path d="M6.46323512,27.3951638 C6.35145366,27.3992446 6.24276293,27.3472139 6.16394927,27.2691679 L5.08940488,26.2045798 C4.70409366,25.8230216 5.28669659,25.2450732 5.6720078,25.6271415 L6.46323512,26.4101519 L8.52423805,24.3692237 C8.91006439,23.9876655 9.49266732,24.5645937 9.1073561,24.946662 L6.76200585,27.2691679 C6.67907122,27.3512948 6.57913756,27.3951638 6.46323512,27.3951638 L6.46323512,27.3951638 Z" id="Path"></path>
                        <path d="M10.1746888,25.4016753 L18.2693151,25.4016753 C18.8318283,25.4016753 18.8318283,26.2438578 18.2693151,26.2438578 L10.1746888,26.2438578 C9.61217561,26.2438578 9.61217561,25.4016753 10.1746888,25.4016753 Z" id="Path"></path>
                    </g>
                </g>
            </g>
        </g>
    </g>
</svg>