<?xml version="1.0" encoding="UTF-8"?>
<svg width="24px" height="36px" viewBox="0 0 24 36" version="1.1" xmlns="http://www.w3.org/2000/svg" xmlns:xlink="http://www.w3.org/1999/xlink">
    <title>84CEF601-DD30-40FE-BCEC-9AE510E78521</title>
    <g id="02.-UI-::" stroke="none" stroke-width="1" fill="none" fill-rule="evenodd">
        <g id="framework/Toolbar+sidenav/colapsed" transform="translate(-32.000000, -529.000000)" fill="#FFFFFF" fill-rule="nonzero">
            <g id="Sidenav/colapsed" transform="translate(0.000000, 64.000000)">
                <g id="Group-2-Copy-4" transform="translate(0.000000, 439.000000)">
                    <g id="noun_sale_3406167" transform="translate(32.000000, 26.000000)">
                        <path d="M23.6625,31.35 L19.0875,9.75 C19.05,9.5625 18.9375,9.4125 18.75,9.3375 L12.45,6.5625 C12.45,6.075 12.375,5.5875 12.2625,5.0625 C11.9625,3.6 11.2875,2.2875 10.3875,1.3875 C9.4125,0.4125 8.325,4.71844785e-16 7.2375,0.225 C5.1,0.675 3.9375,3.525 4.6125,6.675 C4.725,7.2 4.875,7.65 5.0625,8.1 L0.45,13.2375 C0.3375,13.3875 0.2625,13.575 0.3,13.7625 L4.875,35.3625 C4.95,35.625 5.175,35.8125 5.4375,35.8125 C5.475,35.8125 5.5125,35.8125 5.55,35.8125 L23.175,32.0625 C23.55,31.9875 23.7375,31.6875 23.6625,31.35 Z M5.775,6.45 C5.25,4.0125 6.0375,1.6875 7.5,1.3875 C8.175,1.2375 8.925,1.5375 9.6,2.2125 C10.35,2.9625 10.9125,4.05 11.175,5.325 C11.2125,5.55 11.25,5.8125 11.2875,6.0375 L8.5875,4.8375 C8.3625,4.725 8.1,4.8 7.9125,4.9875 L5.9625,7.1625 C5.8875,6.9375 5.8125,6.7125 5.775,6.45 Z M5.925,34.5375 L1.5,13.8 L5.625,9.2625 C6.525,10.725 7.7625,11.625 9.075,11.625 C9.2625,11.625 9.45,11.5875 9.675,11.55 C9.975,11.475 10.2,11.175 10.125,10.875 C10.05,10.575 9.75,10.35 9.45,10.425 C8.4,10.65 7.2375,9.7875 6.4875,8.3625 L8.55,6.1125 L18,10.3125 L22.425,31.05 L5.925,34.5375 Z" id="Shape"></path>
                        <path d="M15.1125,21.9 C14.4,21.45 13.5375,21.2625 12.7125,21.45 L12.375,21.525 L11.5125,17.55 L11.85,17.475 C12.9375,17.25 14.025,17.9625 14.25,19.05 C14.325,19.35 14.625,19.575 14.925,19.5 C15.225,19.425 15.45,19.125 15.375,18.825 C15,17.1 13.3125,16.0125 11.5875,16.35 L11.25,16.425 L10.875,14.7 C10.8,14.4 10.5,14.175 10.2,14.25 C9.9,14.325 9.675,14.625 9.75,14.925 L10.125,16.65 L9.7875,16.725 C8.9625,16.9125 8.25,17.4 7.7625,18.1125 C7.3125,18.825 7.125,19.6875 7.3125,20.5125 C7.5,21.3375 7.9875,22.05 8.7,22.5375 C9.4125,22.9875 10.275,23.175 11.1,22.9875 L11.4375,22.9125 L12.3,26.8875 L12,26.9625 C11.475,27.075 10.9125,26.9625 10.4625,26.6625 C10.0125,26.3625 9.675,25.9125 9.5625,25.3875 C9.4875,25.0875 9.1875,24.8625 8.8875,24.9375 C8.5875,25.0125 8.3625,25.3125 8.4375,25.6125 C8.625,26.4375 9.1125,27.15 9.825,27.6375 C10.35,27.975 10.95,28.1625 11.55,28.1625 C11.775,28.1625 12,28.125 12.225,28.0875 L12.5625,28.0125 L12.9375,29.7375 C13.0125,30 13.2375,30.1875 13.5,30.1875 C13.5375,30.1875 13.575,30.1875 13.6125,30.1875 C13.9125,30.1125 14.1375,29.8125 14.0625,29.5125 L13.6875,27.7875 L14.025,27.7125 C14.85,27.525 15.5625,27.0375 16.05,26.325 C16.5,25.6125 16.6875,24.75 16.5,23.925 C16.3125,23.1 15.825,22.3875 15.1125,21.9 Z M10.9125,21.825 C10.3875,21.9375 9.825,21.825 9.375,21.525 C8.925,21.225 8.5875,20.775 8.475,20.25 C8.3625,19.725 8.475,19.1625 8.775,18.7125 C9.075,18.2625 9.525,17.925 10.05,17.8125 L10.3875,17.7375 L11.25,21.7875 L10.9125,21.825 Z M15.075,25.6875 C14.775,26.1375 14.325,26.475 13.8,26.5875 L13.4625,26.6625 L12.6,22.6875 L12.9375,22.6125 C13.4625,22.5 14.025,22.6125 14.475,22.9125 C14.925,23.2125 15.2625,23.6625 15.375,24.1875 C15.4875,24.7125 15.375,25.2375 15.075,25.6875 Z" id="Shape"></path>
                    </g>
                </g>
            </g>
        </g>
    </g>
</svg>