<?xml version="1.0" encoding="UTF-8"?>
<svg width="24px" height="35px" viewBox="0 0 24 35" version="1.1" xmlns="http://www.w3.org/2000/svg" xmlns:xlink="http://www.w3.org/1999/xlink">
    <title>22C6B04B-574C-401B-A4AA-A69CE9C5F54B</title>
    <g id="02.-UI-::" stroke="none" stroke-width="1" fill="none" fill-rule="evenodd">
        <g id="framework/Toolbar+sidenav/colapsed" transform="translate(-32.000000, -266.000000)" fill="#FFFFFF" fill-rule="nonzero">
            <g id="Sidenav/colapsed" transform="translate(0.000000, 64.000000)">
                <g id="Group-2-Copy" transform="translate(0.000000, 175.000000)">
                    <g id="noun_touchscreen_1039647" transform="translate(32.000000, 27.000000)">
                        <path d="M23.1167143,16.125 C22.8467143,15.6338571 22.4798571,15.1538571 22.0251429,14.6995714 L19.2527143,11.9271429 L19.2527143,3.15514286 C19.2527143,1.42714286 17.847,0.021 16.1185714,0.021 L3.27,0.021 C1.542,0.021 0.135857143,1.42671429 0.135857143,3.15514286 L0.135857143,31.1301429 C0.135857143,32.8581429 1.54157143,34.2642857 3.27,34.2642857 L16.1185714,34.2642857 C17.8465714,34.2642857 19.2527143,32.8585714 19.2527143,31.1301429 L19.2527143,24.8592857 C19.3435714,24.8442857 19.434,24.8335714 19.5248571,24.8112857 C20.9185714,24.4658571 21.8832857,23.3262857 22.4875714,22.4987143 C22.9401429,21.879 23.49,21.0394286 23.73,20.0442857 C24.0338571,18.789 23.8157143,17.3974286 23.1167143,16.125 Z M1.20771429,3.15514286 C1.20771429,2.01814286 2.133,1.09242857 3.27042857,1.09242857 L16.119,1.09242857 C17.256,1.09242857 18.1817143,2.01771429 18.1817143,3.15514286 L18.1817143,3.73628571 L1.20771429,3.73628571 L1.20771429,3.15514286 Z M18.1812857,31.1305714 C18.1812857,32.2675714 17.256,33.1932857 16.1185714,33.1932857 L3.27,33.1932857 C2.133,33.1932857 1.20728571,32.268 1.20728571,31.1305714 L1.20728571,27.8292857 L18.1808571,27.8292857 L18.1808571,31.1305714 L18.1812857,31.1305714 Z M18.1812857,26.7578571 L1.20771429,26.7578571 L1.20771429,4.80814286 L18.1812857,4.80814286 L18.1812857,10.8557143 L17.2127143,9.88714286 C16.5128571,9.18728571 15.3745714,9.18728571 14.6747143,9.88714286 C14.331,10.2308571 14.1561429,10.6804286 14.1497143,11.1317143 C13.6907143,11.1321429 13.2317143,11.307 12.8824286,11.6567143 C12.5357143,12.0034286 12.3608571,12.4577143 12.3574286,12.9132857 C11.8821429,12.9167143 11.4364286,13.1022857 11.1012857,13.4374286 C10.9191429,13.6195714 10.785,13.8308571 10.6975714,14.0567143 L8.54828571,11.9074286 C7.84842857,11.2075714 6.70971429,11.2075714 6.00985714,11.9074286 C5.67171429,12.2455714 5.48528571,12.6964286 5.48528571,13.1768571 C5.48528571,13.6568571 5.67171429,14.1077143 6.00985714,14.4458571 L11.1775714,19.6135714 L10.6157143,19.4798571 C9.74314286,19.2724286 8.83414286,19.7241429 8.50371429,20.5328571 C8.30442857,21.021 8.328,21.5682857 8.56757143,22.0354286 C8.80842857,22.5042857 9.23871429,22.8424286 9.74828571,22.9632857 C11.454,23.3687143 13.1584286,23.7797143 14.8624286,24.1911429 L17.0284286,24.7131429 C17.3464286,24.7898571 17.7454286,24.8712857 18.1804286,24.9047143 L18.1804286,26.7578571 L18.1812857,26.7578571 Z M22.689,19.7927143 C22.5364286,20.4257143 22.2072857,21.0655714 21.6222857,21.867 C20.8187143,22.9671429 20.0704286,23.5722857 19.2668571,23.7715714 C18.5725714,23.9438571 17.8007143,23.7972857 17.28,23.6721429 L15.1144286,23.1497143 C13.4091429,22.7382857 11.7038571,22.3268571 9.99728571,21.9214286 C9.79242857,21.8725714 9.61928571,21.7358571 9.522,21.546 C9.42385714,21.3548571 9.41485714,21.1392857 9.49671429,20.9382857 C9.60642857,20.6695714 9.88328571,20.5007143 10.1832857,20.5007143 C10.245,20.5007143 10.3071429,20.508 10.3692857,20.5225714 L12.7092857,21.0788571 C12.8202857,21.1054286 12.972,21.0814286 13.0778571,21.0355714 C13.2411429,20.9652857 13.3585714,20.8187143 13.392,20.6442857 C13.4254286,20.4698571 13.3701429,20.2902857 13.2445714,20.1647143 L6.76842857,13.689 C6.633,13.5535714 6.55842857,13.3718571 6.55842857,13.1777143 C6.55842857,12.9835714 6.633,12.8018571 6.76885714,12.666 C7.05085714,12.384 7.50985714,12.384 7.79185714,12.666 L11.1025714,15.9767143 C11.3117143,16.1858571 11.6507143,16.1858571 11.8602857,15.9767143 C11.9648571,15.8721429 12.0171429,15.7354286 12.0171429,15.5978571 C12.0171429,15.4602857 11.9648571,15.3235714 11.8602857,15.219 C11.5782857,14.937 11.5782857,14.478 11.8602857,14.1955714 C12.132,13.9238571 12.6124286,13.9242857 12.8837143,14.1955714 C13.0928571,14.4047143 13.4318571,14.4047143 13.6414286,14.1955714 C13.746,14.091 13.7982857,13.9542857 13.7982857,13.8167143 C13.7982857,13.6791429 13.746,13.5424286 13.6414286,13.4378571 C13.3594286,13.1558571 13.3594286,12.6968571 13.6414286,12.4148571 C13.9127143,12.1435714 14.3858571,12.1371429 14.6712857,12.4217143 L14.682,12.4324286 C14.6957143,12.4457143 14.7098571,12.4585714 14.7248571,12.4697143 C14.9378571,12.636 15.2447143,12.6188571 15.4367143,12.423 C15.6424286,12.2134286 15.6415714,11.877 15.4332857,11.6687143 C15.1512857,11.3867143 15.1512857,10.9277143 15.4332857,10.6452857 C15.7045714,10.374 16.185,10.374 16.4562857,10.6452857 L18.339,12.528 C18.339,12.528 18.3394286,12.5284286 18.3394286,12.5284286 L21.2682857,15.4572857 C21.651,15.8404286 21.957,16.2381429 22.1781429,16.641 C22.7391429,17.6635714 22.926,18.8121429 22.689,19.7927143 Z" id="Shape"></path>
                        <path d="M9.69471429,32.6734286 C10.8741429,32.6734286 11.8337143,31.7138571 11.8337143,30.5344286 C11.8337143,29.355 10.8741429,28.3954286 9.69471429,28.3954286 C8.51528571,28.3954286 7.55571429,29.355 7.55571429,30.5344286 C7.55571429,31.7138571 8.51528571,32.6734286 9.69471429,32.6734286 Z M9.69471429,29.4668571 C10.2835714,29.4668571 10.7622857,29.9455714 10.7622857,30.5344286 C10.7622857,31.1232857 10.2835714,31.602 9.69471429,31.602 C9.10585714,31.602 8.62714286,31.1232857 8.62714286,30.5344286 C8.62714286,29.9455714 9.10585714,29.4668571 9.69471429,29.4668571 Z" id="Shape"></path>
                        <path d="M10.1627143,1.86985714 L7.266,1.86985714 C6.97028571,1.86985714 6.73028571,2.10985714 6.73028571,2.40557143 C6.73028571,2.70128571 6.97028571,2.94128571 7.266,2.94128571 L10.1627143,2.94128571 C10.4584286,2.94128571 10.6984286,2.70128571 10.6984286,2.40557143 C10.6984286,2.10985714 10.4588571,1.86985714 10.1627143,1.86985714 Z" id="Path"></path>
                        <circle id="Oval" cx="11.7505714" cy="2.40557143" r="1"></circle>
                    </g>
                </g>
            </g>
        </g>
    </g>
</svg>