<?xml version="1.0" encoding="UTF-8"?>
<svg width="24px" height="21px" viewBox="0 0 24 21" version="1.1" xmlns="http://www.w3.org/2000/svg" xmlns:xlink="http://www.w3.org/1999/xlink">
    <title>5EA1C258-0FEA-44C3-9E1E-437E96455B86</title>
    <g id="02.-UI-::" stroke="none" stroke-width="1" fill="none" fill-rule="evenodd">
        <g id="framework/Toolbar+sidenav/colapsed" transform="translate(-32.000000, -361.000000)" fill="#FFFFFF" fill-rule="nonzero">
            <g id="Sidenav/colapsed" transform="translate(0.000000, 64.000000)">
                <g id="Group-2-Copy-2" transform="translate(0.000000, 263.000000)">
                    <g id="noun_market_1562256" transform="translate(32.000000, 34.000000)">
                        <g id="Group" transform="translate(0.000000, 0.171996)">
                            <path d="M3.35749888,0.0986723596 C3.18346031,0.115499326 3.02069771,0.223105618 2.93680692,0.376748764 L0.875417987,4.15183551 C0.831483533,4.23136719 0.808086796,4.32216539 0.808107344,4.41305798 L0.808107344,5.94668764 C0.808107344,6.7177591 1.24234228,7.3604818 1.88507784,7.75838831 L1.88507784,18.4348315 C1.88507784,18.4348315 0.774439685,18.4348315 0.757624342,18.4348315 C0.474604773,18.446427 0.228117762,18.7161438 0.241381267,18.9995326 C0.254644638,19.2828944 0.525235524,19.5282607 0.808107344,19.5134022 L23.42449,19.5134022 C23.7091615,19.5177169 23.9712067,19.2592449 23.9712067,18.9741303 C23.9712067,18.6889888 23.7091615,18.4305169 23.42449,18.4348315 L22.3475194,18.4348315 L22.3475194,7.75838831 C22.9902547,7.3604818 23.42449,6.7177591 23.42449,5.94668764 L23.42449,4.41305798 C23.4245105,4.32216539 23.4011129,4.23136719 23.3571791,4.15183551 L21.2957903,0.376748764 C21.2031622,0.209217978 21.0158276,0.0986561798 20.8246158,0.0986723596 C20.8246158,0.0986723596 3.37431425,0.0978633708 3.35749888,0.0986723596 L3.35749888,0.0986723596 Z M3.72770724,1.17727011 L20.50489,1.17727011 L21.9773105,3.8737591 L2.25528647,3.8737591 L3.72770724,1.17727011 Z M1.88507784,4.95235685 L22.3475194,4.95235685 L22.3475194,5.94668764 C22.3475194,6.53324764 21.7237009,7.10954697 20.8246158,7.10954697 C20.2479255,7.10954697 19.7623613,6.85270921 19.5120574,6.52811865 C19.3120436,6.26397034 18.8538607,6.26397034 18.6538468,6.52811865 C18.403543,6.85270921 17.9179788,7.10954697 17.341289,7.10954697 C16.7645938,7.10954697 16.2790428,6.8527173 16.0287309,6.52811865 C15.828717,6.26397034 15.3705338,6.26397034 15.17052,6.52811865 C14.9202154,6.85271191 14.4346568,7.10954697 13.8579622,7.10954697 C13.2812667,7.10954697 12.7957081,6.85270921 12.5454043,6.52811865 C12.3453902,6.26397034 11.887207,6.26397034 11.6871932,6.52811865 C11.4368799,6.8527173 10.9513351,7.10954697 10.3746353,7.10954697 C9.79794499,7.10954697 9.31238103,6.85270921 9.06207748,6.52811865 C8.86206337,6.26397034 8.40388045,6.26397034 8.20386634,6.52811865 C7.95356144,6.85271191 7.46800342,7.10954697 6.89130849,7.10954697 C6.31461357,7.10954697 5.82905528,6.85271191 5.57875065,6.52811865 C5.37873654,6.26397034 4.92055362,6.26397034 4.72053951,6.52811865 C4.47022787,6.8527173 3.98467712,7.10954697 3.40798166,7.10954697 C2.50889636,7.10954697 1.88507784,6.53324764 1.88507784,5.94668764 L1.88507784,4.95235685 Z M5.14964521,7.61514067 C5.61789411,7.98032629 6.22987685,8.18814202 6.89130849,8.18814202 C7.5527404,8.18814202 8.16472288,7.98032629 8.63297178,7.61514067 C9.10122175,7.98032629 9.71320557,8.18814202 10.3746353,8.18814202 C11.0360697,8.18814202 11.6480508,7.9803236 12.1162986,7.61514067 C12.5845478,7.98032629 13.19653,8.18814202 13.8579622,8.18814202 C14.5193938,8.18814202 15.1313765,7.98032629 15.5996254,7.61514067 C16.0678743,7.98032629 16.6798568,8.18814202 17.341289,8.18814202 C18.0027182,8.18814202 18.6147023,7.98032629 19.0829523,7.61514067 C19.5512025,7.98032629 20.1631863,8.18814202 20.8246158,8.18814202 C20.9768389,8.18814202 21.1236032,8.17673528 21.2705488,8.15443685 L21.2705488,18.4348315 L11.0309142,18.4348315 L11.0309142,10.8846202 C11.0308889,10.6022831 10.7743731,10.3453483 10.4924289,10.3453213 C8.50013852,10.3453213 6.49809762,10.3453213 4.51019353,10.3453213 C4.24842175,10.3742022 4.02904719,10.6208899 4.0306053,10.8846202 L4.0306053,18.4348315 L2.96204872,18.4348315 L2.96204872,8.15443685 C3.10899425,8.17676494 3.25575856,8.18814202 3.40798166,8.18814202 C4.06941357,8.18814202 4.68139631,7.98032629 5.14964521,7.61514067 Z M13.6896855,10.3453213 C13.424973,10.3704 13.2005339,10.6183551 13.2016788,10.8846202 L13.2016788,14.6597393 C13.2016788,14.9420764 13.4582241,15.1990382 13.7401683,15.1990382 L19.6635066,15.1990382 C19.9454508,15.1990382 20.2019919,14.9420764 20.2019919,14.6597393 L20.2019919,10.8846202 C20.2019919,10.6022831 19.9454508,10.3453213 19.6635066,10.3453213 C17.673676,10.3453213 15.6758031,10.3453213 13.6896855,10.3453213 L13.6896855,10.3453213 Z M5.10757591,11.4239461 L9.95394364,11.4239461 L9.95394364,18.4348315 L5.10757591,18.4348315 L5.10757591,11.4239461 Z M14.2786536,11.4239461 L19.1250213,11.4239461 L19.1250213,14.1204135 L14.2786536,14.1204135 L14.2786536,11.4239461 Z" id="Shape"></path>
                        </g>
                    </g>
                </g>
            </g>
        </g>
    </g>
</svg>