<?xml version="1.0" encoding="UTF-8"?>
<svg width="36px" height="36px" viewBox="0 0 24 25" version="1.1" xmlns="http://www.w3.org/2000/svg" xmlns:xlink="http://www.w3.org/1999/xlink">
    <title>B6EA0A0E-0E5B-4659-AF8B-3793B30AA813</title>
    <g id="02.-UI-::" stroke="none" stroke-width="1" fill="none" fill-rule="evenodd">
        <g id="framework/Toolbar+sidenav/colapsed" transform="translate(-32.000000, -711.000000)" fill="#FFFFFF" fill-rule="nonzero">
            <g id="Sidenav/colapsed" transform="translate(0.000000, 64.000000)">
                <g id="Group-2-Copy-6" transform="translate(0.000000, 615.000000)">
                    <g id="noun_bar-chart_884017" transform="translate(32.000000, 32.000000)">
                        <path d="M0 0h24v24H0V0z" fill="none"/><path d="M2 16v2c2.76 0 5 2.24 5 5h2c0-3.87-3.13-7-7-7zm0 4v3h3c0-1.66-1.34-3-3-3zm0-8v2c4.97 0 9 4.03 9 9h2c0-6.08-4.92-11-11-11zM17 1.01L7 1c-1.1 0-2 .9-2 2v7.37c.69.16 1.36.37 2 .64V5h10v13h-3.03c.52 1.25.84 2.59.95 4H17c1.1 0 2-.9 2-2V3c0-1.1-.9-1.99-2-1.99z"/>
                    </g>
                </g>
            </g>
        </g>
    </g>
</svg>