<svg xmlns="http://www.w3.org/2000/svg" width="928.877" height="1811.952" viewBox="0 0 928.877 1811.952">
  <g id="Grupo_2059" data-name="Grupo 2059" transform="translate(-102.9 -50.588)">
    <path id="Trazado_918" data-name="Trazado 918" d="M24.816,98.564a.325.325,0,0,0-.1.4.4.4,0,0,0,.4.2H52.039a1.187,1.187,0,0,1,1.192,1.192v9.637a1.187,1.187,0,0,1-1.192,1.192H7.33a1.187,1.187,0,0,1-1.192-1.192v-9.141a2.022,2.022,0,0,1,.6-1.49Q11.6,94.59,16.669,88.976t6.359-7q2.782-3.279,5.663-6.259,9.041-10.035,9.041-14.9A7.343,7.343,0,0,0,35.248,55.1a9.286,9.286,0,0,0-6.458-2.235A9.286,9.286,0,0,0,22.332,55.1a7.569,7.569,0,0,0-2.484,5.912v2.484a1.187,1.187,0,0,1-1.192,1.192H6.932A1.187,1.187,0,0,1,5.74,63.492v-4.67a17.076,17.076,0,0,1,3.378-9.488,19.6,19.6,0,0,1,8.2-6.309A28.937,28.937,0,0,1,28.79,40.839a26.91,26.91,0,0,1,12.27,2.633,19.847,19.847,0,0,1,8.048,7.1,18.188,18.188,0,0,1,2.832,9.935,19.756,19.756,0,0,1-2.086,8.544,47.244,47.244,0,0,1-6.259,9.439q-3.08,3.875-6.657,7.65T26.306,97.074Zm60.705,13.711q-10.929,0-17.288-6.11T61.875,89.523V63.293q0-10.333,6.359-16.393t17.288-6.061q10.929,0,17.337,6.061t6.408,16.393V89.523q0,10.532-6.408,16.642T85.521,112.275Zm0-12.022a9.4,9.4,0,0,0,7.1-2.732,10.08,10.08,0,0,0,2.633-7.3V62.9a10.08,10.08,0,0,0-2.633-7.3,9.4,9.4,0,0,0-7.1-2.732,9.279,9.279,0,0,0-7,2.732,10.08,10.08,0,0,0-2.633,7.3V90.218a10.08,10.08,0,0,0,2.633,7.3A9.279,9.279,0,0,0,85.521,100.253Zm50.372-28.117a15.755,15.755,0,0,1-13.761-7.8,15.286,15.286,0,0,1-2.136-7.9,15.025,15.025,0,0,1,2.136-7.849,16.145,16.145,0,0,1,5.763-5.713,15.469,15.469,0,0,1,8-2.136,15.025,15.025,0,0,1,7.849,2.136,16.274,16.274,0,0,1,5.713,5.713,15.025,15.025,0,0,1,2.136,7.849,15.565,15.565,0,0,1-2.086,7.9,15.258,15.258,0,0,1-5.713,5.713A15.565,15.565,0,0,1,135.894,72.136Zm-3.875,39.046q-.7,0-.894-.4a1.1,1.1,0,0,1,.1-.994l37.456-67.362a1.642,1.642,0,0,1,1.49-.795h7.352q.7,0,.894.4a1.1,1.1,0,0,1-.1.994l-37.357,67.362a1.642,1.642,0,0,1-1.49.795Zm3.875-47.193A7.015,7.015,0,0,0,141.11,61.8a7.382,7.382,0,0,0,2.136-5.365,7.262,7.262,0,0,0-2.136-5.266,7.015,7.015,0,0,0-5.216-2.186,7.294,7.294,0,0,0-5.365,2.186,7.177,7.177,0,0,0-2.186,5.266,7.464,7.464,0,0,0,7.551,7.551Zm38.748,48.087a15.286,15.286,0,0,1-7.9-2.136,16.019,16.019,0,0,1-5.763-5.763,15.286,15.286,0,0,1-2.136-7.9,15.025,15.025,0,0,1,2.136-7.849,15.75,15.75,0,0,1,5.763-5.663,15.994,15.994,0,0,1,15.8,0A15.751,15.751,0,0,1,188.3,88.43a15.025,15.025,0,0,1,2.136,7.849,15.286,15.286,0,0,1-2.136,7.9,16.019,16.019,0,0,1-5.763,5.763A15.286,15.286,0,0,1,174.642,112.076Zm0-8.246a7.177,7.177,0,0,0,5.266-2.186,7.294,7.294,0,0,0,2.186-5.365,7.463,7.463,0,0,0-7.452-7.452,7.262,7.262,0,0,0-5.266,2.136,7.131,7.131,0,0,0-2.186,5.315,7.382,7.382,0,0,0,2.136,5.365A7.131,7.131,0,0,0,174.642,103.83Z" transform="translate(140 263)" fill="#efefef" opacity="0.317"/>
    <path id="Trazado_933" data-name="Trazado 933" d="M24.327,97.083a.316.316,0,0,0-.1.387.39.39,0,0,0,.387.194H50.853a1.157,1.157,0,0,1,1.162,1.162v9.391a1.157,1.157,0,0,1-1.162,1.162H7.289a1.157,1.157,0,0,1-1.162-1.162V99.31a1.97,1.97,0,0,1,.581-1.452q4.744-4.647,9.681-10.117t6.2-6.825q2.711-3.195,5.518-6.1,8.81-9.778,8.81-14.521a7.155,7.155,0,0,0-2.42-5.567A9.048,9.048,0,0,0,28.2,52.551a9.048,9.048,0,0,0-6.293,2.178,7.375,7.375,0,0,0-2.42,5.76v2.42a1.157,1.157,0,0,1-1.162,1.162H6.9A1.157,1.157,0,0,1,5.74,62.909v-4.55a16.639,16.639,0,0,1,3.292-9.245,19.1,19.1,0,0,1,7.987-6.147A28.2,28.2,0,0,1,28.2,40.837,26.221,26.221,0,0,1,40.156,43.4,19.339,19.339,0,0,1,48,50.324a17.723,17.723,0,0,1,2.759,9.681,19.25,19.25,0,0,1-2.033,8.326,46.034,46.034,0,0,1-6.1,9.2q-3,3.776-6.486,7.454T25.78,95.631Zm59.151,13.36q-10.649,0-16.845-5.954t-6.2-16.216V62.716q0-10.068,6.2-15.974t16.845-5.905q10.649,0,16.893,5.905t6.244,15.974V88.273q0,10.262-6.244,16.216T83.478,110.443Zm0-11.714A9.165,9.165,0,0,0,90.4,96.067a9.822,9.822,0,0,0,2.565-7.115V62.328A9.822,9.822,0,0,0,90.4,55.213a9.165,9.165,0,0,0-6.922-2.662,9.041,9.041,0,0,0-6.825,2.662,9.822,9.822,0,0,0-2.565,7.115V88.951a9.822,9.822,0,0,0,2.565,7.115A9.041,9.041,0,0,0,83.478,98.729Zm49.082-27.4a15.351,15.351,0,0,1-13.408-7.6,14.894,14.894,0,0,1-2.081-7.7,14.64,14.64,0,0,1,2.081-7.648,15.732,15.732,0,0,1,5.615-5.567,15.073,15.073,0,0,1,7.793-2.081,14.64,14.64,0,0,1,7.648,2.081,15.857,15.857,0,0,1,5.567,5.567,14.64,14.64,0,0,1,2.081,7.648,15.166,15.166,0,0,1-2.033,7.7,14.867,14.867,0,0,1-5.567,5.567A15.166,15.166,0,0,1,132.56,71.332Zm-3.776,38.046q-.678,0-.871-.387a1.067,1.067,0,0,1,.1-.968l36.5-65.637a1.6,1.6,0,0,1,1.452-.774h7.164q.678,0,.871.387a1.067,1.067,0,0,1-.1.968L137.5,108.6a1.6,1.6,0,0,1-1.452.774Zm3.776-45.984a6.835,6.835,0,0,0,5.082-2.13,7.193,7.193,0,0,0,2.081-5.228,7.076,7.076,0,0,0-2.081-5.131,6.835,6.835,0,0,0-5.082-2.13,7.107,7.107,0,0,0-5.228,2.13,6.994,6.994,0,0,0-2.13,5.131,7.273,7.273,0,0,0,7.358,7.358Zm37.756,46.856a14.894,14.894,0,0,1-7.7-2.081A15.609,15.609,0,0,1,157,102.553a14.894,14.894,0,0,1-2.081-7.7A14.64,14.64,0,0,1,157,87.209a15.347,15.347,0,0,1,5.615-5.518,15.585,15.585,0,0,1,15.393,0,15.347,15.347,0,0,1,5.615,5.518,14.64,14.64,0,0,1,2.081,7.648,14.894,14.894,0,0,1-2.081,7.7,15.609,15.609,0,0,1-5.615,5.615A14.894,14.894,0,0,1,170.316,110.249Zm0-8.035a6.994,6.994,0,0,0,5.131-2.13,7.107,7.107,0,0,0,2.13-5.228,7.272,7.272,0,0,0-7.261-7.261,7.076,7.076,0,0,0-5.131,2.081,6.948,6.948,0,0,0-2.13,5.179,7.193,7.193,0,0,0,2.081,5.228A6.948,6.948,0,0,0,170.316,102.214Z" transform="translate(484.291 976)" fill="#efefef"/>
    <path id="Trazado_930" data-name="Trazado 930" d="M32.62,122.22a.457.457,0,0,0-.14.56.564.564,0,0,0,.56.28H70.98a1.673,1.673,0,0,1,1.68,1.68v13.58A1.673,1.673,0,0,1,70.98,140h-63a1.673,1.673,0,0,1-1.68-1.68V125.44a2.849,2.849,0,0,1,.84-2.1q6.86-6.72,14-14.63t8.96-9.87q3.92-4.62,7.98-8.82,12.74-14.14,12.74-21a10.347,10.347,0,0,0-3.5-8.05,13.085,13.085,0,0,0-9.1-3.15,13.085,13.085,0,0,0-9.1,3.15,10.666,10.666,0,0,0-3.5,8.33v3.5a1.673,1.673,0,0,1-1.68,1.68H7.42A1.673,1.673,0,0,1,5.74,72.8V66.22A24.062,24.062,0,0,1,10.5,52.85a27.616,27.616,0,0,1,11.55-8.89,40.776,40.776,0,0,1,16.17-3.08,37.919,37.919,0,0,1,17.29,3.71A27.967,27.967,0,0,1,66.85,54.6a25.629,25.629,0,0,1,3.99,14A27.839,27.839,0,0,1,67.9,80.64a66.572,66.572,0,0,1-8.82,13.3q-4.34,5.46-9.38,10.78t-14.98,15.4Zm85.54,19.32q-15.4,0-24.36-8.61t-8.96-23.45V72.52q0-14.56,8.96-23.1t24.36-8.54q15.4,0,24.43,8.54t9.03,23.1v36.96q0,14.84-9.03,23.45T118.16,141.54Zm0-16.94q6.3,0,10.01-3.85t3.71-10.29V71.96q0-6.44-3.71-10.29t-10.01-3.85a13.074,13.074,0,0,0-9.87,3.85q-3.71,3.85-3.71,10.29v38.5q0,6.44,3.71,10.29A13.075,13.075,0,0,0,118.16,124.6Zm70.98-39.62a22.2,22.2,0,0,1-19.39-10.99,21.539,21.539,0,0,1-3.01-11.13,21.172,21.172,0,0,1,3.01-11.06,22.751,22.751,0,0,1,8.12-8.05,21.8,21.8,0,0,1,11.27-3.01,21.172,21.172,0,0,1,11.06,3.01,22.931,22.931,0,0,1,8.05,8.05,21.172,21.172,0,0,1,3.01,11.06,21.932,21.932,0,0,1-2.94,11.13,21.5,21.5,0,0,1-8.05,8.05A21.932,21.932,0,0,1,189.14,84.98ZM183.68,140q-.98,0-1.26-.56a1.544,1.544,0,0,1,.14-1.4l52.78-94.92a2.313,2.313,0,0,1,2.1-1.12H247.8q.98,0,1.26.56a1.544,1.544,0,0,1-.14,1.4l-52.64,94.92a2.314,2.314,0,0,1-2.1,1.12Zm5.46-66.5a9.885,9.885,0,0,0,7.35-3.08,10.4,10.4,0,0,0,3.01-7.56,10.233,10.233,0,0,0-3.01-7.42,9.885,9.885,0,0,0-7.35-3.08,10.278,10.278,0,0,0-7.56,3.08,10.114,10.114,0,0,0-3.08,7.42A10.518,10.518,0,0,0,189.14,73.5Zm54.6,67.76a21.539,21.539,0,0,1-11.13-3.01,22.573,22.573,0,0,1-8.12-8.12A21.539,21.539,0,0,1,221.48,119a21.172,21.172,0,0,1,3.01-11.06,22.194,22.194,0,0,1,8.12-7.98,22.538,22.538,0,0,1,22.26,0,22.194,22.194,0,0,1,8.12,7.98A21.171,21.171,0,0,1,266,119a21.539,21.539,0,0,1-3.01,11.13,22.573,22.573,0,0,1-8.12,8.12A21.539,21.539,0,0,1,243.74,141.26Zm0-11.62a10.114,10.114,0,0,0,7.42-3.08,10.278,10.278,0,0,0,3.08-7.56,10.516,10.516,0,0,0-10.5-10.5,10.233,10.233,0,0,0-7.42,3.01,10.048,10.048,0,0,0-3.08,7.49,10.4,10.4,0,0,0,3.01,7.56A10.048,10.048,0,0,0,243.74,129.64Z" transform="translate(728.29 952.707) rotate(-17)" fill="#efefef" opacity="0.453"/>
    <path id="Trazado_927" data-name="Trazado 927" d="M32.62,122.22a.457.457,0,0,0-.14.56.564.564,0,0,0,.56.28H70.98a1.673,1.673,0,0,1,1.68,1.68v13.58A1.673,1.673,0,0,1,70.98,140h-63a1.673,1.673,0,0,1-1.68-1.68V125.44a2.849,2.849,0,0,1,.84-2.1q6.86-6.72,14-14.63t8.96-9.87q3.92-4.62,7.98-8.82,12.74-14.14,12.74-21a10.347,10.347,0,0,0-3.5-8.05,13.085,13.085,0,0,0-9.1-3.15,13.085,13.085,0,0,0-9.1,3.15,10.666,10.666,0,0,0-3.5,8.33v3.5a1.673,1.673,0,0,1-1.68,1.68H7.42A1.673,1.673,0,0,1,5.74,72.8V66.22A24.062,24.062,0,0,1,10.5,52.85a27.616,27.616,0,0,1,11.55-8.89,40.776,40.776,0,0,1,16.17-3.08,37.919,37.919,0,0,1,17.29,3.71A27.967,27.967,0,0,1,66.85,54.6a25.629,25.629,0,0,1,3.99,14A27.839,27.839,0,0,1,67.9,80.64a66.572,66.572,0,0,1-8.82,13.3q-4.34,5.46-9.38,10.78t-14.98,15.4Zm85.54,19.32q-15.4,0-24.36-8.61t-8.96-23.45V72.52q0-14.56,8.96-23.1t24.36-8.54q15.4,0,24.43,8.54t9.03,23.1v36.96q0,14.84-9.03,23.45T118.16,141.54Zm0-16.94q6.3,0,10.01-3.85t3.71-10.29V71.96q0-6.44-3.71-10.29t-10.01-3.85a13.074,13.074,0,0,0-9.87,3.85q-3.71,3.85-3.71,10.29v38.5q0,6.44,3.71,10.29A13.075,13.075,0,0,0,118.16,124.6Zm70.98-39.62a22.2,22.2,0,0,1-19.39-10.99,21.539,21.539,0,0,1-3.01-11.13,21.172,21.172,0,0,1,3.01-11.06,22.751,22.751,0,0,1,8.12-8.05,21.8,21.8,0,0,1,11.27-3.01,21.172,21.172,0,0,1,11.06,3.01,22.931,22.931,0,0,1,8.05,8.05,21.172,21.172,0,0,1,3.01,11.06,21.932,21.932,0,0,1-2.94,11.13,21.5,21.5,0,0,1-8.05,8.05A21.932,21.932,0,0,1,189.14,84.98ZM183.68,140q-.98,0-1.26-.56a1.544,1.544,0,0,1,.14-1.4l52.78-94.92a2.313,2.313,0,0,1,2.1-1.12H247.8q.98,0,1.26.56a1.544,1.544,0,0,1-.14,1.4l-52.64,94.92a2.314,2.314,0,0,1-2.1,1.12Zm5.46-66.5a9.885,9.885,0,0,0,7.35-3.08,10.4,10.4,0,0,0,3.01-7.56,10.233,10.233,0,0,0-3.01-7.42,9.885,9.885,0,0,0-7.35-3.08,10.278,10.278,0,0,0-7.56,3.08,10.114,10.114,0,0,0-3.08,7.42A10.518,10.518,0,0,0,189.14,73.5Zm54.6,67.76a21.539,21.539,0,0,1-11.13-3.01,22.573,22.573,0,0,1-8.12-8.12A21.539,21.539,0,0,1,221.48,119a21.172,21.172,0,0,1,3.01-11.06,22.194,22.194,0,0,1,8.12-7.98,22.538,22.538,0,0,1,22.26,0,22.194,22.194,0,0,1,8.12,7.98A21.171,21.171,0,0,1,266,119a21.539,21.539,0,0,1-3.01,11.13,22.573,22.573,0,0,1-8.12,8.12A21.539,21.539,0,0,1,243.74,141.26Zm0-11.62a10.114,10.114,0,0,0,7.42-3.08,10.278,10.278,0,0,0,3.08-7.56,10.516,10.516,0,0,0-10.5-10.5,10.233,10.233,0,0,0-7.42,3.01,10.048,10.048,0,0,0-3.08,7.49,10.4,10.4,0,0,0,3.01,7.56A10.048,10.048,0,0,0,243.74,129.64Z" transform="translate(534 1721)" fill="#efefef" opacity="0.631"/>
    <path id="Trazado_920" data-name="Trazado 920" d="M32.62,122.22a.457.457,0,0,0-.14.56.564.564,0,0,0,.56.28H70.98a1.673,1.673,0,0,1,1.68,1.68v13.58A1.673,1.673,0,0,1,70.98,140h-63a1.673,1.673,0,0,1-1.68-1.68V125.44a2.849,2.849,0,0,1,.84-2.1q6.86-6.72,14-14.63t8.96-9.87q3.92-4.62,7.98-8.82,12.74-14.14,12.74-21a10.347,10.347,0,0,0-3.5-8.05,13.085,13.085,0,0,0-9.1-3.15,13.085,13.085,0,0,0-9.1,3.15,10.666,10.666,0,0,0-3.5,8.33v3.5a1.673,1.673,0,0,1-1.68,1.68H7.42A1.673,1.673,0,0,1,5.74,72.8V66.22A24.062,24.062,0,0,1,10.5,52.85a27.616,27.616,0,0,1,11.55-8.89,40.776,40.776,0,0,1,16.17-3.08,37.919,37.919,0,0,1,17.29,3.71A27.967,27.967,0,0,1,66.85,54.6a25.629,25.629,0,0,1,3.99,14A27.839,27.839,0,0,1,67.9,80.64a66.572,66.572,0,0,1-8.82,13.3q-4.34,5.46-9.38,10.78t-14.98,15.4Zm85.54,19.32q-15.4,0-24.36-8.61t-8.96-23.45V72.52q0-14.56,8.96-23.1t24.36-8.54q15.4,0,24.43,8.54t9.03,23.1v36.96q0,14.84-9.03,23.45T118.16,141.54Zm0-16.94q6.3,0,10.01-3.85t3.71-10.29V71.96q0-6.44-3.71-10.29t-10.01-3.85a13.074,13.074,0,0,0-9.87,3.85q-3.71,3.85-3.71,10.29v38.5q0,6.44,3.71,10.29A13.075,13.075,0,0,0,118.16,124.6Zm70.98-39.62a22.2,22.2,0,0,1-19.39-10.99,21.539,21.539,0,0,1-3.01-11.13,21.172,21.172,0,0,1,3.01-11.06,22.751,22.751,0,0,1,8.12-8.05,21.8,21.8,0,0,1,11.27-3.01,21.172,21.172,0,0,1,11.06,3.01,22.931,22.931,0,0,1,8.05,8.05,21.172,21.172,0,0,1,3.01,11.06,21.932,21.932,0,0,1-2.94,11.13,21.5,21.5,0,0,1-8.05,8.05A21.932,21.932,0,0,1,189.14,84.98ZM183.68,140q-.98,0-1.26-.56a1.544,1.544,0,0,1,.14-1.4l52.78-94.92a2.313,2.313,0,0,1,2.1-1.12H247.8q.98,0,1.26.56a1.544,1.544,0,0,1-.14,1.4l-52.64,94.92a2.314,2.314,0,0,1-2.1,1.12Zm5.46-66.5a9.885,9.885,0,0,0,7.35-3.08,10.4,10.4,0,0,0,3.01-7.56,10.233,10.233,0,0,0-3.01-7.42,9.885,9.885,0,0,0-7.35-3.08,10.278,10.278,0,0,0-7.56,3.08,10.114,10.114,0,0,0-3.08,7.42A10.518,10.518,0,0,0,189.14,73.5Zm54.6,67.76a21.539,21.539,0,0,1-11.13-3.01,22.573,22.573,0,0,1-8.12-8.12A21.539,21.539,0,0,1,221.48,119a21.172,21.172,0,0,1,3.01-11.06,22.194,22.194,0,0,1,8.12-7.98,22.538,22.538,0,0,1,22.26,0,22.194,22.194,0,0,1,8.12,7.98A21.171,21.171,0,0,1,266,119a21.539,21.539,0,0,1-3.01,11.13,22.573,22.573,0,0,1-8.12,8.12A21.539,21.539,0,0,1,243.74,141.26Zm0-11.62a10.114,10.114,0,0,0,7.42-3.08,10.278,10.278,0,0,0,3.08-7.56,10.516,10.516,0,0,0-10.5-10.5,10.233,10.233,0,0,0-7.42,3.01,10.048,10.048,0,0,0-3.08,7.49,10.4,10.4,0,0,0,3.01,7.56A10.048,10.048,0,0,0,243.74,129.64Z" transform="matrix(0.985, 0.174, -0.174, 0.985, 558.891, 196.791)" fill="#efefef" opacity="0.668"/>
    <path id="Trazado_919" data-name="Trazado 919" d="M17.36,140q-2.1,0-1.4-1.96L46.34,59.78q.28-.84-.56-.84H19.6a.619.619,0,0,0-.7.7v6.44a1.673,1.673,0,0,1-1.68,1.68H4.48A1.673,1.673,0,0,1,2.8,66.08l.14-22.4A1.673,1.673,0,0,1,4.62,42H65.8a1.673,1.673,0,0,1,1.68,1.68V57.82a6.91,6.91,0,0,1-.42,2.1L36.82,138.74A1.834,1.834,0,0,1,34.86,140ZM138.18,95.34a45.343,45.343,0,0,1,2.1,13.3,35.182,35.182,0,0,1-2.24,12.88,27.665,27.665,0,0,1-11.34,14.21,34.287,34.287,0,0,1-19.04,5.25,34.121,34.121,0,0,1-18.69-5.11,27.861,27.861,0,0,1-11.41-13.93,40.62,40.62,0,0,1-2.1-7.7v-.28q0-1.54,1.68-1.54H94.08a1.794,1.794,0,0,1,1.82,1.54,4.975,4.975,0,0,0,.42,1.4,7.681,7.681,0,0,1,.42.98,11.765,11.765,0,0,0,4.2,5.6,11.183,11.183,0,0,0,6.58,1.96,11.5,11.5,0,0,0,6.86-2.1,12.209,12.209,0,0,0,4.34-5.88,16.313,16.313,0,0,0,1.4-7.28,19.849,19.849,0,0,0-1.26-7.28,9.412,9.412,0,0,0-3.92-5.6,12.077,12.077,0,0,0-6.86-1.96,15.044,15.044,0,0,0-7.28,1.82,9.181,9.181,0,0,0-4.48,4.76,1.757,1.757,0,0,1-1.82,1.4H77.28a1.673,1.673,0,0,1-1.68-1.68V43.68A1.673,1.673,0,0,1,77.28,42H135.1a1.673,1.673,0,0,1,1.68,1.68V57.26a1.673,1.673,0,0,1-1.68,1.68H96.04a.619.619,0,0,0-.7.7L95.2,80.36q0,.98.84.42a26.283,26.283,0,0,1,14.56-4.06,29.882,29.882,0,0,1,17.15,4.97A26.84,26.84,0,0,1,138.18,95.34Zm37.66-10.36a22.2,22.2,0,0,1-19.39-10.99,21.539,21.539,0,0,1-3.01-11.13,21.172,21.172,0,0,1,3.01-11.06,22.751,22.751,0,0,1,8.12-8.05,21.8,21.8,0,0,1,11.27-3.01,21.172,21.172,0,0,1,11.06,3.01,22.931,22.931,0,0,1,8.05,8.05,21.172,21.172,0,0,1,3.01,11.06,21.932,21.932,0,0,1-2.94,11.13,21.5,21.5,0,0,1-8.05,8.05A21.932,21.932,0,0,1,175.84,84.98ZM170.38,140q-.98,0-1.26-.56a1.544,1.544,0,0,1,.14-1.4l52.78-94.92a2.313,2.313,0,0,1,2.1-1.12H234.5q.98,0,1.26.56a1.544,1.544,0,0,1-.14,1.4l-52.64,94.92a2.313,2.313,0,0,1-2.1,1.12Zm5.46-66.5a9.885,9.885,0,0,0,7.35-3.08,10.4,10.4,0,0,0,3.01-7.56,10.233,10.233,0,0,0-3.01-7.42,9.885,9.885,0,0,0-7.35-3.08,10.278,10.278,0,0,0-7.56,3.08,10.114,10.114,0,0,0-3.08,7.42A10.518,10.518,0,0,0,175.84,73.5Zm54.6,67.76a21.539,21.539,0,0,1-11.13-3.01,22.573,22.573,0,0,1-8.12-8.12A21.539,21.539,0,0,1,208.18,119a21.172,21.172,0,0,1,3.01-11.06,22.194,22.194,0,0,1,8.12-7.98,22.538,22.538,0,0,1,22.26,0,22.194,22.194,0,0,1,8.12,7.98A21.172,21.172,0,0,1,252.7,119a21.54,21.54,0,0,1-3.01,11.13,22.573,22.573,0,0,1-8.12,8.12A21.539,21.539,0,0,1,230.44,141.26Zm0-11.62a10.114,10.114,0,0,0,7.42-3.08,10.278,10.278,0,0,0,3.08-7.56,10.516,10.516,0,0,0-10.5-10.5,10.233,10.233,0,0,0-7.42,3.01,10.048,10.048,0,0,0-3.08,7.49,10.4,10.4,0,0,0,3.01,7.56A10.048,10.048,0,0,0,230.44,129.64Z" transform="matrix(0.951, 0.309, -0.309, 0.951, 144.373, 10.977)" fill="#efefef"/>
    <path id="Trazado_929" data-name="Trazado 929" d="M12.239,105.086q-1.361,0-.908-1.271L31.025,53.083q.182-.545-.363-.545H13.691a.4.4,0,0,0-.454.454v4.175a1.085,1.085,0,0,1-1.089,1.089H3.889A1.085,1.085,0,0,1,2.8,57.167l.091-14.521A1.085,1.085,0,0,1,3.98,41.557H43.64a1.085,1.085,0,0,1,1.089,1.089v9.166a4.479,4.479,0,0,1-.272,1.361l-19.6,51.1a1.189,1.189,0,0,1-1.271.817ZM90.561,76.135a29.394,29.394,0,0,1,1.361,8.622,22.807,22.807,0,0,1-1.452,8.35,17.934,17.934,0,0,1-7.351,9.212,22.227,22.227,0,0,1-12.343,3.4,22.119,22.119,0,0,1-12.116-3.313,18.061,18.061,0,0,1-7.4-9.03A26.332,26.332,0,0,1,49.9,88.387v-.182q0-1,1.089-1H61.973a1.163,1.163,0,0,1,1.18,1,3.225,3.225,0,0,0,.272.908,4.979,4.979,0,0,1,.272.635,7.627,7.627,0,0,0,2.723,3.63,7.249,7.249,0,0,0,4.266,1.271,7.452,7.452,0,0,0,4.447-1.361,7.914,7.914,0,0,0,2.813-3.812,10.575,10.575,0,0,0,.908-4.719,12.867,12.867,0,0,0-.817-4.719,6.1,6.1,0,0,0-2.541-3.63,7.829,7.829,0,0,0-4.447-1.271,9.753,9.753,0,0,0-4.719,1.18,5.952,5.952,0,0,0-2.9,3.086,1.139,1.139,0,0,1-1.18.908H51.082a1.085,1.085,0,0,1-1.089-1.089V42.646a1.085,1.085,0,0,1,1.089-1.089H88.565a1.085,1.085,0,0,1,1.089,1.089v8.8a1.085,1.085,0,0,1-1.089,1.089H63.244a.4.4,0,0,0-.454.454L62.7,66.424q0,.635.545.272a17.038,17.038,0,0,1,9.439-2.632A19.371,19.371,0,0,1,83.8,67.286,17.4,17.4,0,0,1,90.561,76.135Zm24.413-6.716a14.391,14.391,0,0,1-12.57-7.124,13.963,13.963,0,0,1-1.951-7.215,13.725,13.725,0,0,1,1.951-7.17,14.748,14.748,0,0,1,5.264-5.218,14.13,14.13,0,0,1,7.306-1.951,13.725,13.725,0,0,1,7.17,1.951,14.865,14.865,0,0,1,5.218,5.218,13.725,13.725,0,0,1,1.951,7.17,14.218,14.218,0,0,1-1.906,7.215,13.937,13.937,0,0,1-5.218,5.218A14.218,14.218,0,0,1,114.975,69.419Zm-3.539,35.667q-.635,0-.817-.363a1,1,0,0,1,.091-.908l34.215-61.533a1.5,1.5,0,0,1,1.361-.726H153q.635,0,.817.363a1,1,0,0,1-.091.908L119.6,104.36a1.5,1.5,0,0,1-1.361.726Zm3.539-43.109a6.408,6.408,0,0,0,4.765-2,6.743,6.743,0,0,0,1.951-4.9,6.634,6.634,0,0,0-1.951-4.81,6.408,6.408,0,0,0-4.765-2,6.663,6.663,0,0,0-4.9,2,6.556,6.556,0,0,0-2,4.81,6.819,6.819,0,0,0,6.9,6.9ZM150.37,105.9a13.963,13.963,0,0,1-7.215-1.951,14.633,14.633,0,0,1-5.264-5.264,13.963,13.963,0,0,1-1.951-7.215,13.725,13.725,0,0,1,1.951-7.17,14.388,14.388,0,0,1,5.264-5.173,14.61,14.61,0,0,1,14.43,0,14.388,14.388,0,0,1,5.264,5.173,13.725,13.725,0,0,1,1.951,7.17,13.963,13.963,0,0,1-1.951,7.215,14.633,14.633,0,0,1-5.264,5.264A13.963,13.963,0,0,1,150.37,105.9Zm0-7.533a6.556,6.556,0,0,0,4.81-2,6.663,6.663,0,0,0,2-4.9,6.817,6.817,0,0,0-6.807-6.807,6.634,6.634,0,0,0-4.81,1.951,6.514,6.514,0,0,0-2,4.855,6.743,6.743,0,0,0,1.951,4.9A6.514,6.514,0,0,0,150.37,98.37Z" transform="translate(843.9 391)" fill="#efefef"/>
    <path id="Trazado_917" data-name="Trazado 917" d="M32.62,122.22a.457.457,0,0,0-.14.56.564.564,0,0,0,.56.28H70.98a1.673,1.673,0,0,1,1.68,1.68v13.58A1.673,1.673,0,0,1,70.98,140h-63a1.673,1.673,0,0,1-1.68-1.68V125.44a2.849,2.849,0,0,1,.84-2.1q6.86-6.72,14-14.63t8.96-9.87q3.92-4.62,7.98-8.82,12.74-14.14,12.74-21a10.347,10.347,0,0,0-3.5-8.05,13.085,13.085,0,0,0-9.1-3.15,13.085,13.085,0,0,0-9.1,3.15,10.666,10.666,0,0,0-3.5,8.33v3.5a1.673,1.673,0,0,1-1.68,1.68H7.42A1.673,1.673,0,0,1,5.74,72.8V66.22A24.062,24.062,0,0,1,10.5,52.85a27.616,27.616,0,0,1,11.55-8.89,40.776,40.776,0,0,1,16.17-3.08,37.919,37.919,0,0,1,17.29,3.71A27.967,27.967,0,0,1,66.85,54.6a25.629,25.629,0,0,1,3.99,14A27.839,27.839,0,0,1,67.9,80.64a66.572,66.572,0,0,1-8.82,13.3q-4.34,5.46-9.38,10.78t-14.98,15.4ZM147.14,95.34a45.344,45.344,0,0,1,2.1,13.3A35.182,35.182,0,0,1,147,121.52a27.665,27.665,0,0,1-11.34,14.21,34.287,34.287,0,0,1-19.04,5.25,34.121,34.121,0,0,1-18.69-5.11,27.861,27.861,0,0,1-11.41-13.93,40.62,40.62,0,0,1-2.1-7.7v-.28q0-1.54,1.68-1.54h16.94a1.794,1.794,0,0,1,1.82,1.54,4.975,4.975,0,0,0,.42,1.4,7.681,7.681,0,0,1,.42.98,11.765,11.765,0,0,0,4.2,5.6,11.182,11.182,0,0,0,6.58,1.96,11.5,11.5,0,0,0,6.86-2.1,12.209,12.209,0,0,0,4.34-5.88,16.313,16.313,0,0,0,1.4-7.28,19.849,19.849,0,0,0-1.26-7.28,9.412,9.412,0,0,0-3.92-5.6,12.077,12.077,0,0,0-6.86-1.96,15.044,15.044,0,0,0-7.28,1.82,9.181,9.181,0,0,0-4.48,4.76,1.757,1.757,0,0,1-1.82,1.4H86.24a1.673,1.673,0,0,1-1.68-1.68V43.68A1.673,1.673,0,0,1,86.24,42h57.82a1.673,1.673,0,0,1,1.68,1.68V57.26a1.673,1.673,0,0,1-1.68,1.68H105a.619.619,0,0,0-.7.7l-.14,20.72q0,.98.84.42a26.283,26.283,0,0,1,14.56-4.06,29.882,29.882,0,0,1,17.15,4.97A26.84,26.84,0,0,1,147.14,95.34ZM184.8,84.98a22.2,22.2,0,0,1-19.39-10.99,21.539,21.539,0,0,1-3.01-11.13,21.172,21.172,0,0,1,3.01-11.06,22.751,22.751,0,0,1,8.12-8.05,21.8,21.8,0,0,1,11.27-3.01,21.172,21.172,0,0,1,11.06,3.01,22.931,22.931,0,0,1,8.05,8.05,21.172,21.172,0,0,1,3.01,11.06,21.932,21.932,0,0,1-2.94,11.13,21.5,21.5,0,0,1-8.05,8.05A21.932,21.932,0,0,1,184.8,84.98ZM179.34,140q-.98,0-1.26-.56a1.544,1.544,0,0,1,.14-1.4L231,43.12A2.313,2.313,0,0,1,233.1,42h10.36q.98,0,1.26.56a1.544,1.544,0,0,1-.14,1.4l-52.64,94.92a2.314,2.314,0,0,1-2.1,1.12Zm5.46-66.5a9.885,9.885,0,0,0,7.35-3.08,10.4,10.4,0,0,0,3.01-7.56,10.233,10.233,0,0,0-3.01-7.42,9.885,9.885,0,0,0-7.35-3.08,10.278,10.278,0,0,0-7.56,3.08,10.114,10.114,0,0,0-3.08,7.42A10.518,10.518,0,0,0,184.8,73.5Zm54.6,67.76a21.539,21.539,0,0,1-11.13-3.01,22.573,22.573,0,0,1-8.12-8.12A21.539,21.539,0,0,1,217.14,119a21.172,21.172,0,0,1,3.01-11.06,22.194,22.194,0,0,1,8.12-7.98,22.538,22.538,0,0,1,22.26,0,22.194,22.194,0,0,1,8.12,7.98A21.171,21.171,0,0,1,261.66,119a21.539,21.539,0,0,1-3.01,11.13,22.572,22.572,0,0,1-8.12,8.12A21.539,21.539,0,0,1,239.4,141.26Zm0-11.62a10.114,10.114,0,0,0,7.42-3.08A10.278,10.278,0,0,0,249.9,119a10.516,10.516,0,0,0-10.5-10.5,10.233,10.233,0,0,0-7.42,3.01A10.048,10.048,0,0,0,228.9,119a10.4,10.4,0,0,0,3.01,7.56A10.048,10.048,0,0,0,239.4,129.64Z" transform="translate(151.986 524.358) rotate(14)" fill="#efefef"/>
    <path id="Trazado_928" data-name="Trazado 928" d="M24.379,97.24a.317.317,0,0,0-.1.388.391.391,0,0,0,.388.194H50.979a1.16,1.16,0,0,1,1.165,1.165V108.4a1.16,1.16,0,0,1-1.165,1.165H7.293A1.16,1.16,0,0,1,6.128,108.4V99.473a1.976,1.976,0,0,1,.582-1.456q4.757-4.66,9.708-10.145t6.213-6.844q2.718-3.2,5.533-6.116Q37,65.107,37,60.35a7.175,7.175,0,0,0-2.427-5.582,9.073,9.073,0,0,0-6.31-2.184,9.073,9.073,0,0,0-6.31,2.184,7.4,7.4,0,0,0-2.427,5.776v2.427a1.16,1.16,0,0,1-1.165,1.165H6.9A1.16,1.16,0,0,1,5.74,62.971V58.408a16.685,16.685,0,0,1,3.3-9.271,19.15,19.15,0,0,1,8.009-6.165,28.275,28.275,0,0,1,11.213-2.136A26.294,26.294,0,0,1,40.251,43.41a19.393,19.393,0,0,1,7.863,6.941,17.772,17.772,0,0,1,2.767,9.708,19.3,19.3,0,0,1-2.039,8.349,46.162,46.162,0,0,1-6.116,9.222q-3.009,3.786-6.5,7.475T25.835,95.784ZM103.79,78.6a31.442,31.442,0,0,1,1.456,9.222,24.4,24.4,0,0,1-1.553,8.931,19.183,19.183,0,0,1-7.863,9.853,23.775,23.775,0,0,1-13.2,3.64,23.66,23.66,0,0,1-12.96-3.543,19.319,19.319,0,0,1-7.912-9.659A28.166,28.166,0,0,1,60.3,91.706v-.194q0-1.068,1.165-1.068H73.21a1.244,1.244,0,0,1,1.262,1.068,3.45,3.45,0,0,0,.291.971,5.326,5.326,0,0,1,.291.68,8.158,8.158,0,0,0,2.912,3.883A7.754,7.754,0,0,0,82.529,98.4a7.971,7.971,0,0,0,4.757-1.456A8.466,8.466,0,0,0,90.3,92.871a11.312,11.312,0,0,0,.971-5.048,13.764,13.764,0,0,0-.874-5.048,6.527,6.527,0,0,0-2.718-3.883,8.374,8.374,0,0,0-4.757-1.359,10.432,10.432,0,0,0-5.048,1.262,6.366,6.366,0,0,0-3.107,3.3,1.219,1.219,0,0,1-1.262.971H61.56A1.16,1.16,0,0,1,60.4,81.9V42.779a1.16,1.16,0,0,1,1.165-1.165h40.094a1.16,1.16,0,0,1,1.165,1.165V52.2a1.16,1.16,0,0,1-1.165,1.165H74.569a.429.429,0,0,0-.485.485l-.1,14.368q0,.68.582.291a18.225,18.225,0,0,1,10.1-2.815,20.72,20.72,0,0,1,11.892,3.446A18.611,18.611,0,0,1,103.79,78.6ZM129.9,71.417A15.394,15.394,0,0,1,116.458,63.8a14.936,14.936,0,0,1-2.087-7.718,14.681,14.681,0,0,1,2.087-7.669,15.776,15.776,0,0,1,5.631-5.582A15.114,15.114,0,0,1,129.9,40.74a14.681,14.681,0,0,1,7.669,2.087,15.9,15.9,0,0,1,5.582,5.582,14.681,14.681,0,0,1,2.087,7.669A15.208,15.208,0,0,1,143.2,63.8a14.908,14.908,0,0,1-5.582,5.582A15.208,15.208,0,0,1,129.9,71.417Zm-3.786,38.152q-.68,0-.874-.388a1.07,1.07,0,0,1,.1-.971l36.6-65.819a1.6,1.6,0,0,1,1.456-.777h7.184q.68,0,.874.388a1.07,1.07,0,0,1-.1.971l-36.5,65.819a1.6,1.6,0,0,1-1.456.777ZM129.9,63.456a6.854,6.854,0,0,0,5.1-2.136,7.213,7.213,0,0,0,2.087-5.242A7.1,7.1,0,0,0,135,50.933a6.854,6.854,0,0,0-5.1-2.136,7.127,7.127,0,0,0-5.242,2.136,7.013,7.013,0,0,0-2.136,5.145,7.294,7.294,0,0,0,7.378,7.378Zm37.861,46.986a14.936,14.936,0,0,1-7.718-2.087,15.652,15.652,0,0,1-5.631-5.631,14.936,14.936,0,0,1-2.087-7.718,14.681,14.681,0,0,1,2.087-7.669,15.39,15.39,0,0,1,5.631-5.533,15.628,15.628,0,0,1,15.436,0,15.39,15.39,0,0,1,5.631,5.533,14.681,14.681,0,0,1,2.087,7.669,14.936,14.936,0,0,1-2.087,7.718,15.652,15.652,0,0,1-5.631,5.631A14.936,14.936,0,0,1,167.764,110.443Zm0-8.058a7.013,7.013,0,0,0,5.145-2.136,7.127,7.127,0,0,0,2.136-5.242,7.292,7.292,0,0,0-7.281-7.281,7.1,7.1,0,0,0-5.145,2.087,6.968,6.968,0,0,0-2.136,5.194,7.213,7.213,0,0,0,2.087,5.242A6.968,6.968,0,0,0,167.764,102.385Z" transform="translate(778 1478)" fill="#efefef"/>
    <path id="Trazado_921" data-name="Trazado 921" d="M22.57,91.757a.286.286,0,0,0-.088.351.353.353,0,0,0,.351.175H46.589a1.048,1.048,0,0,1,1.052,1.052v8.5a1.048,1.048,0,0,1-1.052,1.052H7.143a1.048,1.048,0,0,1-1.052-1.052V93.773a1.784,1.784,0,0,1,.526-1.315q4.3-4.208,8.766-9.16t5.61-6.18q2.454-2.893,5-5.522,7.977-8.854,7.977-13.149a6.478,6.478,0,0,0-2.191-5.04,8.193,8.193,0,0,0-5.7-1.972,8.193,8.193,0,0,0-5.7,1.972,6.678,6.678,0,0,0-2.191,5.216v2.191a1.048,1.048,0,0,1-1.052,1.052H6.792A1.048,1.048,0,0,1,5.74,60.814v-4.12a15.066,15.066,0,0,1,2.98-8.371,17.291,17.291,0,0,1,7.232-5.566,25.531,25.531,0,0,1,10.125-1.928A23.743,23.743,0,0,1,36.9,43.151,17.511,17.511,0,0,1,44,49.418a16.047,16.047,0,0,1,2.5,8.766,17.431,17.431,0,0,1-1.841,7.539,41.683,41.683,0,0,1-5.522,8.328q-2.717,3.419-5.873,6.75t-9.379,9.642Zm71.7-16.83a28.391,28.391,0,0,1,1.315,8.328,22.029,22.029,0,0,1-1.4,8.065,17.322,17.322,0,0,1-7.1,8.9A21.468,21.468,0,0,1,75.166,103.5a21.364,21.364,0,0,1-11.7-3.2,17.445,17.445,0,0,1-7.144-8.722A25.434,25.434,0,0,1,55,86.761v-.175q0-.964,1.052-.964H66.663a1.123,1.123,0,0,1,1.14.964,3.115,3.115,0,0,0,.263.877,4.809,4.809,0,0,1,.263.614,7.366,7.366,0,0,0,2.63,3.506,7,7,0,0,0,4.12,1.227,7.2,7.2,0,0,0,4.3-1.315,7.644,7.644,0,0,0,2.717-3.682,10.214,10.214,0,0,0,.877-4.558,12.428,12.428,0,0,0-.789-4.558,5.893,5.893,0,0,0-2.454-3.506,7.562,7.562,0,0,0-4.3-1.227A9.42,9.42,0,0,0,70.87,75.1a5.748,5.748,0,0,0-2.805,2.98,1.1,1.1,0,0,1-1.14.877H56.144a1.048,1.048,0,0,1-1.052-1.052V42.581a1.048,1.048,0,0,1,1.052-1.052h36.2A1.048,1.048,0,0,1,93.4,42.581v8.5a1.048,1.048,0,0,1-1.052,1.052H67.89a.387.387,0,0,0-.438.438l-.088,12.973q0,.614.526.263a16.457,16.457,0,0,1,9.116-2.542A18.71,18.71,0,0,1,87.745,66.38,16.805,16.805,0,0,1,94.275,74.927Zm23.58-6.487a13.9,13.9,0,0,1-12.141-6.881,13.487,13.487,0,0,1-1.885-6.969,13.256,13.256,0,0,1,1.885-6.925,14.245,14.245,0,0,1,5.084-5.04,13.648,13.648,0,0,1,7.057-1.885,13.256,13.256,0,0,1,6.925,1.885,14.358,14.358,0,0,1,5.04,5.04,13.256,13.256,0,0,1,1.885,6.925,13.733,13.733,0,0,1-1.841,6.969,13.462,13.462,0,0,1-5.04,5.04A13.733,13.733,0,0,1,117.855,68.44Zm-3.419,34.45q-.614,0-.789-.351a.967.967,0,0,1,.088-.877L146.783,42.23a1.449,1.449,0,0,1,1.315-.7h6.487q.614,0,.789.351a.967.967,0,0,1-.088.877l-32.96,59.433a1.449,1.449,0,0,1-1.315.7Zm3.419-41.638a6.189,6.189,0,0,0,4.6-1.928,6.513,6.513,0,0,0,1.885-4.734,6.407,6.407,0,0,0-1.885-4.646,6.189,6.189,0,0,0-4.6-1.928,6.436,6.436,0,0,0-4.734,1.928,6.333,6.333,0,0,0-1.928,4.646,6.586,6.586,0,0,0,6.662,6.662Zm34.187,42.427a13.487,13.487,0,0,1-6.969-1.885,14.133,14.133,0,0,1-5.084-5.084,13.487,13.487,0,0,1-1.885-6.969,13.256,13.256,0,0,1,1.885-6.925,13.9,13.9,0,0,1,5.084-5,14.111,14.111,0,0,1,13.938,0,13.9,13.9,0,0,1,5.084,5,13.256,13.256,0,0,1,1.885,6.925A13.486,13.486,0,0,1,164.1,96.71a14.133,14.133,0,0,1-5.084,5.084A13.487,13.487,0,0,1,152.042,103.679Zm0-7.276a6.333,6.333,0,0,0,4.646-1.928,6.436,6.436,0,0,0,1.928-4.734,6.584,6.584,0,0,0-6.574-6.574,6.407,6.407,0,0,0-4.646,1.885,6.292,6.292,0,0,0-1.928,4.69,6.513,6.513,0,0,0,1.885,4.734A6.292,6.292,0,0,0,152.042,96.4Z" transform="translate(520.84 1148.791)" fill="#efefef"/>
    <path id="Trazado_922" data-name="Trazado 922" d="M32.62,122.22a.457.457,0,0,0-.14.56.564.564,0,0,0,.56.28H70.98a1.673,1.673,0,0,1,1.68,1.68v13.58A1.673,1.673,0,0,1,70.98,140h-63a1.673,1.673,0,0,1-1.68-1.68V125.44a2.849,2.849,0,0,1,.84-2.1q6.86-6.72,14-14.63t8.96-9.87q3.92-4.62,7.98-8.82,12.74-14.14,12.74-21a10.347,10.347,0,0,0-3.5-8.05,13.085,13.085,0,0,0-9.1-3.15,13.085,13.085,0,0,0-9.1,3.15,10.666,10.666,0,0,0-3.5,8.33v3.5a1.673,1.673,0,0,1-1.68,1.68H7.42A1.673,1.673,0,0,1,5.74,72.8V66.22A24.062,24.062,0,0,1,10.5,52.85a27.616,27.616,0,0,1,11.55-8.89,40.776,40.776,0,0,1,16.17-3.08,37.919,37.919,0,0,1,17.29,3.71A27.967,27.967,0,0,1,66.85,54.6a25.629,25.629,0,0,1,3.99,14A27.839,27.839,0,0,1,67.9,80.64a66.572,66.572,0,0,1-8.82,13.3q-4.34,5.46-9.38,10.78t-14.98,15.4ZM147.14,95.34a45.344,45.344,0,0,1,2.1,13.3A35.182,35.182,0,0,1,147,121.52a27.665,27.665,0,0,1-11.34,14.21,34.287,34.287,0,0,1-19.04,5.25,34.121,34.121,0,0,1-18.69-5.11,27.861,27.861,0,0,1-11.41-13.93,40.62,40.62,0,0,1-2.1-7.7v-.28q0-1.54,1.68-1.54h16.94a1.794,1.794,0,0,1,1.82,1.54,4.975,4.975,0,0,0,.42,1.4,7.681,7.681,0,0,1,.42.98,11.765,11.765,0,0,0,4.2,5.6,11.182,11.182,0,0,0,6.58,1.96,11.5,11.5,0,0,0,6.86-2.1,12.209,12.209,0,0,0,4.34-5.88,16.313,16.313,0,0,0,1.4-7.28,19.849,19.849,0,0,0-1.26-7.28,9.412,9.412,0,0,0-3.92-5.6,12.077,12.077,0,0,0-6.86-1.96,15.044,15.044,0,0,0-7.28,1.82,9.181,9.181,0,0,0-4.48,4.76,1.757,1.757,0,0,1-1.82,1.4H86.24a1.673,1.673,0,0,1-1.68-1.68V43.68A1.673,1.673,0,0,1,86.24,42h57.82a1.673,1.673,0,0,1,1.68,1.68V57.26a1.673,1.673,0,0,1-1.68,1.68H105a.619.619,0,0,0-.7.7l-.14,20.72q0,.98.84.42a26.283,26.283,0,0,1,14.56-4.06,29.882,29.882,0,0,1,17.15,4.97A26.84,26.84,0,0,1,147.14,95.34ZM184.8,84.98a22.2,22.2,0,0,1-19.39-10.99,21.539,21.539,0,0,1-3.01-11.13,21.172,21.172,0,0,1,3.01-11.06,22.751,22.751,0,0,1,8.12-8.05,21.8,21.8,0,0,1,11.27-3.01,21.172,21.172,0,0,1,11.06,3.01,22.931,22.931,0,0,1,8.05,8.05,21.172,21.172,0,0,1,3.01,11.06,21.932,21.932,0,0,1-2.94,11.13,21.5,21.5,0,0,1-8.05,8.05A21.932,21.932,0,0,1,184.8,84.98ZM179.34,140q-.98,0-1.26-.56a1.544,1.544,0,0,1,.14-1.4L231,43.12A2.313,2.313,0,0,1,233.1,42h10.36q.98,0,1.26.56a1.544,1.544,0,0,1-.14,1.4l-52.64,94.92a2.314,2.314,0,0,1-2.1,1.12Zm5.46-66.5a9.885,9.885,0,0,0,7.35-3.08,10.4,10.4,0,0,0,3.01-7.56,10.233,10.233,0,0,0-3.01-7.42,9.885,9.885,0,0,0-7.35-3.08,10.278,10.278,0,0,0-7.56,3.08,10.114,10.114,0,0,0-3.08,7.42A10.518,10.518,0,0,0,184.8,73.5Zm54.6,67.76a21.539,21.539,0,0,1-11.13-3.01,22.573,22.573,0,0,1-8.12-8.12A21.539,21.539,0,0,1,217.14,119a21.172,21.172,0,0,1,3.01-11.06,22.194,22.194,0,0,1,8.12-7.98,22.538,22.538,0,0,1,22.26,0,22.194,22.194,0,0,1,8.12,7.98A21.171,21.171,0,0,1,261.66,119a21.539,21.539,0,0,1-3.01,11.13,22.572,22.572,0,0,1-8.12,8.12A21.539,21.539,0,0,1,239.4,141.26Zm0-11.62a10.114,10.114,0,0,0,7.42-3.08A10.278,10.278,0,0,0,249.9,119a10.516,10.516,0,0,0-10.5-10.5,10.233,10.233,0,0,0-7.42,3.01A10.048,10.048,0,0,0,228.9,119a10.4,10.4,0,0,0,3.01,7.56A10.048,10.048,0,0,0,239.4,129.64Z" transform="translate(666 23)" fill="#efefef"/>
    <path id="Trazado_914" data-name="Trazado 914" d="M21,42.42A4.164,4.164,0,0,1,23.1,42H40.04a1.673,1.673,0,0,1,1.68,1.68v94.64A1.673,1.673,0,0,1,40.04,140H23.66a1.673,1.673,0,0,1-1.68-1.68V61.6a.807.807,0,0,0-.28-.56.457.457,0,0,0-.56-.14L7.28,64.68l-.56.14q-1.26,0-1.26-1.54L5.04,51.24A1.982,1.982,0,0,1,6.3,49.28Zm97.3,52.92a45.344,45.344,0,0,1,2.1,13.3,35.183,35.183,0,0,1-2.24,12.88,27.665,27.665,0,0,1-11.34,14.21,34.287,34.287,0,0,1-19.04,5.25,34.121,34.121,0,0,1-18.69-5.11,27.861,27.861,0,0,1-11.41-13.93,40.62,40.62,0,0,1-2.1-7.7v-.28q0-1.54,1.68-1.54H74.2a1.794,1.794,0,0,1,1.82,1.54,4.975,4.975,0,0,0,.42,1.4,7.681,7.681,0,0,1,.42.98,11.765,11.765,0,0,0,4.2,5.6,11.183,11.183,0,0,0,6.58,1.96,11.5,11.5,0,0,0,6.86-2.1,12.209,12.209,0,0,0,4.34-5.88,16.313,16.313,0,0,0,1.4-7.28,19.849,19.849,0,0,0-1.26-7.28,9.412,9.412,0,0,0-3.92-5.6A12.077,12.077,0,0,0,88.2,93.8a15.044,15.044,0,0,0-7.28,1.82,9.181,9.181,0,0,0-4.48,4.76,1.757,1.757,0,0,1-1.82,1.4H57.4a1.673,1.673,0,0,1-1.68-1.68V43.68A1.673,1.673,0,0,1,57.4,42h57.82a1.673,1.673,0,0,1,1.68,1.68V57.26a1.673,1.673,0,0,1-1.68,1.68H76.16a.619.619,0,0,0-.7.7l-.14,20.72q0,.98.84.42a26.283,26.283,0,0,1,14.56-4.06,29.882,29.882,0,0,1,17.15,4.97A26.84,26.84,0,0,1,118.3,95.34Zm37.66-10.36a22.2,22.2,0,0,1-19.39-10.99,21.539,21.539,0,0,1-3.01-11.13,21.172,21.172,0,0,1,3.01-11.06,22.751,22.751,0,0,1,8.12-8.05,21.8,21.8,0,0,1,11.27-3.01,21.172,21.172,0,0,1,11.06,3.01,22.931,22.931,0,0,1,8.05,8.05,21.172,21.172,0,0,1,3.01,11.06,21.932,21.932,0,0,1-2.94,11.13,21.5,21.5,0,0,1-8.05,8.05A21.932,21.932,0,0,1,155.96,84.98ZM150.5,140q-.98,0-1.26-.56a1.544,1.544,0,0,1,.14-1.4l52.78-94.92a2.313,2.313,0,0,1,2.1-1.12h10.36q.98,0,1.26.56a1.544,1.544,0,0,1-.14,1.4L163.1,138.88A2.314,2.314,0,0,1,161,140Zm5.46-66.5a9.885,9.885,0,0,0,7.35-3.08,10.4,10.4,0,0,0,3.01-7.56,10.233,10.233,0,0,0-3.01-7.42,9.885,9.885,0,0,0-7.35-3.08,10.278,10.278,0,0,0-7.56,3.08,10.114,10.114,0,0,0-3.08,7.42A10.518,10.518,0,0,0,155.96,73.5Zm54.6,67.76a21.539,21.539,0,0,1-11.13-3.01,22.573,22.573,0,0,1-8.12-8.12A21.539,21.539,0,0,1,188.3,119a21.172,21.172,0,0,1,3.01-11.06,22.194,22.194,0,0,1,8.12-7.98,22.538,22.538,0,0,1,22.26,0,22.194,22.194,0,0,1,8.12,7.98A21.172,21.172,0,0,1,232.82,119a21.539,21.539,0,0,1-3.01,11.13,22.573,22.573,0,0,1-8.12,8.12A21.539,21.539,0,0,1,210.56,141.26Zm0-11.62a10.114,10.114,0,0,0,7.42-3.08,10.278,10.278,0,0,0,3.08-7.56,10.516,10.516,0,0,0-10.5-10.5,10.233,10.233,0,0,0-7.42,3.01,10.048,10.048,0,0,0-3.08,7.49,10.4,10.4,0,0,0,3.01,7.56A10.048,10.048,0,0,0,210.56,129.64Z" transform="translate(126 841)" fill="#efefef" opacity="0.31"/>
    <path id="Trazado_931" data-name="Trazado 931" d="M21,42.42A4.164,4.164,0,0,1,23.1,42H40.04a1.673,1.673,0,0,1,1.68,1.68v94.64A1.673,1.673,0,0,1,40.04,140H23.66a1.673,1.673,0,0,1-1.68-1.68V61.6a.807.807,0,0,0-.28-.56.457.457,0,0,0-.56-.14L7.28,64.68l-.56.14q-1.26,0-1.26-1.54L5.04,51.24A1.982,1.982,0,0,1,6.3,49.28Zm97.3,52.92a45.344,45.344,0,0,1,2.1,13.3,35.183,35.183,0,0,1-2.24,12.88,27.665,27.665,0,0,1-11.34,14.21,34.287,34.287,0,0,1-19.04,5.25,34.121,34.121,0,0,1-18.69-5.11,27.861,27.861,0,0,1-11.41-13.93,40.62,40.62,0,0,1-2.1-7.7v-.28q0-1.54,1.68-1.54H74.2a1.794,1.794,0,0,1,1.82,1.54,4.975,4.975,0,0,0,.42,1.4,7.681,7.681,0,0,1,.42.98,11.765,11.765,0,0,0,4.2,5.6,11.183,11.183,0,0,0,6.58,1.96,11.5,11.5,0,0,0,6.86-2.1,12.209,12.209,0,0,0,4.34-5.88,16.313,16.313,0,0,0,1.4-7.28,19.849,19.849,0,0,0-1.26-7.28,9.412,9.412,0,0,0-3.92-5.6A12.077,12.077,0,0,0,88.2,93.8a15.044,15.044,0,0,0-7.28,1.82,9.181,9.181,0,0,0-4.48,4.76,1.757,1.757,0,0,1-1.82,1.4H57.4a1.673,1.673,0,0,1-1.68-1.68V43.68A1.673,1.673,0,0,1,57.4,42h57.82a1.673,1.673,0,0,1,1.68,1.68V57.26a1.673,1.673,0,0,1-1.68,1.68H76.16a.619.619,0,0,0-.7.7l-.14,20.72q0,.98.84.42a26.283,26.283,0,0,1,14.56-4.06,29.882,29.882,0,0,1,17.15,4.97A26.84,26.84,0,0,1,118.3,95.34Zm37.66-10.36a22.2,22.2,0,0,1-19.39-10.99,21.539,21.539,0,0,1-3.01-11.13,21.172,21.172,0,0,1,3.01-11.06,22.751,22.751,0,0,1,8.12-8.05,21.8,21.8,0,0,1,11.27-3.01,21.172,21.172,0,0,1,11.06,3.01,22.931,22.931,0,0,1,8.05,8.05,21.172,21.172,0,0,1,3.01,11.06,21.932,21.932,0,0,1-2.94,11.13,21.5,21.5,0,0,1-8.05,8.05A21.932,21.932,0,0,1,155.96,84.98ZM150.5,140q-.98,0-1.26-.56a1.544,1.544,0,0,1,.14-1.4l52.78-94.92a2.313,2.313,0,0,1,2.1-1.12h10.36q.98,0,1.26.56a1.544,1.544,0,0,1-.14,1.4L163.1,138.88A2.314,2.314,0,0,1,161,140Zm5.46-66.5a9.885,9.885,0,0,0,7.35-3.08,10.4,10.4,0,0,0,3.01-7.56,10.233,10.233,0,0,0-3.01-7.42,9.885,9.885,0,0,0-7.35-3.08,10.278,10.278,0,0,0-7.56,3.08,10.114,10.114,0,0,0-3.08,7.42A10.518,10.518,0,0,0,155.96,73.5Zm54.6,67.76a21.539,21.539,0,0,1-11.13-3.01,22.573,22.573,0,0,1-8.12-8.12A21.539,21.539,0,0,1,188.3,119a21.172,21.172,0,0,1,3.01-11.06,22.194,22.194,0,0,1,8.12-7.98,22.538,22.538,0,0,1,22.26,0,22.194,22.194,0,0,1,8.12,7.98A21.172,21.172,0,0,1,232.82,119a21.539,21.539,0,0,1-3.01,11.13,22.573,22.573,0,0,1-8.12,8.12A21.539,21.539,0,0,1,210.56,141.26Zm0-11.62a10.114,10.114,0,0,0,7.42-3.08,10.278,10.278,0,0,0,3.08-7.56,10.516,10.516,0,0,0-10.5-10.5,10.233,10.233,0,0,0-7.42,3.01,10.048,10.048,0,0,0-3.08,7.49,10.4,10.4,0,0,0,3.01,7.56A10.048,10.048,0,0,0,210.56,129.64Z" transform="matrix(0.951, 0.309, -0.309, 0.951, 822.941, 1158.703)" fill="#efefef"/>
    <path id="Trazado_926" data-name="Trazado 926" d="M21,42.42A4.164,4.164,0,0,1,23.1,42H40.04a1.673,1.673,0,0,1,1.68,1.68v94.64A1.673,1.673,0,0,1,40.04,140H23.66a1.673,1.673,0,0,1-1.68-1.68V61.6a.807.807,0,0,0-.28-.56.457.457,0,0,0-.56-.14L7.28,64.68l-.56.14q-1.26,0-1.26-1.54L5.04,51.24A1.982,1.982,0,0,1,6.3,49.28Zm97.3,52.92a45.344,45.344,0,0,1,2.1,13.3,35.183,35.183,0,0,1-2.24,12.88,27.665,27.665,0,0,1-11.34,14.21,34.287,34.287,0,0,1-19.04,5.25,34.121,34.121,0,0,1-18.69-5.11,27.861,27.861,0,0,1-11.41-13.93,40.62,40.62,0,0,1-2.1-7.7v-.28q0-1.54,1.68-1.54H74.2a1.794,1.794,0,0,1,1.82,1.54,4.975,4.975,0,0,0,.42,1.4,7.681,7.681,0,0,1,.42.98,11.765,11.765,0,0,0,4.2,5.6,11.183,11.183,0,0,0,6.58,1.96,11.5,11.5,0,0,0,6.86-2.1,12.209,12.209,0,0,0,4.34-5.88,16.313,16.313,0,0,0,1.4-7.28,19.849,19.849,0,0,0-1.26-7.28,9.412,9.412,0,0,0-3.92-5.6A12.077,12.077,0,0,0,88.2,93.8a15.044,15.044,0,0,0-7.28,1.82,9.181,9.181,0,0,0-4.48,4.76,1.757,1.757,0,0,1-1.82,1.4H57.4a1.673,1.673,0,0,1-1.68-1.68V43.68A1.673,1.673,0,0,1,57.4,42h57.82a1.673,1.673,0,0,1,1.68,1.68V57.26a1.673,1.673,0,0,1-1.68,1.68H76.16a.619.619,0,0,0-.7.7l-.14,20.72q0,.98.84.42a26.283,26.283,0,0,1,14.56-4.06,29.882,29.882,0,0,1,17.15,4.97A26.84,26.84,0,0,1,118.3,95.34Zm37.66-10.36a22.2,22.2,0,0,1-19.39-10.99,21.539,21.539,0,0,1-3.01-11.13,21.172,21.172,0,0,1,3.01-11.06,22.751,22.751,0,0,1,8.12-8.05,21.8,21.8,0,0,1,11.27-3.01,21.172,21.172,0,0,1,11.06,3.01,22.931,22.931,0,0,1,8.05,8.05,21.172,21.172,0,0,1,3.01,11.06,21.932,21.932,0,0,1-2.94,11.13,21.5,21.5,0,0,1-8.05,8.05A21.932,21.932,0,0,1,155.96,84.98ZM150.5,140q-.98,0-1.26-.56a1.544,1.544,0,0,1,.14-1.4l52.78-94.92a2.313,2.313,0,0,1,2.1-1.12h10.36q.98,0,1.26.56a1.544,1.544,0,0,1-.14,1.4L163.1,138.88A2.314,2.314,0,0,1,161,140Zm5.46-66.5a9.885,9.885,0,0,0,7.35-3.08,10.4,10.4,0,0,0,3.01-7.56,10.233,10.233,0,0,0-3.01-7.42,9.885,9.885,0,0,0-7.35-3.08,10.278,10.278,0,0,0-7.56,3.08,10.114,10.114,0,0,0-3.08,7.42A10.518,10.518,0,0,0,155.96,73.5Zm54.6,67.76a21.539,21.539,0,0,1-11.13-3.01,22.573,22.573,0,0,1-8.12-8.12A21.539,21.539,0,0,1,188.3,119a21.172,21.172,0,0,1,3.01-11.06,22.194,22.194,0,0,1,8.12-7.98,22.538,22.538,0,0,1,22.26,0,22.194,22.194,0,0,1,8.12,7.98A21.172,21.172,0,0,1,232.82,119a21.539,21.539,0,0,1-3.01,11.13,22.573,22.573,0,0,1-8.12,8.12A21.539,21.539,0,0,1,210.56,141.26Zm0-11.62a10.114,10.114,0,0,0,7.42-3.08,10.278,10.278,0,0,0,3.08-7.56,10.516,10.516,0,0,0-10.5-10.5,10.233,10.233,0,0,0-7.42,3.01,10.048,10.048,0,0,0-3.08,7.49,10.4,10.4,0,0,0,3.01,7.56A10.048,10.048,0,0,0,210.56,129.64Z" transform="translate(495 1284)" fill="#efefef" opacity="0.507"/>
    <path id="Trazado_915" data-name="Trazado 915" d="M68.74,95.34a45.344,45.344,0,0,1,2.1,13.3,35.182,35.182,0,0,1-2.24,12.88,27.665,27.665,0,0,1-11.34,14.21,34.287,34.287,0,0,1-19.04,5.25,34.121,34.121,0,0,1-18.69-5.11A27.861,27.861,0,0,1,8.12,121.94a40.62,40.62,0,0,1-2.1-7.7v-.28q0-1.54,1.68-1.54H24.64a1.794,1.794,0,0,1,1.82,1.54,4.976,4.976,0,0,0,.42,1.4,7.682,7.682,0,0,1,.42.98,11.765,11.765,0,0,0,4.2,5.6,11.183,11.183,0,0,0,6.58,1.96,11.5,11.5,0,0,0,6.86-2.1,12.209,12.209,0,0,0,4.34-5.88,16.313,16.313,0,0,0,1.4-7.28,19.849,19.849,0,0,0-1.26-7.28,9.412,9.412,0,0,0-3.92-5.6,12.077,12.077,0,0,0-6.86-1.96,15.044,15.044,0,0,0-7.28,1.82,9.181,9.181,0,0,0-4.48,4.76,1.757,1.757,0,0,1-1.82,1.4H7.84a1.673,1.673,0,0,1-1.68-1.68V43.68A1.673,1.673,0,0,1,7.84,42H65.66a1.673,1.673,0,0,1,1.68,1.68V57.26a1.673,1.673,0,0,1-1.68,1.68H26.6a.619.619,0,0,0-.7.7l-.14,20.72q0,.98.84.42a26.283,26.283,0,0,1,14.56-4.06,29.882,29.882,0,0,1,17.15,4.97A26.84,26.84,0,0,1,68.74,95.34ZM106.4,84.98A22.2,22.2,0,0,1,87.01,73.99,21.539,21.539,0,0,1,84,62.86,21.172,21.172,0,0,1,87.01,51.8a22.75,22.75,0,0,1,8.12-8.05,21.8,21.8,0,0,1,11.27-3.01,21.172,21.172,0,0,1,11.06,3.01,22.931,22.931,0,0,1,8.05,8.05,21.172,21.172,0,0,1,3.01,11.06,21.932,21.932,0,0,1-2.94,11.13,21.5,21.5,0,0,1-8.05,8.05A21.932,21.932,0,0,1,106.4,84.98ZM100.94,140q-.98,0-1.26-.56a1.544,1.544,0,0,1,.14-1.4L152.6,43.12A2.313,2.313,0,0,1,154.7,42h10.36q.98,0,1.26.56a1.544,1.544,0,0,1-.14,1.4l-52.64,94.92a2.313,2.313,0,0,1-2.1,1.12Zm5.46-66.5a9.885,9.885,0,0,0,7.35-3.08,10.4,10.4,0,0,0,3.01-7.56,10.233,10.233,0,0,0-3.01-7.42,9.885,9.885,0,0,0-7.35-3.08,10.278,10.278,0,0,0-7.56,3.08,10.114,10.114,0,0,0-3.08,7.42A10.518,10.518,0,0,0,106.4,73.5ZM161,141.26a21.539,21.539,0,0,1-11.13-3.01,22.573,22.573,0,0,1-8.12-8.12A21.539,21.539,0,0,1,138.74,119a21.172,21.172,0,0,1,3.01-11.06,22.194,22.194,0,0,1,8.12-7.98,22.538,22.538,0,0,1,22.26,0,22.194,22.194,0,0,1,8.12,7.98A21.172,21.172,0,0,1,183.26,119a21.539,21.539,0,0,1-3.01,11.13,22.573,22.573,0,0,1-8.12,8.12A21.539,21.539,0,0,1,161,141.26Zm0-11.62a10.114,10.114,0,0,0,7.42-3.08A10.278,10.278,0,0,0,171.5,119,10.516,10.516,0,0,0,161,108.5a10.233,10.233,0,0,0-7.42,3.01A10.048,10.048,0,0,0,150.5,119a10.4,10.4,0,0,0,3.01,7.56A10.048,10.048,0,0,0,161,129.64Z" transform="matrix(0.978, 0.208, -0.208, 0.978, 209.988, 1076.312)" fill="#efefef"/>
    <path id="Trazado_936" data-name="Trazado 936" d="M51.817,80.608a33.109,33.109,0,0,1,1.533,9.711,25.689,25.689,0,0,1-1.636,9.4,20.2,20.2,0,0,1-8.28,10.376,25.036,25.036,0,0,1-13.9,3.833A24.914,24.914,0,0,1,15.885,110.2,20.343,20.343,0,0,1,7.553,100.03,29.66,29.66,0,0,1,6.02,94.408v-.2q0-1.124,1.227-1.124H19.616A1.31,1.31,0,0,1,20.945,94.2a3.633,3.633,0,0,0,.307,1.022,5.609,5.609,0,0,1,.307.716,8.59,8.59,0,0,0,3.067,4.089,8.165,8.165,0,0,0,4.8,1.431,8.394,8.394,0,0,0,5.009-1.533,8.915,8.915,0,0,0,3.169-4.293,11.912,11.912,0,0,0,1.022-5.316A14.493,14.493,0,0,0,37.71,85a6.873,6.873,0,0,0-2.862-4.089,8.818,8.818,0,0,0-5.009-1.431,10.985,10.985,0,0,0-5.316,1.329,6.7,6.7,0,0,0-3.271,3.476,1.283,1.283,0,0,1-1.329,1.022H7.349a1.222,1.222,0,0,1-1.227-1.227v-41.2A1.222,1.222,0,0,1,7.349,41.66H49.568a1.222,1.222,0,0,1,1.227,1.227V52.8a1.222,1.222,0,0,1-1.227,1.227H21.047a.452.452,0,0,0-.511.511l-.1,15.129q0,.716.613.307a19.191,19.191,0,0,1,10.631-2.965A21.819,21.819,0,0,1,44.2,70.641,19.6,19.6,0,0,1,51.817,80.608Zm27.5-7.565a16.21,16.21,0,0,1-14.158-8.025,15.728,15.728,0,0,1-2.2-8.127,15.459,15.459,0,0,1,2.2-8.076,16.612,16.612,0,0,1,5.929-5.878,15.916,15.916,0,0,1,8.229-2.2,15.459,15.459,0,0,1,8.076,2.2,16.744,16.744,0,0,1,5.878,5.878,15.459,15.459,0,0,1,2.2,8.076,16.015,16.015,0,0,1-2.147,8.127A15.7,15.7,0,0,1,87.442,70.9,16.015,16.015,0,0,1,79.315,73.043Zm-3.987,40.174q-.716,0-.92-.409a1.127,1.127,0,0,1,.1-1.022l38.539-69.308a1.689,1.689,0,0,1,1.533-.818h7.565q.716,0,.92.409a1.127,1.127,0,0,1-.1,1.022L84.529,112.4a1.689,1.689,0,0,1-1.533.818Zm3.987-48.557a7.218,7.218,0,0,0,5.367-2.249,7.6,7.6,0,0,0,2.2-5.52,7.472,7.472,0,0,0-2.2-5.418,7.218,7.218,0,0,0-5.367-2.249,7.5,7.5,0,0,0-5.52,2.249,7.385,7.385,0,0,0-2.249,5.418,7.68,7.68,0,0,0,7.769,7.769Zm39.868,49.477a15.728,15.728,0,0,1-8.127-2.2,16.482,16.482,0,0,1-5.929-5.929,15.728,15.728,0,0,1-2.2-8.127,15.459,15.459,0,0,1,2.2-8.076,16.2,16.2,0,0,1,5.929-5.827,16.456,16.456,0,0,1,16.254,0,16.2,16.2,0,0,1,5.929,5.827,15.459,15.459,0,0,1,2.2,8.076,15.728,15.728,0,0,1-2.2,8.127,16.482,16.482,0,0,1-5.929,5.929A15.728,15.728,0,0,1,119.183,114.137Zm0-8.485A7.385,7.385,0,0,0,124.6,103.4a7.5,7.5,0,0,0,2.249-5.52,7.678,7.678,0,0,0-7.667-7.667,7.472,7.472,0,0,0-5.418,2.2,7.337,7.337,0,0,0-2.249,5.469,7.6,7.6,0,0,0,2.2,5.52A7.337,7.337,0,0,0,119.183,105.653Z" transform="matrix(0.978, 0.208, -0.208, 0.978, 899.767, 1701.255)" fill="#efefef"/>
    <path id="Trazado_924" data-name="Trazado 924" d="M68.74,95.34a45.344,45.344,0,0,1,2.1,13.3,35.182,35.182,0,0,1-2.24,12.88,27.665,27.665,0,0,1-11.34,14.21,34.287,34.287,0,0,1-19.04,5.25,34.121,34.121,0,0,1-18.69-5.11A27.861,27.861,0,0,1,8.12,121.94a40.62,40.62,0,0,1-2.1-7.7v-.28q0-1.54,1.68-1.54H24.64a1.794,1.794,0,0,1,1.82,1.54,4.976,4.976,0,0,0,.42,1.4,7.682,7.682,0,0,1,.42.98,11.765,11.765,0,0,0,4.2,5.6,11.183,11.183,0,0,0,6.58,1.96,11.5,11.5,0,0,0,6.86-2.1,12.209,12.209,0,0,0,4.34-5.88,16.313,16.313,0,0,0,1.4-7.28,19.849,19.849,0,0,0-1.26-7.28,9.412,9.412,0,0,0-3.92-5.6,12.077,12.077,0,0,0-6.86-1.96,15.044,15.044,0,0,0-7.28,1.82,9.181,9.181,0,0,0-4.48,4.76,1.757,1.757,0,0,1-1.82,1.4H7.84a1.673,1.673,0,0,1-1.68-1.68V43.68A1.673,1.673,0,0,1,7.84,42H65.66a1.673,1.673,0,0,1,1.68,1.68V57.26a1.673,1.673,0,0,1-1.68,1.68H26.6a.619.619,0,0,0-.7.7l-.14,20.72q0,.98.84.42a26.283,26.283,0,0,1,14.56-4.06,29.882,29.882,0,0,1,17.15,4.97A26.84,26.84,0,0,1,68.74,95.34ZM106.4,84.98A22.2,22.2,0,0,1,87.01,73.99,21.539,21.539,0,0,1,84,62.86,21.172,21.172,0,0,1,87.01,51.8a22.75,22.75,0,0,1,8.12-8.05,21.8,21.8,0,0,1,11.27-3.01,21.172,21.172,0,0,1,11.06,3.01,22.931,22.931,0,0,1,8.05,8.05,21.172,21.172,0,0,1,3.01,11.06,21.932,21.932,0,0,1-2.94,11.13,21.5,21.5,0,0,1-8.05,8.05A21.932,21.932,0,0,1,106.4,84.98ZM100.94,140q-.98,0-1.26-.56a1.544,1.544,0,0,1,.14-1.4L152.6,43.12A2.313,2.313,0,0,1,154.7,42h10.36q.98,0,1.26.56a1.544,1.544,0,0,1-.14,1.4l-52.64,94.92a2.313,2.313,0,0,1-2.1,1.12Zm5.46-66.5a9.885,9.885,0,0,0,7.35-3.08,10.4,10.4,0,0,0,3.01-7.56,10.233,10.233,0,0,0-3.01-7.42,9.885,9.885,0,0,0-7.35-3.08,10.278,10.278,0,0,0-7.56,3.08,10.114,10.114,0,0,0-3.08,7.42A10.518,10.518,0,0,0,106.4,73.5ZM161,141.26a21.539,21.539,0,0,1-11.13-3.01,22.573,22.573,0,0,1-8.12-8.12A21.539,21.539,0,0,1,138.74,119a21.172,21.172,0,0,1,3.01-11.06,22.194,22.194,0,0,1,8.12-7.98,22.538,22.538,0,0,1,22.26,0,22.194,22.194,0,0,1,8.12,7.98A21.172,21.172,0,0,1,183.26,119a21.539,21.539,0,0,1-3.01,11.13,22.573,22.573,0,0,1-8.12,8.12A21.539,21.539,0,0,1,161,141.26Zm0-11.62a10.114,10.114,0,0,0,7.42-3.08A10.278,10.278,0,0,0,171.5,119,10.516,10.516,0,0,0,161,108.5a10.233,10.233,0,0,0-7.42,3.01A10.048,10.048,0,0,0,150.5,119a10.4,10.4,0,0,0,3.01,7.56A10.048,10.048,0,0,0,161,129.64Z" transform="matrix(0.966, -0.259, 0.259, 0.966, 473.672, 472.595)" fill="#efefef" opacity="0.651"/>
    <path id="Trazado_916" data-name="Trazado 916" d="M55.285,83.532a30.094,30.094,0,0,1,2.282,12.1,31.044,31.044,0,0,1-2.054,11.411,22.542,22.542,0,0,1-9.186,11.411,27.74,27.74,0,0,1-15.234,4.108,26.992,26.992,0,0,1-15.234-4.336,24.123,24.123,0,0,1-9.414-11.753A32.483,32.483,0,0,1,4.62,96.883a1.21,1.21,0,0,1,1.369-1.369H19.454a1.21,1.21,0,0,1,1.369,1.369,21.191,21.191,0,0,0,1.255,5.591,9.139,9.139,0,0,0,3.366,4.622,9.336,9.336,0,0,0,5.534,1.655q6.39,0,8.787-5.591a18.712,18.712,0,0,0,1.6-7.988,19.644,19.644,0,0,0-1.712-8.787,9.054,9.054,0,0,0-8.787-5.363,5.516,5.516,0,0,0-2.625.742,34.312,34.312,0,0,0-3.309,2.111,1.517,1.517,0,0,1-.913.342,1.1,1.1,0,0,1-1.027-.685l-6.733-9.471a1.406,1.406,0,0,1-.228-.8,1.548,1.548,0,0,1,.456-1.141L34.631,56.259A.474.474,0,0,0,34.8,55.8q-.057-.228-.4-.228H7.587a1.364,1.364,0,0,1-1.369-1.369V43.136a1.364,1.364,0,0,1,1.369-1.369H55.171a1.364,1.364,0,0,1,1.369,1.369V55.689a2.4,2.4,0,0,1-.8,1.712L40.793,71.094a.474.474,0,0,0-.171.456q.057.228.514.228Q51.063,73.718,55.285,83.532Zm39.6,39.368q-12.552,0-19.855-7.018t-7.3-19.114V66.643q0-11.868,7.3-18.828t19.855-6.961q12.552,0,19.912,6.961t7.36,18.828V96.769q0,12.1-7.36,19.114T94.882,122.9Zm0-13.807a10.8,10.8,0,0,0,8.159-3.138,11.577,11.577,0,0,0,3.024-8.387V66.187a11.577,11.577,0,0,0-3.024-8.387,10.8,10.8,0,0,0-8.159-3.138A10.657,10.657,0,0,0,86.837,57.8a11.577,11.577,0,0,0-3.024,8.387V97.567a11.577,11.577,0,0,0,3.024,8.387A10.657,10.657,0,0,0,94.882,109.093ZM152.736,76.8a18.095,18.095,0,0,1-15.8-8.958,17.556,17.556,0,0,1-2.453-9.072,17.257,17.257,0,0,1,2.453-9.015,18.544,18.544,0,0,1,6.618-6.561,17.766,17.766,0,0,1,9.186-2.453,17.257,17.257,0,0,1,9.015,2.453,18.691,18.691,0,0,1,6.561,6.561,17.256,17.256,0,0,1,2.453,9.015,17.877,17.877,0,0,1-2.4,9.072,17.524,17.524,0,0,1-6.561,6.561A17.877,17.877,0,0,1,152.736,76.8Zm-4.45,44.846q-.8,0-1.027-.456a1.258,1.258,0,0,1,.114-1.141l43.02-77.367a1.886,1.886,0,0,1,1.712-.913h8.444q.8,0,1.027.456a1.258,1.258,0,0,1-.114,1.141l-42.906,77.367a1.886,1.886,0,0,1-1.712.913Zm4.45-54.2a8.057,8.057,0,0,0,5.991-2.51,8.478,8.478,0,0,0,2.453-6.162,8.341,8.341,0,0,0-2.453-6.048,8.057,8.057,0,0,0-5.991-2.51,8.378,8.378,0,0,0-6.162,2.51,8.243,8.243,0,0,0-2.51,6.048,8.573,8.573,0,0,0,8.672,8.672Zm44.5,55.23a17.556,17.556,0,0,1-9.072-2.453,18.4,18.4,0,0,1-6.618-6.618,17.556,17.556,0,0,1-2.453-9.072,17.257,17.257,0,0,1,2.453-9.015,18.09,18.09,0,0,1,6.618-6.5,18.37,18.37,0,0,1,18.144,0,18.09,18.09,0,0,1,6.618,6.5,17.257,17.257,0,0,1,2.453,9.015,17.556,17.556,0,0,1-2.453,9.072,18.4,18.4,0,0,1-6.618,6.618A17.556,17.556,0,0,1,197.24,122.672Zm0-9.471a8.243,8.243,0,0,0,6.048-2.51,8.378,8.378,0,0,0,2.51-6.162,8.571,8.571,0,0,0-8.558-8.558,8.341,8.341,0,0,0-6.048,2.453,8.19,8.19,0,0,0-2.51,6.1,8.478,8.478,0,0,0,2.453,6.162A8.19,8.19,0,0,0,197.24,113.2Z" transform="translate(194.816 1469)" fill="#efefef" opacity="0.399"/>
    <path id="Trazado_932" data-name="Trazado 932" d="M51.294,80.161A27.723,27.723,0,0,1,53.4,91.3,28.6,28.6,0,0,1,51.5,101.816a20.766,20.766,0,0,1-8.462,10.512,25.554,25.554,0,0,1-14.034,3.784,24.865,24.865,0,0,1-14.034-3.995A22.223,22.223,0,0,1,6.3,101.29,29.924,29.924,0,0,1,4.62,92.46,1.115,1.115,0,0,1,5.881,91.2h12.4a1.115,1.115,0,0,1,1.261,1.261A19.522,19.522,0,0,0,20.7,97.611a8.419,8.419,0,0,0,3.1,4.257,8.6,8.6,0,0,0,5.1,1.524q5.887,0,8.094-5.151a17.238,17.238,0,0,0,1.472-7.359,18.1,18.1,0,0,0-1.577-8.094A8.34,8.34,0,0,0,28.8,77.848a5.081,5.081,0,0,0-2.418.683,31.61,31.61,0,0,0-3.049,1.945,1.4,1.4,0,0,1-.841.315,1.01,1.01,0,0,1-.946-.631l-6.2-8.725a1.3,1.3,0,0,1-.21-.736,1.426,1.426,0,0,1,.42-1.051L32.267,55.037a.437.437,0,0,0,.158-.42q-.053-.21-.368-.21H7.353a1.256,1.256,0,0,1-1.261-1.261v-10.2a1.256,1.256,0,0,1,1.261-1.261H51.189a1.256,1.256,0,0,1,1.261,1.261V54.511a2.21,2.21,0,0,1-.736,1.577L37.944,68.7a.437.437,0,0,0-.158.42q.053.21.473.21Q47.4,71.12,51.294,80.161Zm36.477,36.267q-11.563,0-18.291-6.465T62.752,92.355V64.6q0-10.933,6.728-17.345t18.291-6.412q11.563,0,18.344,6.412T112.9,64.6V92.355q0,11.143-6.78,17.608T87.771,116.428Zm0-12.72a9.951,9.951,0,0,0,7.516-2.891,10.665,10.665,0,0,0,2.786-7.726V64.182a10.665,10.665,0,0,0-2.786-7.726,9.951,9.951,0,0,0-7.516-2.891,9.817,9.817,0,0,0-7.411,2.891,10.665,10.665,0,0,0-2.786,7.726V93.091a10.665,10.665,0,0,0,2.786,7.726A9.817,9.817,0,0,0,87.771,103.708Zm53.3-29.749a16.669,16.669,0,0,1-14.559-8.252,16.173,16.173,0,0,1-2.26-8.357,15.9,15.9,0,0,1,2.26-8.3,17.083,17.083,0,0,1,6.1-6.045,16.367,16.367,0,0,1,8.462-2.26,15.9,15.9,0,0,1,8.3,2.26,17.218,17.218,0,0,1,6.045,6.045,15.9,15.9,0,0,1,2.26,8.3,16.468,16.468,0,0,1-2.208,8.357,16.144,16.144,0,0,1-6.044,6.045A16.468,16.468,0,0,1,141.068,73.958Zm-4.1,41.313q-.736,0-.946-.42a1.159,1.159,0,0,1,.105-1.051l39.631-71.273a1.737,1.737,0,0,1,1.577-.841h7.779q.736,0,.946.42a1.159,1.159,0,0,1-.105,1.051L146.429,114.43a1.737,1.737,0,0,1-1.577.841Zm4.1-49.933a7.422,7.422,0,0,0,5.519-2.313,7.81,7.81,0,0,0,2.26-5.677,7.684,7.684,0,0,0-2.26-5.571,7.422,7.422,0,0,0-5.519-2.313,7.718,7.718,0,0,0-5.677,2.313,7.594,7.594,0,0,0-2.313,5.571,7.9,7.9,0,0,0,7.989,7.989Zm41,50.879a16.173,16.173,0,0,1-8.357-2.26,16.949,16.949,0,0,1-6.1-6.1,16.173,16.173,0,0,1-2.26-8.357,15.9,15.9,0,0,1,2.26-8.3,16.665,16.665,0,0,1,6.1-5.992,16.923,16.923,0,0,1,16.714,0,16.665,16.665,0,0,1,6.1,5.992,15.9,15.9,0,0,1,2.26,8.3,16.173,16.173,0,0,1-2.26,8.357,16.949,16.949,0,0,1-6.1,6.1A16.173,16.173,0,0,1,182.066,116.217Zm0-8.725a7.594,7.594,0,0,0,5.571-2.313A7.718,7.718,0,0,0,189.95,99.5a7.9,7.9,0,0,0-7.884-7.884,7.684,7.684,0,0,0-5.571,2.26,7.545,7.545,0,0,0-2.313,5.624,7.81,7.81,0,0,0,2.26,5.677A7.545,7.545,0,0,0,182.066,107.492Z" transform="translate(470.42 1519)" fill="#efefef" opacity="0.6"/>
    <path id="Trazado_925" data-name="Trazado 925" d="M57.992,85.817a31.7,31.7,0,0,1,2.4,12.742,32.7,32.7,0,0,1-2.164,12.021A23.746,23.746,0,0,1,48.555,122.6a29.221,29.221,0,0,1-16.048,4.327A28.433,28.433,0,0,1,16.46,122.36a25.412,25.412,0,0,1-9.917-12.381,34.218,34.218,0,0,1-1.923-10.1,1.275,1.275,0,0,1,1.442-1.442H20.247a1.275,1.275,0,0,1,1.442,1.442,22.323,22.323,0,0,0,1.322,5.89,9.627,9.627,0,0,0,3.546,4.868,9.834,9.834,0,0,0,5.83,1.743q6.732,0,9.256-5.89a19.711,19.711,0,0,0,1.683-8.414,20.693,20.693,0,0,0-1.8-9.256,9.537,9.537,0,0,0-9.256-5.65,5.81,5.81,0,0,0-2.765.781,36.145,36.145,0,0,0-3.486,2.224,1.6,1.6,0,0,1-.962.361,1.155,1.155,0,0,1-1.082-.721L16.881,75.84a1.481,1.481,0,0,1-.24-.841,1.631,1.631,0,0,1,.481-1.2L36.234,57.088a.5.5,0,0,0,.18-.481q-.06-.24-.421-.24H7.745A1.436,1.436,0,0,1,6.3,54.924V43.264a1.436,1.436,0,0,1,1.442-1.442H57.871a1.436,1.436,0,0,1,1.442,1.442V56.487a2.527,2.527,0,0,1-.841,1.8L42.725,72.715a.5.5,0,0,0-.18.481q.06.24.541.24Q53.544,75.48,57.992,85.817ZM99.7,127.289q-13.223,0-20.916-7.393T71.094,99.761V68.027q0-12.5,7.693-19.834T99.7,40.86q13.223,0,20.976,7.333t7.753,19.834V99.761q0,12.742-7.753,20.135T99.7,127.289Zm0-14.545a11.379,11.379,0,0,0,8.595-3.306,12.2,12.2,0,0,0,3.185-8.835V67.546a12.2,12.2,0,0,0-3.185-8.835A11.379,11.379,0,0,0,99.7,55.405a11.226,11.226,0,0,0-8.475,3.306,12.2,12.2,0,0,0-3.185,8.835V100.6a12.2,12.2,0,0,0,3.185,8.835A11.226,11.226,0,0,0,99.7,112.744Zm60.945-34.018A19.061,19.061,0,0,1,144,69.289a18.494,18.494,0,0,1-2.584-9.556,18.178,18.178,0,0,1,2.584-9.5,19.534,19.534,0,0,1,6.972-6.912,18.715,18.715,0,0,1,9.677-2.584,18.178,18.178,0,0,1,9.5,2.584,19.689,19.689,0,0,1,6.912,6.912,18.178,18.178,0,0,1,2.584,9.5,18.832,18.832,0,0,1-2.524,9.556A18.46,18.46,0,0,1,170.2,76.2,18.832,18.832,0,0,1,160.648,78.725Zm-4.688,47.241q-.841,0-1.082-.481a1.325,1.325,0,0,1,.12-1.2l45.318-81.5a1.986,1.986,0,0,1,1.8-.962h8.9q.841,0,1.082.481a1.325,1.325,0,0,1-.12,1.2l-45.2,81.5a1.986,1.986,0,0,1-1.8.962Zm4.688-57.1a8.487,8.487,0,0,0,6.311-2.645,8.931,8.931,0,0,0,2.584-6.491,8.786,8.786,0,0,0-2.584-6.371,8.487,8.487,0,0,0-6.311-2.645,8.825,8.825,0,0,0-6.491,2.645,8.684,8.684,0,0,0-2.645,6.371,9.031,9.031,0,0,0,9.136,9.136Zm46.881,58.18a18.494,18.494,0,0,1-9.556-2.584A19.381,19.381,0,0,1,191,117.492a18.494,18.494,0,0,1-2.584-9.556,18.178,18.178,0,0,1,2.584-9.5,19.056,19.056,0,0,1,6.972-6.852,19.351,19.351,0,0,1,19.113,0,19.056,19.056,0,0,1,6.972,6.852,18.178,18.178,0,0,1,2.584,9.5,18.494,18.494,0,0,1-2.584,9.556,19.381,19.381,0,0,1-6.972,6.972A18.494,18.494,0,0,1,207.528,127.048Zm0-9.977a8.684,8.684,0,0,0,6.371-2.645,8.825,8.825,0,0,0,2.645-6.491,9.029,9.029,0,0,0-9.015-9.015,8.786,8.786,0,0,0-6.371,2.584,8.628,8.628,0,0,0-2.645,6.431,8.931,8.931,0,0,0,2.584,6.491A8.628,8.628,0,0,0,207.528,117.071Z" transform="translate(736.402 638.259) rotate(-14)" fill="#efefef"/>
    <path id="Trazado_937" data-name="Trazado 937" d="M35.93,67.184a18.6,18.6,0,0,1,1.41,7.475,19.184,19.184,0,0,1-1.269,7.052,13.93,13.93,0,0,1-5.677,7.052A17.142,17.142,0,0,1,20.98,91.3a16.68,16.68,0,0,1-9.414-2.68,14.907,14.907,0,0,1-5.818-7.263A20.074,20.074,0,0,1,4.62,75.435a.748.748,0,0,1,.846-.846h8.321a.748.748,0,0,1,.846.846,13.1,13.1,0,0,0,.776,3.455,5.648,5.648,0,0,0,2.08,2.856,5.769,5.769,0,0,0,3.42,1.023,5.413,5.413,0,0,0,5.43-3.455,11.563,11.563,0,0,0,.987-4.936,12.139,12.139,0,0,0-1.058-5.43,5.6,5.6,0,0,0-5.43-3.314,3.409,3.409,0,0,0-1.622.458,21.205,21.205,0,0,0-2.045,1.3.938.938,0,0,1-.564.212.678.678,0,0,1-.635-.423l-4.161-5.853a.869.869,0,0,1-.141-.494.957.957,0,0,1,.282-.705l11.212-9.8a.293.293,0,0,0,.106-.282q-.035-.141-.247-.141H6.453a.843.843,0,0,1-.846-.846v-6.84a.843.843,0,0,1,.846-.846H35.859a.843.843,0,0,1,.846.846v7.757a1.482,1.482,0,0,1-.494,1.058L26.974,59.5a.293.293,0,0,0-.106.282q.035.141.317.141A11.522,11.522,0,0,1,35.93,67.184ZM60.4,91.512q-7.757,0-12.27-4.337T43.616,75.364V56.747q0-7.334,4.513-11.635t12.27-4.3q7.757,0,12.305,4.3t4.548,11.635V75.364q0,7.475-4.548,11.812T60.4,91.512Zm0-8.533a6.676,6.676,0,0,0,5.042-1.939,7.154,7.154,0,0,0,1.869-5.183V56.465a7.154,7.154,0,0,0-1.869-5.183A6.676,6.676,0,0,0,60.4,49.343a6.586,6.586,0,0,0-4.971,1.939,7.154,7.154,0,0,0-1.869,5.183V75.858a7.154,7.154,0,0,0,1.869,5.183A6.586,6.586,0,0,0,60.4,82.98ZM96.151,63.023a11.182,11.182,0,0,1-9.767-5.536,10.849,10.849,0,0,1-1.516-5.606,10.664,10.664,0,0,1,1.516-5.571,11.459,11.459,0,0,1,4.09-4.055,10.979,10.979,0,0,1,5.677-1.516,10.664,10.664,0,0,1,5.571,1.516,11.55,11.55,0,0,1,4.055,4.055,10.664,10.664,0,0,1,1.516,5.571,11.047,11.047,0,0,1-1.481,5.606,10.829,10.829,0,0,1-4.055,4.055A11.047,11.047,0,0,1,96.151,63.023ZM93.4,90.737q-.494,0-.635-.282a.778.778,0,0,1,.071-.705l26.585-47.811a1.165,1.165,0,0,1,1.058-.564H125.7q.494,0,.635.282a.778.778,0,0,1-.071.705L99.748,90.173a1.165,1.165,0,0,1-1.058.564Zm2.75-33.5a4.979,4.979,0,0,0,3.7-1.551,5.239,5.239,0,0,0,1.516-3.808,5.154,5.154,0,0,0-1.516-3.737,4.979,4.979,0,0,0-3.7-1.551,5.177,5.177,0,0,0-3.808,1.551,5.094,5.094,0,0,0-1.551,3.737,5.3,5.3,0,0,0,5.359,5.359Zm27.5,34.13a10.849,10.849,0,0,1-5.606-1.516,11.37,11.37,0,0,1-4.09-4.09,10.849,10.849,0,0,1-1.516-5.606,10.664,10.664,0,0,1,1.516-5.571,11.179,11.179,0,0,1,4.09-4.019,11.352,11.352,0,0,1,11.212,0,11.179,11.179,0,0,1,4.09,4.019,10.664,10.664,0,0,1,1.516,5.571,10.849,10.849,0,0,1-1.516,5.606,11.37,11.37,0,0,1-4.09,4.09A10.849,10.849,0,0,1,123.653,91.371Zm0-5.853a5.094,5.094,0,0,0,3.737-1.551,5.177,5.177,0,0,0,1.551-3.808,5.3,5.3,0,0,0-5.289-5.289,5.154,5.154,0,0,0-3.737,1.516,5.061,5.061,0,0,0-1.551,3.773,5.239,5.239,0,0,0,1.516,3.808A5.061,5.061,0,0,0,123.653,85.519Z" transform="translate(245.057 427.972) rotate(-14)" fill="#efefef"/>
    <path id="Trazado_913" data-name="Trazado 913" d="M68.74,95.34a45.344,45.344,0,0,1,2.1,13.3,35.182,35.182,0,0,1-2.24,12.88,27.665,27.665,0,0,1-11.34,14.21,34.287,34.287,0,0,1-19.04,5.25,34.121,34.121,0,0,1-18.69-5.11A27.861,27.861,0,0,1,8.12,121.94a40.62,40.62,0,0,1-2.1-7.7v-.28q0-1.54,1.68-1.54H24.64a1.794,1.794,0,0,1,1.82,1.54,4.976,4.976,0,0,0,.42,1.4,7.682,7.682,0,0,1,.42.98,11.765,11.765,0,0,0,4.2,5.6,11.183,11.183,0,0,0,6.58,1.96,11.5,11.5,0,0,0,6.86-2.1,12.209,12.209,0,0,0,4.34-5.88,16.313,16.313,0,0,0,1.4-7.28,19.849,19.849,0,0,0-1.26-7.28,9.412,9.412,0,0,0-3.92-5.6,12.077,12.077,0,0,0-6.86-1.96,15.044,15.044,0,0,0-7.28,1.82,9.181,9.181,0,0,0-4.48,4.76,1.757,1.757,0,0,1-1.82,1.4H7.84a1.673,1.673,0,0,1-1.68-1.68V43.68A1.673,1.673,0,0,1,7.84,42H65.66a1.673,1.673,0,0,1,1.68,1.68V57.26a1.673,1.673,0,0,1-1.68,1.68H26.6a.619.619,0,0,0-.7.7l-.14,20.72q0,.98.84.42a26.283,26.283,0,0,1,14.56-4.06,29.882,29.882,0,0,1,17.15,4.97A26.84,26.84,0,0,1,68.74,95.34Zm46.48,46.2q-15.4,0-24.36-8.61T81.9,109.48V72.52q0-14.56,8.96-23.1t24.36-8.54q15.4,0,24.43,8.54t9.03,23.1v36.96q0,14.84-9.03,23.45T115.22,141.54Zm0-16.94q6.3,0,10.01-3.85t3.71-10.29V71.96q0-6.44-3.71-10.29t-10.01-3.85a13.074,13.074,0,0,0-9.87,3.85q-3.71,3.85-3.71,10.29v38.5q0,6.44,3.71,10.29A13.075,13.075,0,0,0,115.22,124.6ZM186.2,84.98a22.2,22.2,0,0,1-19.39-10.99,21.539,21.539,0,0,1-3.01-11.13,21.172,21.172,0,0,1,3.01-11.06,22.751,22.751,0,0,1,8.12-8.05,21.8,21.8,0,0,1,11.27-3.01,21.172,21.172,0,0,1,11.06,3.01,22.931,22.931,0,0,1,8.05,8.05,21.172,21.172,0,0,1,3.01,11.06,21.932,21.932,0,0,1-2.94,11.13,21.5,21.5,0,0,1-8.05,8.05A21.932,21.932,0,0,1,186.2,84.98ZM180.74,140q-.98,0-1.26-.56a1.544,1.544,0,0,1,.14-1.4L232.4,43.12A2.313,2.313,0,0,1,234.5,42h10.36q.98,0,1.26.56a1.544,1.544,0,0,1-.14,1.4l-52.64,94.92a2.314,2.314,0,0,1-2.1,1.12Zm5.46-66.5a9.885,9.885,0,0,0,7.35-3.08,10.4,10.4,0,0,0,3.01-7.56,10.233,10.233,0,0,0-3.01-7.42,9.885,9.885,0,0,0-7.35-3.08,10.278,10.278,0,0,0-7.56,3.08,10.114,10.114,0,0,0-3.08,7.42A10.518,10.518,0,0,0,186.2,73.5Zm54.6,67.76a21.539,21.539,0,0,1-11.13-3.01,22.573,22.573,0,0,1-8.12-8.12A21.539,21.539,0,0,1,218.54,119a21.172,21.172,0,0,1,3.01-11.06,22.194,22.194,0,0,1,8.12-7.98,22.538,22.538,0,0,1,22.26,0,22.194,22.194,0,0,1,8.12,7.98A21.171,21.171,0,0,1,263.06,119a21.539,21.539,0,0,1-3.01,11.13,22.573,22.573,0,0,1-8.12,8.12A21.539,21.539,0,0,1,240.8,141.26Zm0-11.62a10.114,10.114,0,0,0,7.42-3.08A10.278,10.278,0,0,0,251.3,119a10.516,10.516,0,0,0-10.5-10.5,10.233,10.233,0,0,0-7.42,3.01A10.048,10.048,0,0,0,230.3,119a10.4,10.4,0,0,0,3.01,7.56A10.048,10.048,0,0,0,240.8,129.64Z" transform="translate(138.526 1635.647) rotate(17)" fill="#efefef"/>
    <path id="Trazado_934" data-name="Trazado 934" d="M68.74,95.34a45.344,45.344,0,0,1,2.1,13.3,35.182,35.182,0,0,1-2.24,12.88,27.665,27.665,0,0,1-11.34,14.21,34.287,34.287,0,0,1-19.04,5.25,34.121,34.121,0,0,1-18.69-5.11A27.861,27.861,0,0,1,8.12,121.94a40.62,40.62,0,0,1-2.1-7.7v-.28q0-1.54,1.68-1.54H24.64a1.794,1.794,0,0,1,1.82,1.54,4.976,4.976,0,0,0,.42,1.4,7.682,7.682,0,0,1,.42.98,11.765,11.765,0,0,0,4.2,5.6,11.183,11.183,0,0,0,6.58,1.96,11.5,11.5,0,0,0,6.86-2.1,12.209,12.209,0,0,0,4.34-5.88,16.313,16.313,0,0,0,1.4-7.28,19.849,19.849,0,0,0-1.26-7.28,9.412,9.412,0,0,0-3.92-5.6,12.077,12.077,0,0,0-6.86-1.96,15.044,15.044,0,0,0-7.28,1.82,9.181,9.181,0,0,0-4.48,4.76,1.757,1.757,0,0,1-1.82,1.4H7.84a1.673,1.673,0,0,1-1.68-1.68V43.68A1.673,1.673,0,0,1,7.84,42H65.66a1.673,1.673,0,0,1,1.68,1.68V57.26a1.673,1.673,0,0,1-1.68,1.68H26.6a.619.619,0,0,0-.7.7l-.14,20.72q0,.98.84.42a26.283,26.283,0,0,1,14.56-4.06,29.882,29.882,0,0,1,17.15,4.97A26.84,26.84,0,0,1,68.74,95.34Zm46.48,46.2q-15.4,0-24.36-8.61T81.9,109.48V72.52q0-14.56,8.96-23.1t24.36-8.54q15.4,0,24.43,8.54t9.03,23.1v36.96q0,14.84-9.03,23.45T115.22,141.54Zm0-16.94q6.3,0,10.01-3.85t3.71-10.29V71.96q0-6.44-3.71-10.29t-10.01-3.85a13.074,13.074,0,0,0-9.87,3.85q-3.71,3.85-3.71,10.29v38.5q0,6.44,3.71,10.29A13.075,13.075,0,0,0,115.22,124.6ZM186.2,84.98a22.2,22.2,0,0,1-19.39-10.99,21.539,21.539,0,0,1-3.01-11.13,21.172,21.172,0,0,1,3.01-11.06,22.751,22.751,0,0,1,8.12-8.05,21.8,21.8,0,0,1,11.27-3.01,21.172,21.172,0,0,1,11.06,3.01,22.931,22.931,0,0,1,8.05,8.05,21.172,21.172,0,0,1,3.01,11.06,21.932,21.932,0,0,1-2.94,11.13,21.5,21.5,0,0,1-8.05,8.05A21.932,21.932,0,0,1,186.2,84.98ZM180.74,140q-.98,0-1.26-.56a1.544,1.544,0,0,1,.14-1.4L232.4,43.12A2.313,2.313,0,0,1,234.5,42h10.36q.98,0,1.26.56a1.544,1.544,0,0,1-.14,1.4l-52.64,94.92a2.314,2.314,0,0,1-2.1,1.12Zm5.46-66.5a9.885,9.885,0,0,0,7.35-3.08,10.4,10.4,0,0,0,3.01-7.56,10.233,10.233,0,0,0-3.01-7.42,9.885,9.885,0,0,0-7.35-3.08,10.278,10.278,0,0,0-7.56,3.08,10.114,10.114,0,0,0-3.08,7.42A10.518,10.518,0,0,0,186.2,73.5Zm54.6,67.76a21.539,21.539,0,0,1-11.13-3.01,22.573,22.573,0,0,1-8.12-8.12A21.539,21.539,0,0,1,218.54,119a21.172,21.172,0,0,1,3.01-11.06,22.194,22.194,0,0,1,8.12-7.98,22.538,22.538,0,0,1,22.26,0,22.194,22.194,0,0,1,8.12,7.98A21.171,21.171,0,0,1,263.06,119a21.539,21.539,0,0,1-3.01,11.13,22.573,22.573,0,0,1-8.12,8.12A21.539,21.539,0,0,1,240.8,141.26Zm0-11.62a10.114,10.114,0,0,0,7.42-3.08A10.278,10.278,0,0,0,251.3,119a10.516,10.516,0,0,0-10.5-10.5,10.233,10.233,0,0,0-7.42,3.01A10.048,10.048,0,0,0,230.3,119a10.4,10.4,0,0,0,3.01,7.56A10.048,10.048,0,0,0,240.8,129.64Z" transform="translate(511.526 701.647) rotate(17)" fill="#efefef"/>
    <path id="Trazado_938" data-name="Trazado 938" d="M41.894,71.97a25.936,25.936,0,0,1,1.2,7.607,20.124,20.124,0,0,1-1.281,7.367,15.824,15.824,0,0,1-6.486,8.128,19.612,19.612,0,0,1-10.89,3,19.517,19.517,0,0,1-10.69-2.923,15.936,15.936,0,0,1-6.526-7.968,23.234,23.234,0,0,1-1.2-4.4v-.16q0-.881.961-.881H16.67a1.026,1.026,0,0,1,1.041.881,2.846,2.846,0,0,0,.24.8,4.394,4.394,0,0,1,.24.561,6.729,6.729,0,0,0,2.4,3.2,6.4,6.4,0,0,0,3.764,1.121,6.575,6.575,0,0,0,3.924-1.2,6.983,6.983,0,0,0,2.482-3.363,9.331,9.331,0,0,0,.8-4.164,11.353,11.353,0,0,0-.721-4.164,5.384,5.384,0,0,0-2.242-3.2,6.908,6.908,0,0,0-3.924-1.121,8.6,8.6,0,0,0-4.164,1.041,5.251,5.251,0,0,0-2.562,2.723,1,1,0,0,1-1.041.8H7.061a.957.957,0,0,1-.961-.961V42.422a.957.957,0,0,1,.961-.961H40.133a.957.957,0,0,1,.961.961v7.767a.957.957,0,0,1-.961.961H17.791a.354.354,0,0,0-.4.4L17.311,63.4q0,.561.48.24a15.033,15.033,0,0,1,8.328-2.322,17.092,17.092,0,0,1,9.809,2.843A15.352,15.352,0,0,1,41.894,71.97ZM68.48,98.4q-8.808,0-13.933-4.925T49.422,80.058V58.917q0-8.328,5.125-13.213T68.48,40.82q8.808,0,13.973,4.885t5.165,13.213v21.14q0,8.488-5.165,13.413T68.48,98.4Zm0-9.689a7.581,7.581,0,0,0,5.725-2.2,8.124,8.124,0,0,0,2.122-5.886V58.6a8.124,8.124,0,0,0-2.122-5.886,7.581,7.581,0,0,0-5.725-2.2,7.478,7.478,0,0,0-5.645,2.2A8.124,8.124,0,0,0,60.713,58.6V80.618A8.124,8.124,0,0,0,62.835,86.5,7.478,7.478,0,0,0,68.48,88.706Zm40.6-22.662a12.7,12.7,0,0,1-11.091-6.286,12.32,12.32,0,0,1-1.722-6.366,12.11,12.11,0,0,1,1.722-6.326,13.013,13.013,0,0,1,4.644-4.6,12.467,12.467,0,0,1,6.446-1.722,12.11,12.11,0,0,1,6.326,1.722,13.116,13.116,0,0,1,4.6,4.6,12.11,12.11,0,0,1,1.722,6.326,12.545,12.545,0,0,1-1.682,6.366,12.3,12.3,0,0,1-4.6,4.6A12.545,12.545,0,0,1,109.079,66.044Zm-3.123,31.47q-.561,0-.721-.32a.883.883,0,0,1,.08-.8L135.5,42.1a1.323,1.323,0,0,1,1.2-.641h5.926q.561,0,.721.32a.883.883,0,0,1-.08.8L113.163,96.874a1.323,1.323,0,0,1-1.2.641Zm3.123-38.037a5.654,5.654,0,0,0,4.2-1.762A5.95,5.95,0,0,0,115,53.392a5.853,5.853,0,0,0-1.722-4.244,5.654,5.654,0,0,0-4.2-1.762,5.879,5.879,0,0,0-4.324,1.762,5.785,5.785,0,0,0-1.762,4.244,6.016,6.016,0,0,0,6.086,6.086Zm31.23,38.757a12.32,12.32,0,0,1-6.366-1.722,12.911,12.911,0,0,1-4.644-4.644,12.32,12.32,0,0,1-1.722-6.366,12.11,12.11,0,0,1,1.722-6.326,12.694,12.694,0,0,1,4.644-4.564,12.891,12.891,0,0,1,12.732,0,12.694,12.694,0,0,1,4.644,4.564,12.11,12.11,0,0,1,1.722,6.326,12.32,12.32,0,0,1-1.722,6.366,12.911,12.911,0,0,1-4.644,4.644A12.32,12.32,0,0,1,140.309,98.235Zm0-6.646a5.785,5.785,0,0,0,4.244-1.762,5.879,5.879,0,0,0,1.762-4.324,6.015,6.015,0,0,0-6.006-6.006,5.853,5.853,0,0,0-4.244,1.722A5.747,5.747,0,0,0,134.3,85.5a5.95,5.95,0,0,0,1.722,4.324A5.747,5.747,0,0,0,140.309,91.589Z" transform="translate(454.526 26.647) rotate(17)" fill="#efefef"/>
    <path id="Trazado_935" data-name="Trazado 935" d="M47.309,76.684a29.85,29.85,0,0,1,1.382,8.756,23.161,23.161,0,0,1-1.475,8.479,18.212,18.212,0,0,1-7.465,9.355,22.572,22.572,0,0,1-12.534,3.456,22.462,22.462,0,0,1-12.3-3.364A18.341,18.341,0,0,1,7.4,94.195,26.741,26.741,0,0,1,6.02,89.126v-.184q0-1.014,1.106-1.014H18.278a1.181,1.181,0,0,1,1.2,1.014,3.275,3.275,0,0,0,.276.922,5.057,5.057,0,0,1,.276.645,7.745,7.745,0,0,0,2.765,3.687,7.362,7.362,0,0,0,4.332,1.29A7.568,7.568,0,0,0,31.641,94.1,8.037,8.037,0,0,0,34.5,90.232a10.739,10.739,0,0,0,.922-4.792,13.067,13.067,0,0,0-.829-4.792A6.2,6.2,0,0,0,32.01,76.96a7.95,7.95,0,0,0-4.516-1.29,9.9,9.9,0,0,0-4.792,1.2A6.044,6.044,0,0,0,19.752,80a1.157,1.157,0,0,1-1.2.922H7.218a1.1,1.1,0,0,1-1.106-1.106V42.675a1.1,1.1,0,0,1,1.106-1.106H45.282a1.1,1.1,0,0,1,1.106,1.106v8.94a1.1,1.1,0,0,1-1.106,1.106H19.568a.407.407,0,0,0-.461.461l-.092,13.64q0,.645.553.276a17.3,17.3,0,0,1,9.585-2.673A19.671,19.671,0,0,1,40.443,67.7,17.669,17.669,0,0,1,47.309,76.684Zm30.6,30.414q-10.138,0-16.036-5.668t-5.9-15.437V61.661q0-9.585,5.9-15.207t16.036-5.622q10.138,0,16.082,5.622t5.945,15.207V85.992q0,9.769-5.945,15.437T77.907,107.1Zm0-11.152a8.725,8.725,0,0,0,6.59-2.534,9.35,9.35,0,0,0,2.442-6.774V61.292A9.35,9.35,0,0,0,84.5,54.518a8.725,8.725,0,0,0-6.59-2.534,8.607,8.607,0,0,0-6.5,2.534,9.35,9.35,0,0,0-2.442,6.774V86.637a9.35,9.35,0,0,0,2.442,6.774A8.607,8.607,0,0,0,77.907,95.946Zm46.727-26.082a14.614,14.614,0,0,1-12.765-7.235,14.18,14.18,0,0,1-1.982-7.327,13.937,13.937,0,0,1,1.982-7.281,14.977,14.977,0,0,1,5.345-5.3,14.349,14.349,0,0,1,7.419-1.982,13.937,13.937,0,0,1,7.281,1.982,15.1,15.1,0,0,1,5.3,5.3A13.937,13.937,0,0,1,139.2,55.3a14.438,14.438,0,0,1-1.935,7.327,14.154,14.154,0,0,1-5.3,5.3A14.438,14.438,0,0,1,124.634,69.864Zm-3.594,36.22q-.645,0-.829-.369a1.016,1.016,0,0,1,.092-.922l34.746-62.487a1.523,1.523,0,0,1,1.382-.737h6.82q.645,0,.829.369a1.016,1.016,0,0,1-.092.922l-34.653,62.487a1.523,1.523,0,0,1-1.382.737Zm3.594-43.778a6.507,6.507,0,0,0,4.839-2.028,6.848,6.848,0,0,0,1.982-4.977,6.736,6.736,0,0,0-1.982-4.885,6.507,6.507,0,0,0-4.839-2.028,6.766,6.766,0,0,0-4.977,2.028A6.658,6.658,0,0,0,117.63,55.3a6.924,6.924,0,0,0,7,7Zm35.944,44.607a14.18,14.18,0,0,1-7.327-1.982,14.86,14.86,0,0,1-5.345-5.345,14.18,14.18,0,0,1-1.982-7.327,13.938,13.938,0,0,1,1.982-7.281,14.61,14.61,0,0,1,5.345-5.253,14.837,14.837,0,0,1,14.654,0,14.61,14.61,0,0,1,5.345,5.253,13.937,13.937,0,0,1,1.982,7.281,14.179,14.179,0,0,1-1.982,7.327,14.86,14.86,0,0,1-5.345,5.345A14.18,14.18,0,0,1,160.578,106.913Zm0-7.65a6.658,6.658,0,0,0,4.885-2.028,6.766,6.766,0,0,0,2.028-4.977,6.923,6.923,0,0,0-6.912-6.912,6.736,6.736,0,0,0-4.885,1.982,6.615,6.615,0,0,0-2.028,4.931,6.848,6.848,0,0,0,1.982,4.977A6.615,6.615,0,0,0,160.578,99.264Z" transform="translate(128.526 1271.647) rotate(17)" fill="#efefef"/>
  </g>
</svg>
