<svg xmlns="http://www.w3.org/2000/svg" width="400.948" height="175.983" viewBox="0 0 400.948 175.983">
  <g id="Grupo_34" data-name="Grupo 34" transform="translate(-68.17 -2126.241)">
    <g id="Grupo_32" data-name="Grupo 32">
      <path id="Trazado_70" data-name="Trazado 70" d="M124.525,2253.564q12.6,6.5,12.6,21.612,0,12.862-8.751,19.425t-22.938,6.563H71.092a1.584,1.584,0,0,1-1.591-1.591v-89.631a1.582,1.582,0,0,1,1.591-1.59h33.28q31.423,0,31.423,25.457,0,13.258-11.27,18.959Q123.73,2253.167,124.525,2253.564ZM88.2,2225.058v20.684a.584.584,0,0,0,.663.662h15.513q6.229,0,9.679-2.917a9.87,9.87,0,0,0,3.447-7.955,10.226,10.226,0,0,0-3.447-8.154q-3.45-2.984-9.679-2.984H88.859A.586.586,0,0,0,88.2,2225.058Zm26.783,56.814a12.332,12.332,0,0,0,0-17.1q-3.45-3.114-9.679-3.116H88.859a.586.586,0,0,0-.663.663v22.01a.585.585,0,0,0,.663.663h16.573Q111.53,2284.988,114.979,2281.872Z"/>
      <path id="Trazado_71" data-name="Trazado 71" d="M152.169,2300.7a1.529,1.529,0,0,1-.464-1.127v-89.631a1.582,1.582,0,0,1,1.591-1.59h15.513a1.582,1.582,0,0,1,1.591,1.59v74.515a.585.585,0,0,0,.663.663H214.42a1.586,1.586,0,0,1,1.591,1.591v12.862a1.586,1.586,0,0,1-1.591,1.591H153.3A1.529,1.529,0,0,1,152.169,2300.7Z"/>
      <path id="Trazado_72" data-name="Trazado 72" d="M287.077,2299.838l-3.978-12.994c-.178-.352-.4-.531-.663-.531H249.819c-.265,0-.487.179-.663.531l-3.845,12.994a1.665,1.665,0,0,1-1.723,1.326H226.749a1.483,1.483,0,0,1-1.193-.464,1.448,1.448,0,0,1-.133-1.393l28.639-89.63a1.665,1.665,0,0,1,1.724-1.325H276.6a1.666,1.666,0,0,1,1.724,1.325l28.639,89.63a1.5,1.5,0,0,1,.133.663q0,1.194-1.459,1.194H288.8A1.663,1.663,0,0,1,287.077,2299.838Zm-32.617-27.977H277.8q.795,0,.53-.8l-11.933-39.379q-.134-.528-.4-.464a.618.618,0,0,0-.4.464l-11.667,39.379Q253.795,2271.861,254.46,2271.861Z"/>
      <path id="Trazado_73" data-name="Trazado 73" d="M330.432,2298.18a29.012,29.012,0,0,1-12.065-11.336A32.85,32.85,0,0,1,314.124,2270v-30.628a32.853,32.853,0,0,1,4.243-16.838,28.605,28.605,0,0,1,12.065-11.271,39.565,39.565,0,0,1,18.165-3.977,40.541,40.541,0,0,1,17.966,3.779,28.514,28.514,0,0,1,12.065,10.739,29.982,29.982,0,0,1,4.309,16.11q0,1.193-1.591,1.458l-15.513.928h-.265c-.884,0-1.326-.484-1.326-1.458q0-7.026-4.309-11.27t-11.336-4.243q-7.159,0-11.469,4.243t-4.309,11.27V2270.8a14.929,14.929,0,0,0,4.309,11.137q4.307,4.245,11.469,4.243,7.026,0,11.336-4.243a14.933,14.933,0,0,0,4.309-11.137q0-1.458,1.591-1.459l15.513.663a1.678,1.678,0,0,1,1.127.4,1.2,1.2,0,0,1,.464.928,30.32,30.32,0,0,1-4.309,16.176,28.8,28.8,0,0,1-12.065,10.872,39.938,39.938,0,0,1-17.966,3.845A39,39,0,0,1,330.432,2298.18Z"/>
      <path id="Trazado_74" data-name="Trazado 74" d="M397.056,2300.7a1.525,1.525,0,0,1-.464-1.127v-89.631a1.582,1.582,0,0,1,1.591-1.59H413.7a1.582,1.582,0,0,1,1.591,1.59v37.125c0,.265.087.421.265.464a.546.546,0,0,0,.531-.2l30.628-38.052a2.514,2.514,0,0,1,1.989-.928h17.5q1.061,0,1.326.6a1.43,1.43,0,0,1-.265,1.392L437.7,2248.128a.76.76,0,0,0-.133.928l31.291,50.251a5.674,5.674,0,0,1,.265.928q0,.93-1.326.929h-17.5a1.9,1.9,0,0,1-1.857-1.061l-23.6-38.186a.428.428,0,0,0-.4-.265.764.764,0,0,0-.531.265l-8.353,10.475a2.017,2.017,0,0,0-.265.795v26.386a1.584,1.584,0,0,1-1.591,1.591H398.183A1.529,1.529,0,0,1,397.056,2300.7Z"/>
    </g>
    <g id="Grupo_33" data-name="Grupo 33">
      <path id="Trazado_75" data-name="Trazado 75" d="M81.748,2193.857a22.112,22.112,0,0,1-8.9-8.613,25.163,25.163,0,0,1-3.176-12.752V2151.9a24.706,24.706,0,0,1,3.176-12.607,21.9,21.9,0,0,1,8.9-8.517,27.863,27.863,0,0,1,13.233-3.032,28.084,28.084,0,0,1,13.329,3.032,21.911,21.911,0,0,1,8.9,8.517,24.706,24.706,0,0,1,3.176,12.607v20.595a25.426,25.426,0,0,1-3.176,12.8,21.735,21.735,0,0,1-8.9,8.614,28.084,28.084,0,0,1-13.329,3.031A27.508,27.508,0,0,1,81.748,2193.857Zm21.8-11.933a12.3,12.3,0,0,0,3.272-8.95V2151.8a12.578,12.578,0,0,0-3.224-9,11.287,11.287,0,0,0-8.613-3.417,11.165,11.165,0,0,0-8.517,3.417,12.57,12.57,0,0,0-3.224,9v21.173a12.4,12.4,0,0,0,3.224,8.95,11.244,11.244,0,0,0,8.517,3.368A11.4,11.4,0,0,0,103.546,2181.924Z" fill="none" stroke="#fff" stroke-miterlimit="10" stroke-width="3"/>
      <path id="Trazado_76" data-name="Trazado 76" d="M169.806,2128.848a1.111,1.111,0,0,1,.817-.337h11.26a1.149,1.149,0,0,1,1.155,1.155v65.058a1.149,1.149,0,0,1-1.155,1.154H171.008a1.376,1.376,0,0,1-1.347-.77l-24.926-41.19q-.193-.288-.385-.24c-.129.033-.192.177-.192.433l.192,40.613a1.149,1.149,0,0,1-1.155,1.154h-11.26a1.15,1.15,0,0,1-1.154-1.154v-65.058a1.15,1.15,0,0,1,1.154-1.155H142.81a1.381,1.381,0,0,1,1.348.77l24.829,41c.128.192.256.274.385.24s.193-.175.193-.433l-.1-40.42A1.112,1.112,0,0,1,169.806,2128.848Z" fill="none" stroke="#fff" stroke-miterlimit="10" stroke-width="3"/>
      <path id="Trazado_77" data-name="Trazado 77" d="M195.116,2195.541a1.105,1.105,0,0,1-.337-.817v-65.058a1.15,1.15,0,0,1,1.154-1.155h11.26a1.149,1.149,0,0,1,1.155,1.155v54.086a.424.424,0,0,0,.481.481H240.3a1.149,1.149,0,0,1,1.154,1.155v9.336a1.149,1.149,0,0,1-1.154,1.154H195.933A1.1,1.1,0,0,1,195.116,2195.541Z" fill="none" stroke="#fff" stroke-miterlimit="10" stroke-width="3"/>
      <path id="Trazado_78" data-name="Trazado 78" d="M262.194,2195.445a1.109,1.109,0,0,1-.336-.818v-24.348a1.343,1.343,0,0,0-.1-.577l-19.825-39.844a1.445,1.445,0,0,1-.192-.577q0-.769,1.058-.77h12.126a1.365,1.365,0,0,1,1.348.866l12.03,25.6q.288.578.577,0l12.03-25.6a1.362,1.362,0,0,1,1.347-.866h12.319a1.061,1.061,0,0,1,.914.337,1.039,1.039,0,0,1-.048,1.01L275.427,2169.7a1.346,1.346,0,0,0-.1.577v24.348a1.15,1.15,0,0,1-1.155,1.155H263.013A1.11,1.11,0,0,1,262.194,2195.445Z" fill="none" stroke="#fff" stroke-miterlimit="10" stroke-width="3"/>
    </g>
  </g>
</svg>
