<svg xmlns="http://www.w3.org/2000/svg" width="99.577" height="68.32" viewBox="0 0 99.577 68.32">
  <g id="Grupo_29" data-name="Grupo 29" transform="translate(-4295.898 -3251.905)">
    <path id="Trazado_63" data-name="Trazado 63" d="M4393.423,3302.006v-43.221a4.827,4.827,0,0,0-4.828-4.828h-85.817a4.828,4.828,0,0,0-4.828,4.828v54.559a4.828,4.828,0,0,0,4.828,4.828h74.48Z" fill="#fff" stroke="#fd3d00" stroke-miterlimit="10" stroke-width="4.105"/>
    <g id="Grupo_28" data-name="Grupo 28">
      <path id="Trazado_64" data-name="Trazado 64" d="M4311.632,3298.03a8.887,8.887,0,0,1-3.338-4.806,21.74,21.74,0,0,1-.616-5.871,23.288,23.288,0,0,1,.616-5.776,8.609,8.609,0,0,1,3.314-4.712,9.767,9.767,0,0,1,5.871-1.775,10.277,10.277,0,0,1,5.99,1.751,7.82,7.82,0,0,1,3.575,5.777v.095q0,.332-.427.426l-2.367.331h-.094q-.333,0-.427-.425l-.142-.711a5.319,5.319,0,0,0-2.083-3.054,6.479,6.479,0,0,0-4.025-1.255,6.176,6.176,0,0,0-3.953,1.255,5.739,5.739,0,0,0-2.06,3.338,21.561,21.561,0,0,0-.426,4.782,21.056,21.056,0,0,0,.426,4.829,5.758,5.758,0,0,0,2.06,3.386,6.17,6.17,0,0,0,3.953,1.255,6.681,6.681,0,0,0,4-1.207,5.118,5.118,0,0,0,2.107-3.1v-.189l.048-.19q.047-.472.568-.379l2.32.379c.315.064.457.237.426.521l-.189.947a7.5,7.5,0,0,1-3.268,4.45,10.58,10.58,0,0,1-6.013,1.7A9.66,9.66,0,0,1,4311.632,3298.03Z" fill="#fd3d00"/>
      <path id="Trazado_65" data-name="Trazado 65" d="M4346.669,3277.362a8.018,8.018,0,0,1,2.249,5.966v15.625a.418.418,0,0,1-.474.473h-2.414a.418.418,0,0,1-.474-.473v-14.962a5.914,5.914,0,0,0-1.586-4.261,5.422,5.422,0,0,0-4.1-1.657,5.523,5.523,0,0,0-5.823,5.823v15.057a.418.418,0,0,1-.474.473h-2.415a.418.418,0,0,1-.473-.473v-32.2a.418.418,0,0,1,.473-.474h2.415a.419.419,0,0,1,.474.474v11.221a.157.157,0,0,0,.071.142c.047.032.086.016.118-.047q2.083-2.936,6.392-2.936A8.214,8.214,0,0,1,4346.669,3277.362Z" fill="#fd3d00"/>
      <path id="Trazado_66" data-name="Trazado 66" d="M4354.22,3270.355a2.776,2.776,0,0,1,0-3.811,2.808,2.808,0,0,1,3.788,0,2.687,2.687,0,0,1-3.788,3.811Zm.095,28.551v-23.012a.418.418,0,0,1,.473-.472h2.415a.418.418,0,0,1,.474.472v23.012a.419.419,0,0,1-.474.474h-2.415A.419.419,0,0,1,4354.315,3298.906Z" fill="#fd3d00"/>
      <path id="Trazado_67" data-name="Trazado 67" d="M4382.865,3287.448a21.747,21.747,0,0,1-.616,5.871,8.8,8.8,0,0,1-3.1,4.758,9.016,9.016,0,0,1-5.658,1.728,7.918,7.918,0,0,1-3.409-.734,6.88,6.88,0,0,1-2.6-2.106c-.064-.064-.119-.087-.166-.072a.11.11,0,0,0-.071.118v11.127a.419.419,0,0,1-.474.474h-2.414a.419.419,0,0,1-.474-.474v-32.2a.419.419,0,0,1,.474-.474h2.414a.419.419,0,0,1,.474.474v1.988c0,.064.023.1.071.118s.1-.006.166-.07a7.171,7.171,0,0,1,2.58-2.131,7.665,7.665,0,0,1,3.433-.757,8.942,8.942,0,0,1,5.563,1.7,8.668,8.668,0,0,1,3.1,4.639A20.757,20.757,0,0,1,4382.865,3287.448Zm-3.67,3.622a19.5,19.5,0,0,0,.261-3.622,24.721,24.721,0,0,0-.19-3.481,7.983,7.983,0,0,0-.663-2.249,5.174,5.174,0,0,0-2.012-2.7,5.909,5.909,0,0,0-3.433-.994,5.016,5.016,0,0,0-3.172.994,5.851,5.851,0,0,0-1.894,2.653,8.389,8.389,0,0,0-.615,2.224,25.541,25.541,0,0,0-.19,3.552,26.058,26.058,0,0,0,.19,3.574,7.992,7.992,0,0,0,.662,2.3,5.351,5.351,0,0,0,1.871,2.58,5.036,5.036,0,0,0,3.1.971,5.729,5.729,0,0,0,3.291-.947,5.338,5.338,0,0,0,2.012-2.509A9.318,9.318,0,0,0,4379.195,3291.07Z" fill="#fd3d00"/>
    </g>
  </g>
</svg>
