<?xml version="1.0" encoding="utf-8"?>
<!-- Generator: Adobe Illustrator 24.1.0, SVG Export Plug-In . SVG Version: 6.00 Build 0)  -->
<svg version="1.1" id="Capa_1" xmlns="http://www.w3.org/2000/svg" xmlns:xlink="http://www.w3.org/1999/xlink" x="0px" y="0px"
	 viewBox="0 0 638.6 177.1" style="enable-background:new 0 0 638.6 177.1;" xml:space="preserve">
<style type="text/css">
	.st0{enable-background:new    ;}
	.st1{fill:#005CFD;}
</style>
<g id="Grupo_13" transform="translate(-1212.947 -2127.101)">
	<g class="st0">
		<path class="st1" d="M1461,2245.5l-14.1-48.1l-0.1-0.3c0-0.5,0.3-0.8,1-0.8h3.4c0.6,0,1,0.3,1.1,0.9l11.4,41.4
			c0.1,0.1,0.1,0.2,0.2,0.2s0.2-0.1,0.2-0.2l11.5-41.5c0.1-0.5,0.5-0.8,1.1-0.8h3.1c0.5,0,0.9,0.3,1.1,0.8l11.7,41.4
			c0.1,0.1,0.1,0.2,0.2,0.2s0.2-0.1,0.2-0.2l11.6-41.3c0.1-0.6,0.5-0.9,1.1-0.9l3.3,0.1c0.3,0,0.6,0.1,0.8,0.3
			c0.2,0.2,0.2,0.5,0.1,0.8l-14.2,48c-0.2,0.5-0.6,0.8-1.1,0.8h-3.4c-0.5,0-0.9-0.3-1.1-0.8l-11.7-39.7c-0.1-0.1-0.1-0.2-0.2-0.2
			c-0.1,0-0.2,0.1-0.2,0.2l-11.4,39.7c-0.2,0.5-0.6,0.8-1.1,0.8h-3.5C1461.6,2246.3,1461.2,2246.1,1461,2245.5z"/>
		<path class="st1" d="M1547.5,2240.3c2.2-1.4,4-3.4,5.2-5.9c0.3-0.6,0.8-0.8,1.3-0.5l2.6,1.3c0.6,0.3,0.8,0.8,0.5,1.3
			c-1.5,3.2-3.8,5.8-6.9,7.7c-3.1,1.9-6.8,2.9-11.1,2.9c-4.6,0-8.6-1.1-11.8-3.4c-3.2-2.2-5.5-5.3-6.7-9.2c-0.5-1.7-0.9-3.5-1.1-5.6
			c-0.2-2.1-0.3-4.6-0.3-7.7c0-3.2,0-5.7,0.1-7.3c0.1-1.7,0.3-3.2,0.6-4.6c1.1-4.2,3.2-7.5,6.5-10s7.3-3.8,12.1-3.8
			c5.4,0,9.8,1.4,13,4.2c3.2,2.8,5.3,6.7,6.1,11.7c0.2,1.3,0.3,2.7,0.4,4.4c0.1,1.7,0.1,3.8,0.1,6.3c0,0.7-0.3,1-1,1h-32.4
			c-0.3,0-0.4,0.1-0.4,0.4c0,4.2,0.2,7,0.5,8.4c0.7,3.2,2.4,5.8,4.9,7.7c2.5,1.9,5.8,2.8,9.7,2.8
			C1542.6,2242.4,1545.3,2241.7,1547.5,2240.3z M1524.4,2218.2c0,0.3,0.1,0.4,0.4,0.4h27.7c0.3,0,0.4-0.1,0.4-0.4
			c0-3.3-0.2-5.8-0.5-7.4c-0.7-3.2-2.3-5.7-4.8-7.7c-2.4-2-5.5-2.9-9-2.9c-3.6,0-6.6,0.9-8.9,2.8c-2.4,1.9-3.9,4.4-4.6,7.5
			C1524.8,2211.7,1524.6,2214.3,1524.4,2218.2z"/>
		<path class="st1" d="M1611.3,2214.1c0.1,1.9,0.2,4.4,0.2,7.3c0,5.6-0.4,9.7-1.1,12.5c-1.1,4-3.2,7.2-6.4,9.6
			c-3.1,2.4-6.9,3.6-11.4,3.6c-2.9,0-5.5-0.6-7.8-1.8c-2.3-1.2-4.2-2.9-5.6-5.1c-0.1-0.1-0.2-0.2-0.3-0.1c-0.1,0-0.1,0.1-0.1,0.3
			v4.9c0,0.7-0.3,1-1,1h-3.3c-0.7,0-1-0.3-1-1v-67.5c0-0.7,0.3-1,1-1h3.3c0.7,0,1,0.3,1,1v24.4c0,0.2,0.1,0.3,0.2,0.3
			c0.1,0,0.2,0,0.3-0.2c1.4-2.2,3.2-3.9,5.6-5.1c2.3-1.2,4.9-1.8,7.8-1.8c4.6,0,8.5,1.2,11.6,3.6c3.1,2.4,5.2,5.7,6.3,9.8
			C1610.9,2210.4,1611.2,2212.1,1611.3,2214.1z M1605.9,2228.8c0.2-1.6,0.3-4.1,0.3-7.5c0-3.5-0.1-6.1-0.3-7.6
			c-0.2-1.6-0.6-3.1-1.2-4.5c-0.8-2.6-2.3-4.8-4.6-6.5c-2.2-1.7-4.9-2.5-8-2.5c-3,0-5.6,0.8-7.7,2.5s-3.5,3.9-4.2,6.6
			c-0.5,1.3-0.8,2.8-1,4.4c-0.2,1.6-0.3,4.2-0.3,7.7c0,3.4,0.1,5.9,0.2,7.4c0.2,1.6,0.5,3,0.9,4.3c0.7,2.8,2.1,5,4.2,6.7
			c2.1,1.7,4.7,2.6,7.9,2.6c3.2,0,5.9-0.9,8.2-2.6c2.3-1.7,3.8-4,4.6-6.7C1605.4,2231.8,1605.7,2230.4,1605.9,2228.8z"/>
	</g>
	<g class="st0">
		<path class="st1" d="M1624.9,2246c-0.2-0.2-0.3-0.5-0.3-0.8V2178c0-0.3,0.1-0.6,0.3-0.8c0.2-0.2,0.5-0.3,0.8-0.3h24.8
			c5,0,9.3,0.9,13.1,2.6c3.7,1.8,6.6,4.2,8.7,7.4c2.1,3.2,3.1,6.8,3.1,11v27.4c0,4.2-1,7.8-3.1,11c-2.1,3.2-4.9,5.6-8.7,7.4
			c-3.7,1.8-8.1,2.6-13.1,2.6h-24.8C1625.4,2246.3,1625.2,2246.2,1624.9,2246z M1639.1,2234.3h12c3,0,5.5-1,7.4-3.1
			c1.9-2.1,2.9-4.8,2.9-8.2v-22.8c0-3.4-0.9-6.2-2.8-8.2c-1.9-2-4.4-3.1-7.6-3.1h-11.9c-0.3,0-0.5,0.2-0.5,0.5v44.5
			C1638.6,2234.1,1638.7,2234.3,1639.1,2234.3z"/>
		<path class="st1" d="M1725,2245.3l-3-9.7c-0.1-0.3-0.3-0.4-0.5-0.4h-24.4c-0.2,0-0.4,0.1-0.5,0.4l-2.9,9.7c-0.2,0.7-0.6,1-1.3,1
			h-12.6c-0.4,0-0.7-0.1-0.9-0.3c-0.2-0.2-0.2-0.6-0.1-1l21.4-67.1c0.2-0.7,0.6-1,1.3-1h15.6c0.7,0,1.1,0.3,1.3,1l21.4,67.1
			c0.1,0.1,0.1,0.3,0.1,0.5c0,0.6-0.4,0.9-1.1,0.9h-12.6C1725.7,2246.3,1725.2,2246,1725,2245.3z M1700.6,2224.4h17.5
			c0.4,0,0.5-0.2,0.4-0.6l-8.9-29.5c-0.1-0.3-0.2-0.4-0.3-0.3c-0.1,0-0.2,0.1-0.3,0.3l-8.7,29.5
			C1700.2,2224.2,1700.3,2224.4,1700.6,2224.4z"/>
		<path class="st1" d="M1757.9,2245.9c-0.2-0.2-0.3-0.5-0.3-0.8v-25.1c0-0.3,0-0.5-0.1-0.6l-20.4-41.1c-0.1-0.3-0.2-0.5-0.2-0.6
			c0-0.5,0.4-0.8,1.1-0.8h12.5c0.7,0,1.1,0.3,1.4,0.9l12.4,26.4c0.2,0.4,0.4,0.4,0.6,0l12.4-26.4c0.3-0.6,0.7-0.9,1.4-0.9h12.7
			c0.5,0,0.8,0.1,0.9,0.3c0.2,0.2,0.1,0.6,0,1l-20.6,41.1c-0.1,0.1-0.1,0.3-0.1,0.6v25.1c0,0.3-0.1,0.6-0.3,0.8
			c-0.2,0.2-0.5,0.3-0.8,0.3h-11.5C1758.4,2246.2,1758.2,2246.1,1757.9,2245.9z"/>
		<path class="st1" d="M1808.3,2244.6c-4-1.7-7-4.1-9.2-7.2c-2.2-3.1-3.2-6.8-3.2-11v-2.2c0-0.3,0.1-0.6,0.3-0.8
			c0.2-0.2,0.5-0.3,0.8-0.3h11.3c0.3,0,0.6,0.1,0.8,0.3c0.2,0.2,0.3,0.5,0.3,0.8v1.5c0,2.6,1.2,4.9,3.7,6.7c2.4,1.8,5.8,2.7,9.9,2.7
			c3.5,0,6.1-0.7,7.8-2.2c1.7-1.5,2.6-3.3,2.6-5.5c0-1.6-0.5-2.9-1.6-4c-1.1-1.1-2.5-2-4.3-2.9c-1.8-0.8-4.7-2-8.7-3.4
			c-4.4-1.5-8.2-3.1-11.3-4.7s-5.7-3.8-7.7-6.5c-2.1-2.7-3.1-6.1-3.1-10.2c0-4,1-7.4,3.1-10.4c2-3,4.9-5.3,8.5-6.8
			c3.6-1.6,7.8-2.4,12.6-2.4c5,0,9.5,0.9,13.4,2.7c3.9,1.8,7,4.3,9.2,7.5c2.2,3.2,3.3,6.9,3.3,11.2v1.5c0,0.3-0.1,0.6-0.3,0.8
			c-0.2,0.2-0.5,0.3-0.8,0.3h-11.4c-0.3,0-0.6-0.1-0.8-0.3c-0.2-0.2-0.3-0.5-0.3-0.8v-0.8c0-2.8-1.1-5.1-3.4-7.1
			c-2.3-2-5.4-2.9-9.4-2.9c-3.1,0-5.5,0.7-7.3,2c-1.8,1.3-2.6,3.1-2.6,5.5c0,1.7,0.5,3,1.5,4.2c1,1.1,2.5,2.1,4.6,3
			c2,0.9,5.1,2.1,9.4,3.6c4.7,1.7,8.4,3.2,11.1,4.6c2.7,1.3,5.1,3.3,7.2,5.9c2.1,2.6,3.2,6,3.2,10.2c0,6.2-2.3,11.1-6.8,14.7
			c-4.6,3.6-10.8,5.4-18.6,5.4C1816.9,2247.1,1812.3,2246.3,1808.3,2244.6z"/>
	</g>
	<path id="Trazado_35" class="st1" d="M1273.9,2293.6l-52.5-58c-12-13.3-11-33.8,2.3-45.9c0,0,0,0,0,0l59.8-54.2
		c11.3-10.3,28.3-11.2,40.7-2.3l75.2,54.1c14.6,10.5,17.9,30.8,7.4,45.3c-2.1,2.9-4.7,5.5-7.7,7.6l-82.6,58.1
		C1303.2,2307.8,1284.9,2305.7,1273.9,2293.6z"/>
</g>
</svg>
