<svg xmlns="http://www.w3.org/2000/svg" width="447.46" height="237.936" viewBox="0 0 447.46 237.936">
  <g id="Grupo_2" data-name="Grupo 2" transform="translate(-2736.892 -2046.491)">
    <text id="Felíz_día_del_niño" data-name="Felíz día
del niño" transform="translate(2942.353 2199.427)" fill="#005cfd" font-size="68.516" font-family="Barlow-Bold, Barlow" font-weight="700"><tspan x="0" y="0">Felíz día</tspan><tspan x="0" y="70.672">del niño</tspan></text>
    <g id="Grupo_1" data-name="Grupo 1">
      <path id="Trazado_2" data-name="Trazado 2" d="M2878.278,2193.593a39.661,39.661,0,1,1-31.214,64.133c-.534-.68-1.046-1.7-1.535-2.414" fill="none" stroke="#fff" stroke-linecap="round" stroke-linejoin="round" stroke-width="8.283"/>
      <line id="Línea_1" data-name="Línea 1" x2="48.846" y2="0.052" transform="translate(2829.433 2193.541)" fill="none" stroke="#fff" stroke-linecap="round" stroke-linejoin="round" stroke-width="8.283"/>
      <line id="Línea_2" data-name="Línea 2" x1="16.097" transform="translate(2829.432 2255.313)" fill="none" stroke="#fff" stroke-linecap="round" stroke-linejoin="round" stroke-width="8.283"/>
      <path id="Trazado_3" data-name="Trazado 3" d="M2780.7,2193.593a39.661,39.661,0,1,0,31.214,64.133c.534-.68,1.046-1.7,1.538-2.414" fill="none" stroke="#fff" stroke-linecap="round" stroke-linejoin="round" stroke-width="8.283"/>
      <path id="Trazado_4" data-name="Trazado 4" d="M2829.542,2162.081v31.46l-48.846.052" fill="none" stroke="#fff" stroke-linecap="round" stroke-linejoin="round" stroke-width="8.283"/>
      <line id="Línea_3" data-name="Línea 3" x2="16.094" transform="translate(2813.446 2255.313)" fill="none" stroke="#fff" stroke-linecap="round" stroke-linejoin="round" stroke-width="8.283"/>
      <line id="Línea_4" data-name="Línea 4" y2="31.073" transform="translate(2780.696 2217.718)" fill="none" stroke="#42e8b4" stroke-linecap="round" stroke-linejoin="round" stroke-width="8.283"/>
      <line id="Línea_5" data-name="Línea 5" x1="31.073" transform="translate(2765.16 2233.255)" fill="none" stroke="#42e8b4" stroke-linecap="round" stroke-linejoin="round" stroke-width="8.283"/>
      <path id="Trazado_5" data-name="Trazado 5" d="M2861.975,2223.2a7.668,7.668,0,1,1-7.67,7.67,7.668,7.668,0,0,1,7.67-7.67" fill="#fd6c98"/>
      <path id="Trazado_6" data-name="Trazado 6" d="M2894.582,2223.2a7.668,7.668,0,1,1-7.667,7.67,7.669,7.669,0,0,1,7.667-7.67" fill="#fd6c98"/>
      <path id="Trazado_7" data-name="Trazado 7" d="M2885.947,2214.569a7.668,7.668,0,1,1-7.667-7.67,7.669,7.669,0,0,1,7.667,7.67" fill="#fd6c98"/>
      <path id="Trazado_8" data-name="Trazado 8" d="M2885.947,2247.177a7.668,7.668,0,1,1-7.667-7.669,7.667,7.667,0,0,1,7.667,7.669" fill="#fd6c98"/>
      <path id="Trazado_9" data-name="Trazado 9" d="M2820.469,2217.3h-7.416a3.214,3.214,0,0,1,0-6.428h7.416a3.214,3.214,0,1,1,0,6.428" fill="#fff"/>
      <path id="Trazado_10" data-name="Trazado 10" d="M2845.736,2217.3h-7.416a3.214,3.214,0,1,1,0-6.428h7.416a3.214,3.214,0,0,1,0,6.428" fill="#fff"/>
      <path id="Trazado_11" data-name="Trazado 11" d="M2829.542,2162.081h-26.63a11.108,11.108,0,0,1,0-22.216h48.848" fill="none" stroke="#fff" stroke-linecap="round" stroke-linejoin="round" stroke-width="8.283"/>
      <path id="Trazado_12" data-name="Trazado 12" d="M2862.869,2050.632v78.124a11.111,11.111,0,0,1-11.109,11.11" fill="none" stroke="#fff" stroke-linecap="round" stroke-linejoin="round" stroke-width="8.283"/>
    </g>
  </g>
</svg>
