<svg xmlns="http://www.w3.org/2000/svg" width="433.746" height="201.022" viewBox="0 0 433.746 201.022">
  <g id="Grupo_16" data-name="Grupo 16" transform="translate(-2742.497 -34.626)">
    <text id="imperdibles" transform="translate(2785.75 220.649)" fill="#fff" font-size="76.349" font-family="Barlow-Regular, Barlow"><tspan x="0" y="0">imperdibles</tspan></text>
    <text id="fertas" transform="translate(2864.243 147.626)" fill="#fff" font-size="113.197" font-family="Barlow-ExtraBold, Barlow" font-weight="800"><tspan x="0" y="0">fertas</tspan></text>
    <g id="Grupo_14" data-name="Grupo 14">
      <path id="Trazado_37" data-name="Trazado 37" d="M2818.881,80.928a29.8,29.8,0,1,1-21.072,8.728,29.6,29.6,0,0,1,21.072-8.728m0-16.073a45.873,45.873,0,1,0,32.438,13.436,45.732,45.732,0,0,0-32.438-13.436Z" fill="#fff"/>
      <g id="Trazado_38" data-name="Trazado 38" fill="none" stroke-miterlimit="10">
        <path d="M2784.787,128.723,2745.72,167.79a11.082,11.082,0,0,0,0,15.627h0a11.083,11.083,0,0,0,15.627,0l39.066-39.067Z" stroke="none"/>
        <path d="M 2784.787109375 128.7230072021484 L 2800.4130859375 144.3500061035156 L 2761.346923828125 183.4170074462891 C 2759.197998046875 185.5655059814453 2756.365478515625 186.6397552490234 2753.533203125 186.6397552490234 C 2750.700927734375 186.6397552490234 2747.86865234375 185.5655059814453 2745.719970703125 183.4170074462891 C 2741.422119140625 179.1190032958984 2741.422119140625 172.0870056152344 2745.719970703125 167.7900085449219 L 2784.787109375 128.7230072021484 Z" stroke="none" fill="#fff"/>
      </g>
    </g>
    <g id="Grupo_15" data-name="Grupo 15">
      <path id="Trazado_39" data-name="Trazado 39" d="M2800.465,114.077a3.348,3.348,0,0,1-3.348-3.348,23.8,23.8,0,0,1,23.774-23.774,3.348,3.348,0,0,1,0,6.7,17.1,17.1,0,0,0-17.077,17.077A3.349,3.349,0,0,1,2800.465,114.077Z" fill="#fff"/>
    </g>
  </g>
</svg>
