<svg xmlns="http://www.w3.org/2000/svg" width="48.856" height="48.856" viewBox="0 0 48.856 48.856">
  <g id="Grupo_4" data-name="Grupo 4" transform="translate(-3087.437 -3603.035)">
    <path id="Trazado_15" data-name="Trazado 15" d="M3136.293,3622.669v9.93a1.716,1.716,0,0,1-1.941,1.942H3119.4a.6.6,0,0,0-.685.685v14.724a1.716,1.716,0,0,1-1.941,1.941h-9.817a1.714,1.714,0,0,1-1.94-1.941v-14.724a.605.605,0,0,0-.685-.685h-14.954a1.715,1.715,0,0,1-1.94-1.942v-9.93a1.714,1.714,0,0,1,1.94-1.94h14.954a.606.606,0,0,0,.685-.685v-15.069a1.714,1.714,0,0,1,1.94-1.94h9.817a1.716,1.716,0,0,1,1.941,1.94v15.069a.605.605,0,0,0,.685.685h14.953A1.715,1.715,0,0,1,3136.293,3622.669Z" fill="#31c9ef"/>
  </g>
</svg>
